<svg width="28" height="28" viewBox="0 0 28 28" fill="none" xmlns="http://www.w3.org/2000/svg">
<path d="M11 20V21C11 21.7956 11.3161 22.5587 11.8787 23.1213C12.4413 23.6839 13.2044 24 14 24C14.7956 24 15.5587 23.6839 16.1213 23.1213C16.6839 22.5587 17 21.7956 17 21V20" stroke="#043449" stroke-width="2" stroke-linecap="round" stroke-linejoin="round"/>
<path d="M11.75 6.28571C11.75 5.67951 11.9871 5.09812 12.409 4.66947C12.831 4.24082 13.4033 4 14 4C14.5967 4 15.169 4.24082 15.591 4.66947C16.0129 5.09812 16.25 5.67951 16.25 6.28571C17.542 6.90632 18.6433 7.87237 19.4361 9.08034C20.2288 10.2883 20.683 11.6927 20.75 13.1429V16.5714C20.8347 17.282 21.0824 17.9624 21.4732 18.5579C21.864 19.1534 22.3869 19.6473 23 20H5C5.61306 19.6473 6.13604 19.1534 6.52684 18.5579C6.91764 17.9624 7.16534 17.282 7.25 16.5714V13.1429C7.31701 11.6927 7.77121 10.2883 8.56394 9.08034C9.35667 7.87237 10.458 6.90632 11.75 6.28571" stroke="#043449" stroke-width="2" stroke-linecap="round" stroke-linejoin="round"/>
<circle cx="20.5" cy="11.5" r="3.5" fill="#F70C0C"/>
</svg>
