<svg width="360" height="186" viewBox="0 0 360 186" fill="none" xmlns="http://www.w3.org/2000/svg">
<g filter="url(#filter0_i_1547_120562)">
<rect width="359.999" height="185.625" rx="15" fill="#EDF2F4"/>
</g>
<mask id="mask0_1547_120562" style="mask-type:alpha" maskUnits="userSpaceOnUse" x="0" y="0" width="360" height="185">
<rect width="360" height="185" rx="15" fill="#C4C4C4"/>
</mask>
<g mask="url(#mask0_1547_120562)">
<mask id="mask1_1547_120562" style="mask-type:alpha" maskUnits="userSpaceOnUse" x="0" y="0" width="439" height="374">
<rect width="438.749" height="373.499" fill="#FAFAFA"/>
</mask>
<g mask="url(#mask1_1547_120562)">
<circle opacity="0.05" cx="307.238" cy="160.988" r="138.488" fill="url(#paint0_linear_1547_120562)"/>
<circle opacity="0.04" cx="7.31271" cy="6.18771" r="84.9373" transform="rotate(-180 7.31271 6.18771)" fill="url(#paint1_linear_1547_120562)"/>
<circle opacity="0.05" cx="322.857" cy="175.393" r="82.2551" fill="url(#paint2_linear_1547_120562)"/>
<ellipse opacity="0.04" cx="-2.24987" cy="-2.81237" rx="50.6249" ry="50.0624" transform="rotate(-180 -2.24987 -2.81237)" fill="url(#paint3_linear_1547_120562)"/>
<g opacity="0.1" filter="url(#filter1_f_1547_120562)">
<circle cx="-41.0628" cy="523.686" r="135.562" fill="url(#paint4_linear_1547_120562)"/>
</g>
<g opacity="0.2" filter="url(#filter2_f_1547_120562)">
<circle cx="415.124" cy="-29.2501" r="241.874" fill="url(#paint5_linear_1547_120562)"/>
</g>
</g>
<g filter="url(#filter3_d_1547_120562)">
<path d="M202.123 84.696L164.117 84.696L156.856 95.4516L149.773 84.696L112.441 84.696C111.873 84.696 111.311 84.5843 110.787 84.3671C110.263 84.1499 109.786 83.8315 109.385 83.4302C108.984 83.0289 108.665 82.5525 108.448 82.0281C108.231 81.5038 108.119 80.9418 108.119 80.3743L108.119 14.4751C108.119 13.9072 108.23 13.3446 108.447 12.8197C108.664 12.2948 108.982 11.8178 109.383 11.416C109.785 11.0142 110.261 10.6954 110.786 10.4779C111.311 10.2604 111.873 10.1484 112.441 10.1484L202.123 10.1484C202.691 10.1484 203.253 10.2604 203.778 10.4779C204.302 10.6954 204.779 11.0142 205.18 11.416C205.582 11.8178 205.9 12.2948 206.117 12.8197C206.334 13.3446 206.445 13.9072 206.445 14.4751L206.445 80.3938C206.439 81.5366 205.982 82.6309 205.172 83.4371C204.362 84.2434 203.266 84.696 202.123 84.696Z" fill="white"/>
</g>
<path d="M133.175 57.7285L126.946 57.7285C125.467 57.7285 124.267 58.928 124.267 60.4076V71.0801C124.267 72.5597 125.467 73.7592 126.946 73.7592H133.175C134.654 73.7592 135.854 72.5597 135.854 71.0801V60.4076C135.854 58.928 134.654 57.7285 133.175 57.7285Z" fill="#F3F3F3"/>
<path d="M160.519 57.7285L154.603 57.7285C153.123 57.7285 151.924 58.928 151.924 60.4076V71.0801C151.924 72.5597 153.123 73.7592 154.603 73.7592H160.519C161.998 73.7592 163.198 72.5597 163.198 71.0801V60.4076C163.198 58.928 161.998 57.7285 160.519 57.7285Z" fill="#F3F3F3"/>
<path d="M146.966 57.7285L141.05 57.7285C139.571 57.7285 138.371 58.928 138.371 60.4076V71.0801C138.371 72.5597 139.571 73.7592 141.05 73.7592H146.966C148.446 73.7592 149.645 72.5597 149.645 71.0801V60.4076C149.645 58.928 148.446 57.7285 146.966 57.7285Z" fill="#F3F3F3"/>
<path d="M174.324 57.7285L168.09 57.7285C166.611 57.7285 165.411 58.928 165.411 60.4076V71.0801C165.411 72.5597 166.611 73.7592 168.09 73.7592H174.324C175.803 73.7592 177.003 72.5597 177.003 71.0801V60.4076C177.003 58.928 175.803 57.7285 174.324 57.7285Z" fill="#F3F3F3"/>
<path d="M187.616 57.7285L181.383 57.7285C179.903 57.7285 178.704 58.928 178.704 60.4076V71.0801C178.704 72.5597 179.903 73.7592 181.383 73.7592H187.616C189.096 73.7592 190.295 72.5597 190.295 71.0801V60.4076C190.295 58.928 189.096 57.7285 187.616 57.7285Z" fill="#F3F3F3"/>
<path d="M131.536 65.3209L132.773 65.9907L132.215 66.9245L130.969 66.1814V67.56H129.903V66.1716L128.651 66.9245L128.104 65.9907L129.346 65.3209L128.104 64.6365L128.651 63.7027L129.903 64.4556V63.0671H130.969V64.4556L132.215 63.7027L132.773 64.6365L131.536 65.3209Z" fill="url(#paint6_linear_1547_120562)"/>
<path d="M145.059 65.2474L146.301 65.9172L145.744 66.851L144.492 66.1176L144.517 67.4963H143.446V66.1079L142.194 66.8608L141.652 65.927L142.889 65.2572L141.652 64.5727L142.194 63.639L143.446 64.3919V63.0034H144.517L144.492 64.3919L145.744 63.639L146.301 64.5727L145.059 65.2474Z" fill="url(#paint7_linear_1547_120562)"/>
<path d="M158.913 65.2474L160.155 65.9172L159.598 66.851L158.322 66.1177L158.346 67.4963H157.276V66.1079L156.024 66.8608L155.491 65.9172L156.728 65.2474L155.491 64.563L156.034 63.6292L157.285 64.3821V62.9937H158.356L158.332 64.3821L159.583 63.6292L160.141 64.563L158.913 65.2474Z" fill="url(#paint8_linear_1547_120562)"/>
<path d="M172.29 65.2474L173.527 65.9172L172.969 66.851L171.718 66.1176L171.742 67.4963H170.671V66.1079L169.42 66.8608L168.872 65.927L170.114 65.2572L168.872 64.5727L169.42 63.639L170.671 64.3919V63.0034H171.742L171.718 64.3919L172.969 63.639L173.527 64.5727L172.29 65.2474Z" fill="url(#paint9_linear_1547_120562)"/>
<path d="M187.715 69.6037C186.65 69.7324 185.576 69.7749 184.503 69.7308C183.431 69.7749 182.357 69.7324 181.291 69.6037C182.357 69.478 183.431 69.4355 184.503 69.4766C185.576 69.4355 186.65 69.478 187.715 69.6037Z" fill="url(#paint10_linear_1547_120562)"/>
<path d="M158.062 47.1989C165.214 47.1989 171.012 41.4007 171.012 34.2483C171.012 27.0958 165.214 21.2976 158.062 21.2976C150.909 21.2976 145.111 27.0958 145.111 34.2483C145.111 41.4007 150.909 47.1989 158.062 47.1989Z" fill="url(#paint11_linear_1547_120562)"/>
<path fill-rule="evenodd" clip-rule="evenodd" d="M156.718 28.6168C156.311 29.0117 155.995 29.6403 155.995 30.5776V34.0145C155.995 34.489 155.61 34.8737 155.135 34.8737C154.661 34.8737 154.276 34.489 154.276 34.0145V30.5776C154.276 29.2237 154.748 28.1338 155.522 27.3831C156.286 26.6422 157.294 26.2815 158.286 26.2815C159.278 26.2815 160.286 26.6422 161.05 27.3831C161.824 28.1338 162.296 29.2237 162.296 30.5776V34.0145C162.296 34.489 161.911 34.8737 161.436 34.8737C160.962 34.8737 160.577 34.489 160.577 34.0145V30.5776C160.577 29.6403 160.261 29.0117 159.854 28.6168C159.436 28.2121 158.869 27.9999 158.286 27.9999C157.703 27.9999 157.135 28.2121 156.718 28.6168Z" fill="white"/>
<path d="M152.557 34.9283C152.557 33.9491 153.351 33.1553 154.33 33.1553L162.241 33.1553C163.22 33.1553 164.014 33.9491 164.014 34.9283V39.4017C164.014 40.3809 163.22 41.1747 162.241 41.1747L154.33 41.1747C153.351 41.1747 152.557 40.3809 152.557 39.4017V34.9283Z" fill="#09AFF6"/>
<path d="M152.557 34.9283C152.557 33.9491 153.351 33.1553 154.33 33.1553L162.241 33.1553C163.22 33.1553 164.014 33.9491 164.014 34.9283V39.4017C164.014 40.3809 163.22 41.1747 162.241 41.1747L154.33 41.1747C153.351 41.1747 152.557 40.3809 152.557 39.4017V34.9283Z" fill="white"/>
<path fill-rule="evenodd" clip-rule="evenodd" d="M158.715 37.0815C159.134 36.9116 159.431 36.5 159.431 36.0192C159.431 35.3865 158.918 34.8735 158.285 34.8735C157.652 34.8735 157.139 35.3865 157.139 36.0192C157.139 36.5 157.436 36.9116 157.855 37.0815V38.5968C157.855 38.9132 158.048 39.0264 158.285 39.0264C158.522 39.0264 158.715 38.9132 158.715 38.5968V37.0815Z" fill="#0A8CF7"/>
<path fill-rule="evenodd" clip-rule="evenodd" d="M158.715 37.0815V38.5968C158.715 38.9132 158.523 39.0264 158.285 39.0264C158.048 39.0264 157.856 38.9132 157.856 38.5968V37.0815C157.436 36.9115 157.14 36.4999 157.14 36.0191C157.14 35.3864 157.653 34.8735 158.285 34.8735C158.918 34.8735 159.431 35.3864 159.431 36.0191C159.431 36.4999 159.135 36.9115 158.715 37.0815ZM160.14 36.0191C160.14 36.6149 159.86 37.1441 159.424 37.4831V38.5968C159.424 38.9041 159.325 39.2292 159.056 39.4645C158.804 39.6845 158.505 39.7356 158.285 39.7356C158.066 39.7356 157.767 39.6845 157.515 39.4645C157.246 39.2292 157.147 38.9041 157.147 38.5968V37.4831C156.711 37.1441 156.431 36.6149 156.431 36.0191C156.431 34.9947 157.261 34.1643 158.285 34.1643C159.31 34.1643 160.14 34.9947 160.14 36.0191Z" fill="white"/>
<path d="M201.659 20.3811C202.133 18.224 200.77 16.0906 198.613 15.616C196.456 15.1413 194.322 16.5051 193.847 18.6622C193.373 20.8192 194.737 22.9527 196.894 23.4273C199.051 23.902 201.184 22.5381 201.659 20.3811Z" fill="#E0E0E0"/>
<path d="M196.466 20.9448C196.45 20.9446 196.433 20.941 196.418 20.9343C196.403 20.9276 196.39 20.9178 196.378 20.9057C196.367 20.8947 196.357 20.8815 196.351 20.8668C196.345 20.8521 196.341 20.8362 196.341 20.8202C196.341 20.8041 196.345 20.7883 196.351 20.7735C196.357 20.7588 196.367 20.7456 196.378 20.7346L198.969 18.1435C198.98 18.1318 198.994 18.1225 199.008 18.1161C199.023 18.1097 199.039 18.1064 199.055 18.1064C199.071 18.1064 199.087 18.1097 199.102 18.1161C199.116 18.1225 199.13 18.1318 199.141 18.1435C199.152 18.1549 199.162 18.1686 199.168 18.1837C199.175 18.1988 199.178 18.2151 199.178 18.2315C199.178 18.2479 199.175 18.2642 199.168 18.2793C199.162 18.2944 199.152 18.3081 199.141 18.3195L196.549 20.9057C196.528 20.9291 196.498 20.9431 196.466 20.9448Z" fill="white"/>
<path d="M199.053 20.9448C199.021 20.9431 198.991 20.9291 198.97 20.9057L196.379 18.3195C196.367 18.3081 196.357 18.2944 196.351 18.2793C196.345 18.2642 196.341 18.2479 196.341 18.2315C196.341 18.2151 196.345 18.1988 196.351 18.1837C196.357 18.1686 196.367 18.1549 196.379 18.1435C196.39 18.1318 196.403 18.1225 196.418 18.1161C196.432 18.1097 196.448 18.1064 196.464 18.1064C196.48 18.1064 196.496 18.1097 196.511 18.1161C196.526 18.1225 196.539 18.1318 196.55 18.1435L199.141 20.7346C199.153 20.7456 199.162 20.7588 199.168 20.7735C199.175 20.7883 199.178 20.8041 199.178 20.8202C199.178 20.8362 199.175 20.8521 199.168 20.8668C199.162 20.8815 199.153 20.8947 199.141 20.9057C199.13 20.9178 199.116 20.9276 199.101 20.9343C199.086 20.941 199.069 20.9446 199.053 20.9448Z" fill="white"/>
<path d="M94.9006 160.253C94.9006 160.253 81.9842 145.386 77.1099 130.519C72.2357 115.652 74.5482 117.358 74.5482 117.358C74.5482 117.358 81.1286 131.8 86.1251 138.776C91.1215 145.752 100.019 155.985 100.019 155.985L94.9006 160.253Z" fill="#455A64"/>
<path d="M97.4723 119.67C97.3851 119.517 97.2471 119.399 97.0821 119.337C96.9171 119.276 96.7357 119.274 96.5693 119.332C96.403 119.39 96.2624 119.505 96.1719 119.656C96.0814 119.807 96.0467 119.985 96.074 120.159C96.8611 125.385 98.5625 137.637 98.5185 145.581C98.4354 155.907 98.5185 159.896 98.5185 159.896H103.896C103.896 159.896 102.918 138.551 101.726 132.029C100.855 127.478 99.0465 122.413 97.4723 119.67Z" fill="#455A64"/>
<path d="M100.406 158.156C102.659 153.051 104.15 147.644 104.83 142.106C105.27 138.307 104.483 133.169 103.31 126.314C102.854 123.808 102.627 121.265 102.63 118.717C102.633 118.434 102.73 118.159 102.905 117.936C103.081 117.713 103.325 117.555 103.6 117.486C103.876 117.418 104.166 117.442 104.425 117.556C104.685 117.67 104.9 117.867 105.036 118.116C105.686 119.274 107.563 123.23 108.042 125.708C109.343 132.474 110.814 135.858 109.69 142.282C108.565 148.706 104.395 158.591 104.395 158.591L100.406 158.156Z" fill="#455A64"/>
<path d="M105.246 158.591C105.246 158.591 119.424 128.114 120.402 123.591C121.38 119.069 124.729 108.651 125.12 109.242C125.511 109.834 126.097 115.334 123.55 121.626C121.003 127.918 110.081 159.52 110.081 159.52H105.246" fill="#455A64"/>
<path d="M98.8515 157.227C98.7111 157.148 98.5785 157.057 98.4555 156.953C98.2012 156.762 97.8199 156.494 97.3555 156.117C96.4119 155.374 95.087 154.245 93.5421 152.754C89.5577 148.821 86.1061 144.383 83.2755 139.554C80.4475 134.721 78.0947 129.626 76.2501 124.339C75.5363 122.315 75.0181 120.658 74.6808 119.509C74.5048 118.932 74.3874 118.482 74.3043 118.179C74.2526 118.02 74.215 117.856 74.1919 117.69C74.2617 117.835 74.319 117.986 74.363 118.14C74.4706 118.468 74.6123 118.908 74.7932 119.455C75.1648 120.594 75.7172 122.237 76.4506 124.251C78.3503 129.499 80.7213 134.563 83.5346 139.382C86.3646 144.189 89.7839 148.623 93.7132 152.582C95.2337 154.093 96.5292 155.242 97.4483 156.005C97.903 156.396 98.2746 156.679 98.5092 156.885C98.6324 156.989 98.7468 157.104 98.8515 157.227Z" fill="#263238"/>
<path d="M100.405 142.604C100.331 142.311 100.288 142.011 100.278 141.709C100.209 141.079 100.121 140.243 100.014 139.265C99.7887 137.202 99.4367 134.376 98.938 131.232C98.4393 128.089 97.8771 125.297 97.442 123.273C97.2318 122.296 97.0607 121.489 96.9238 120.868C96.8447 120.577 96.7923 120.279 96.7673 119.978C96.8832 120.257 96.9748 120.545 97.0411 120.839C97.1976 121.401 97.4078 122.212 97.6522 123.224C98.1411 125.244 98.7327 128.055 99.2362 131.188C99.7398 134.322 100.058 137.172 100.214 139.245C100.297 140.277 100.356 141.118 100.38 141.69C100.414 141.993 100.422 142.299 100.405 142.604Z" fill="#263238"/>
<path d="M103.725 117.876C103.794 117.998 103.85 118.128 103.891 118.262L104.316 119.397C104.507 119.886 104.722 120.492 104.928 121.21C105.133 121.929 105.416 122.731 105.617 123.655L105.969 125.087C106.086 125.576 106.169 126.114 106.277 126.657C106.512 127.737 106.653 128.91 106.824 130.142C107.13 132.823 107.244 135.522 107.167 138.219C107.052 140.916 106.745 143.602 106.248 146.256C105.988 147.469 105.759 148.632 105.456 149.678C105.304 150.211 105.182 150.734 105.03 151.223L104.576 152.651C104.307 153.55 103.974 154.338 103.715 155.037C103.456 155.736 103.226 156.327 102.977 156.802L102.488 157.902C102.437 158.032 102.371 158.157 102.292 158.273C102.326 158.137 102.371 158.005 102.429 157.877C102.547 157.594 102.698 157.222 102.884 156.758C103.07 156.293 103.329 155.682 103.568 154.973C103.808 154.264 104.131 153.506 104.39 152.582C104.527 152.138 104.668 151.668 104.82 151.179C104.972 150.69 105.084 150.172 105.226 149.639C105.519 148.578 105.715 147.425 105.988 146.217C106.465 143.576 106.762 140.905 106.878 138.224C106.955 135.542 106.851 132.859 106.565 130.191C106.399 128.964 106.267 127.796 106.047 126.715C105.944 126.178 105.866 125.65 105.754 125.151C105.641 124.652 105.529 124.173 105.421 123.718C105.231 122.804 104.972 121.998 104.781 121.274C104.59 120.55 104.39 119.944 104.219 119.446L103.852 118.297C103.796 118.161 103.753 118.02 103.725 117.876Z" fill="#263238"/>
<path d="M124.967 109.853C124.972 109.899 124.972 109.945 124.967 109.99C124.967 110.098 124.928 110.225 124.903 110.386C124.84 110.733 124.762 111.247 124.625 111.902C124.351 113.212 123.891 115.099 123.158 117.387C122.425 119.675 121.486 122.364 120.337 125.312C119.188 128.26 117.863 131.477 116.602 134.899C115.341 138.321 114.338 141.651 113.414 144.677C112.49 147.703 111.625 150.421 110.784 152.665C110.141 154.444 109.398 156.186 108.56 157.882C108.271 158.483 108.007 158.933 107.841 159.246L107.641 159.593C107.597 159.671 107.572 159.71 107.567 159.705C107.576 159.66 107.593 159.618 107.616 159.578L107.787 159.216C107.939 158.899 108.183 158.439 108.457 157.828C109.024 156.62 109.797 154.846 110.598 152.592C111.4 150.338 112.261 147.63 113.16 144.599C114.06 141.568 115.052 138.243 116.333 134.821C117.614 131.399 118.934 128.177 120.093 125.234C121.251 122.291 122.239 119.626 122.972 117.348C123.706 115.07 124.19 113.202 124.498 111.902C124.654 111.251 124.752 110.743 124.835 110.396C124.869 110.24 124.903 110.112 124.928 110.01C124.931 109.956 124.944 109.903 124.967 109.853Z" fill="#263238"/>
<path d="M81.2356 103.121C81.0411 102.932 80.7889 102.813 80.519 102.783C80.2491 102.754 79.977 102.815 79.7461 102.958C79.5151 103.1 79.3385 103.316 79.2443 103.571C79.1501 103.826 79.1438 104.104 79.2263 104.363C79.7105 105.932 80.3052 107.464 81.0058 108.949C82.9614 113.09 88.6814 127.957 91.3654 136.121C94.0494 144.286 97.8041 159.52 97.8041 159.52L103.529 158.591C103.529 158.591 98.2929 133.584 93.1938 124.544C89.0823 117.299 84.9658 106.827 81.2356 103.121Z" fill="#455A64"/>
<path d="M92.916 141.23C93.0418 141.446 93.1419 141.676 93.2142 141.915C93.3805 142.364 93.6151 143.02 93.8742 143.836C94.4022 145.469 95.0476 147.747 95.6929 150.284C96.3382 152.822 96.8858 155.129 97.2622 156.801C97.4334 157.588 97.5751 158.268 97.6925 158.781C97.7559 159.023 97.7952 159.27 97.8098 159.52C97.7077 159.292 97.629 159.054 97.5751 158.811C97.4382 158.288 97.2622 157.632 97.052 156.855C96.612 155.134 96.04 152.871 95.3996 150.368C94.7591 147.864 94.1431 145.547 93.6689 143.904C93.444 143.127 93.2533 142.477 93.1018 141.949C93.0161 141.716 92.9539 141.475 92.916 141.23Z" fill="#263238"/>
<path d="M100.699 159.055C100.683 159.006 100.673 158.955 100.669 158.904C100.669 158.781 100.63 158.635 100.601 158.454C100.542 158.058 100.489 157.476 100.366 156.718C100.156 155.213 99.7846 153.047 99.1686 150.402C98.4355 147.31 97.5413 144.258 96.4895 141.26C95.3112 137.867 93.8397 134.2 92.1726 130.406C88.8041 122.833 85.4406 116.111 83.2259 111.144C82.1112 108.661 81.2703 106.641 80.6739 105.229C80.3855 104.525 80.185 103.972 80.0335 103.601C79.965 103.429 79.9161 103.288 79.8721 103.175C79.8503 103.127 79.8355 103.076 79.8281 103.024C79.8579 103.066 79.8825 103.112 79.9015 103.161L80.0872 103.576C80.2583 103.967 80.4881 104.505 80.7863 105.185C81.3877 106.578 82.2823 108.607 83.4215 111.051C85.6801 115.984 89.0779 122.697 92.4512 130.284C94.1184 134.083 95.5899 137.759 96.7535 141.167C97.7973 144.18 98.6737 147.248 99.3788 150.358C99.8543 152.456 100.223 154.578 100.484 156.713C100.586 157.466 100.621 158.058 100.665 158.454L100.699 158.909C100.704 158.957 100.704 159.007 100.699 159.055Z" fill="#263238"/>
<path d="M103.549 158.591C103.458 158.271 103.392 157.944 103.353 157.613C103.241 156.943 103.089 156.054 102.908 154.983C102.517 152.763 101.93 149.708 101.045 146.383C100.161 143.059 99.2219 140.111 98.4788 137.984C98.117 136.958 97.8139 136.112 97.5841 135.471C97.458 135.169 97.3567 134.857 97.281 134.538C97.4441 134.822 97.5832 135.12 97.6966 135.427C97.941 136.009 98.2881 136.855 98.6743 137.911C99.7092 140.666 100.597 143.475 101.334 146.325C102.074 149.172 102.67 152.056 103.118 154.963C103.28 156.078 103.402 156.982 103.465 157.613C103.518 157.937 103.545 158.263 103.549 158.591Z" fill="#263238"/>
<path d="M115.326 157.612H88.2471L88.2471 184.69H115.326L115.326 157.612Z" fill="url(#paint12_linear_1547_120562)"/>
<g opacity="0.3">
<path opacity="0.3" d="M115.327 157.612H107.88L107.88 184.69H115.327L115.327 157.612Z" fill="black"/>
</g>
<path d="M245.892 97.1955L234.144 95.4941L210.643 98.9701L204.048 101.302L205.217 115.724L227.813 119.885L243.057 115.367L248.821 106.885L245.892 97.1955Z" fill="#FFCAAE"/>
<path d="M253.298 98.5742L243.462 96.2568C243.462 96.2568 236.515 117.768 219.36 116.824C205.377 116.067 205.216 100.461 205.216 100.461L195.14 103.688C195.14 103.688 191.283 129.536 195.551 147.849C196.529 152.127 197.883 157.891 197.883 157.891L196.519 184.648L271.045 184.765L253.298 98.5742Z" fill="#F6A509"/>
<g opacity="0.3">
<path opacity="0.3" d="M224.083 179.456C227.71 179.363 231.054 179.671 234.682 179.583C239.033 179.476 243.418 179.368 247.716 180.072C250.933 180.605 254.071 181.583 257.288 182.091C261.688 182.785 266.377 182.541 270.288 180.424L269.657 176.772L254.805 173.184L224.083 179.456Z" fill="black"/>
</g>
<path d="M186.726 109.711C190.148 105.311 195.8 103.478 195.8 103.478L199.613 136.668L192.392 185L168.74 184.888C168.74 184.888 181.784 116.091 186.726 109.711Z" fill="#F6A509"/>
<path d="M252.149 98.3298C252.149 98.3298 268.068 99.6058 273.778 125.708C276.359 137.505 279.645 151.325 280.569 160.619C281.248 167.356 277.586 177.906 270.869 178.772L262.421 179.906C260.765 180.144 259.079 180.083 257.444 179.725C252.11 178.498 251.577 174.836 250.6 170.925L248.155 163.142C246.806 155.74 253.704 154.342 257.513 154.445L254.672 120.657L252.149 98.3298Z" fill="#F6A509"/>
<path d="M193.83 121.933C193.793 122.051 193.768 122.172 193.756 122.295C193.717 122.559 193.664 122.911 193.595 123.346C193.566 123.576 193.527 123.835 193.488 124.109C193.448 124.383 193.429 124.691 193.395 125.018C193.326 125.668 193.248 126.412 193.214 127.238C193.101 129.17 193.088 131.107 193.175 133.041C193.291 135.406 193.526 137.764 193.879 140.105C194.245 142.604 194.705 144.96 195.174 147.092C195.644 149.223 196.098 151.135 196.499 152.738C196.9 154.342 197.237 155.628 197.477 156.517C197.594 156.943 197.687 157.285 197.76 157.539C197.787 157.66 197.826 157.778 197.878 157.891C197.867 157.769 197.844 157.647 197.809 157.529C197.751 157.265 197.672 156.923 197.575 156.493C197.355 155.569 197.047 154.278 196.665 152.694C196.284 151.11 195.844 149.174 195.399 147.043C194.954 144.911 194.49 142.56 194.128 140.071C193.766 137.583 193.512 135.182 193.404 133.026C193.297 130.87 193.292 128.89 193.404 127.248C193.429 126.421 193.492 125.683 193.546 125.028C193.569 124.702 193.594 124.399 193.62 124.119C193.649 123.845 193.678 123.591 193.703 123.356C193.752 122.921 193.791 122.569 193.815 122.3C193.832 122.179 193.837 122.056 193.83 121.933Z" fill="#C5860F"/>
<path d="M270.004 163.587C269.994 163.36 269.956 163.135 269.892 162.917C269.736 162.328 269.53 161.754 269.276 161.201C268.441 159.356 267.141 157.759 265.503 156.567C263.865 155.375 261.946 154.628 259.933 154.4C259.328 154.327 258.718 154.307 258.11 154.342C257.886 154.344 257.663 154.372 257.445 154.425C258.262 154.43 259.078 154.48 259.889 154.576C261.856 154.849 263.726 155.604 265.331 156.772C266.937 157.94 268.23 159.487 269.095 161.274C269.438 162.029 269.742 162.8 270.004 163.587Z" fill="#C5860F"/>
<path d="M266.328 150.592C266.202 150.56 266.072 150.549 265.942 150.558C265.591 150.551 265.24 150.568 264.891 150.607C263.737 150.724 262.605 151.007 261.532 151.447C260.46 151.893 259.456 152.487 258.55 153.212C258.276 153.431 258.017 153.666 257.773 153.916C257.601 154.097 257.513 154.2 257.523 154.215C257.533 154.229 257.953 153.872 258.662 153.354C260.506 152 262.653 151.117 264.915 150.783C265.781 150.655 266.328 150.636 266.328 150.592Z" fill="#C5860F"/>
<path d="M249.847 116.824C249.882 116.593 249.896 116.359 249.886 116.125C249.886 115.675 249.915 115.03 249.969 114.233C250.254 110.065 251.396 106.001 253.323 102.295C253.689 101.586 254.007 101.019 254.237 100.637C254.366 100.443 254.476 100.237 254.565 100.021C254.409 100.195 254.269 100.383 254.149 100.583C253.895 100.955 253.553 101.507 253.171 102.211C251.142 105.906 249.988 110.017 249.798 114.228C249.769 115.03 249.769 115.695 249.798 116.13C249.79 116.363 249.807 116.595 249.847 116.824Z" fill="#C5860F"/>
<path d="M219.359 140.501C219.369 140.595 219.392 140.687 219.427 140.775C219.486 140.951 219.559 141.22 219.691 141.543C220.048 142.477 220.491 143.376 221.016 144.227C222.751 147.065 225.27 149.341 228.268 150.781C231.267 152.22 234.617 152.763 237.917 152.342C238.912 152.219 239.894 152.004 240.85 151.702C241.188 151.599 241.442 151.487 241.613 151.423C241.703 151.394 241.79 151.356 241.872 151.311C241.872 151.286 241.496 151.413 240.821 151.604C239.861 151.873 238.88 152.06 237.888 152.161C234.626 152.545 231.322 151.994 228.361 150.573C225.4 149.152 222.904 146.919 221.163 144.134C220.631 143.297 220.166 142.419 219.774 141.509C219.535 140.863 219.378 140.492 219.359 140.501Z" fill="#C5860F"/>
<path d="M252.907 177.193C252.932 177.168 253.181 177.525 253.777 178.014C254.65 178.672 255.648 179.145 256.711 179.402C258.276 179.794 259.892 179.937 261.502 179.828C263.321 179.696 265.33 179.48 267.413 179.172C269.374 178.919 271.306 178.473 273.181 177.843C273.964 177.499 274.68 177.021 275.298 176.43C275.843 175.919 276.335 175.354 276.765 174.743C277.403 173.861 277.948 172.916 278.393 171.922C278.545 171.565 278.662 171.292 278.735 171.101C278.764 171.001 278.807 170.906 278.862 170.817C278.844 170.919 278.818 171.018 278.784 171.116C278.725 171.316 278.623 171.604 278.481 171.961C278.071 172.982 277.544 173.951 276.912 174.851C276.484 175.477 275.993 176.057 275.445 176.581C274.815 177.196 274.079 177.692 273.274 178.048C271.388 178.704 269.438 179.161 267.457 179.412C265.359 179.725 263.355 179.93 261.521 180.052C259.888 180.149 258.249 179.984 256.667 179.564C255.596 179.287 254.597 178.788 253.733 178.097C253.506 177.901 253.298 177.683 253.113 177.447C253.034 177.371 252.965 177.286 252.907 177.193Z" fill="#C5860F"/>
<path d="M250.282 125.135C250.346 125.135 252.028 131.633 254.027 139.69C256.027 147.747 257.596 154.288 257.528 154.308C257.459 154.327 255.782 147.805 253.783 139.748C251.783 131.691 250.214 125.15 250.282 125.135Z" fill="#C5860F"/>
<path d="M248.253 161.939C248.201 161.765 248.173 161.584 248.17 161.401C248.121 160.914 248.11 160.424 248.136 159.935C248.192 159.189 248.439 158.47 248.855 157.847C249.09 157.477 249.363 157.133 249.671 156.82C250.012 156.495 250.391 156.213 250.8 155.98C252.248 155.22 253.816 154.714 255.435 154.484C255.921 154.414 256.411 154.371 256.902 154.356C257.082 154.33 257.264 154.33 257.444 154.356C257.444 154.396 256.677 154.425 255.459 154.645C253.877 154.917 252.346 155.435 250.923 156.18C250.53 156.403 250.166 156.672 249.837 156.982C249.54 157.28 249.275 157.607 249.045 157.96C248.64 158.539 248.388 159.212 248.312 159.915C248.269 160.403 248.254 160.892 248.268 161.382C248.285 161.568 248.28 161.755 248.253 161.939Z" fill="#C5860F"/>
<g opacity="0.3">
<path opacity="0.3" d="M194.562 143.85C190.499 136.972 190.411 128.035 193.956 120.873C192.821 128.504 193.066 136.277 194.679 143.821" fill="black"/>
</g>
<path d="M216.236 161.083L216.3 161.113L216.236 161.083Z" fill="#FFBE9D"/>
<path d="M216.114 161.015L216.261 161.084L216.114 161.015Z" fill="#FFBE9D"/>
<path d="M215.996 160.961L216.061 160.991L215.996 160.961Z" fill="#FFBE9D"/>
<path d="M201.041 174.704C202.322 172.289 212.31 165.904 212.31 165.904L209.607 165.278L206.619 166.54C206.394 167.552 205.955 168.506 205.334 169.336C204.239 170.901 202.376 169.282 202.376 169.282L203.637 163.235L209.543 159.681C209.543 159.681 215.097 160.531 215.996 160.962L218.363 163.127C219.404 163.944 222.406 167.156 223.227 167.254C224.048 167.351 249.847 161.558 249.847 161.558C253.382 164.359 255.225 169.918 255.802 173.932C255.802 173.932 256.432 175.887 255.748 176.973L224.102 179.456L217.395 181.309C215.598 182.052 213.758 182.684 211.885 183.201C209.655 183.69 208.155 182.952 208.091 181.734C208.027 180.517 209.763 180.366 209.763 180.366C211.243 179.835 212.684 179.201 214.075 178.469C215.094 177.79 215.933 176.874 216.519 175.799L214.129 176.083C214.129 176.083 209.044 179.613 207.133 180.649C205.221 181.686 204.845 179.784 204.688 179.182C204.532 178.581 210.399 172.871 210.399 172.871C210.399 172.871 204.82 176.293 203.818 177.173C202.816 178.053 201.33 178.302 201.012 177.721C200.694 177.139 199.765 177.119 201.041 174.704Z" fill="#FFBE9D"/>
<path d="M216.299 161.113L216.353 161.142L216.299 161.113Z" fill="#FFBE9D"/>
<path d="M228.545 175.261C228.574 175.133 228.583 175.001 228.575 174.87C228.58 174.717 228.57 174.563 228.545 174.411C228.526 174.207 228.488 174.006 228.433 173.809C228.115 172.668 227.564 171.604 226.815 170.685C226.084 169.764 225.265 168.916 224.37 168.153C224.019 167.817 223.634 167.519 223.221 167.263C223.547 167.621 223.893 167.958 224.258 168.275C225.109 169.067 225.9 169.922 226.624 170.832C227.357 171.727 227.914 172.752 228.267 173.853C228.521 174.704 228.496 175.266 228.545 175.261Z" fill="#EB996E"/>
<path d="M212.54 165.723C213.112 165.808 213.696 165.755 214.244 165.571C214.792 165.387 215.288 165.075 215.693 164.662C215.654 164.609 215.043 165.063 214.168 165.347C213.293 165.63 212.54 165.655 212.54 165.723Z" fill="#EB996E"/>
<path d="M210.878 172.343C212.6 171.803 214.271 171.116 215.875 170.289C215.002 170.52 214.151 170.827 213.333 171.208C212.484 171.516 211.663 171.896 210.878 172.343Z" fill="#EB996E"/>
<path d="M216.236 175.726C216.686 175.623 217.122 175.467 217.536 175.261C217.98 175.132 218.407 174.95 218.807 174.719C217.874 174.814 216.985 175.162 216.236 175.726Z" fill="#EB996E"/>
<path d="M211.714 172.783C212.073 173.03 212.401 173.319 212.692 173.643C212.928 174.013 213.118 174.41 213.259 174.826C213.288 174.826 213.317 174.665 213.259 174.411C213.199 174.08 213.062 173.768 212.858 173.501C212.656 173.234 212.393 173.02 212.09 172.876C211.87 172.768 211.714 172.758 211.714 172.783Z" fill="#EB996E"/>
<path d="M209.357 169.092C209.322 169.15 209.762 169.39 210.051 169.893C210.198 170.217 210.317 170.552 210.408 170.896C210.479 170.708 210.501 170.506 210.473 170.308C210.445 170.109 210.367 169.922 210.246 169.761C209.919 169.194 209.366 169.028 209.357 169.092Z" fill="#EB996E"/>
<path d="M210.149 162.492C210.179 162.492 210.267 162.394 210.34 162.174C210.416 161.885 210.416 161.582 210.34 161.294C210.27 161.004 210.125 160.738 209.92 160.521C209.758 160.36 209.626 160.301 209.607 160.326C209.811 160.647 209.976 160.991 210.096 161.353C210.165 161.728 210.183 162.111 210.149 162.492Z" fill="#EB996E"/>
<path d="M256.007 177.877C255.974 177.636 255.961 177.392 255.968 177.148C255.968 176.914 255.968 176.63 255.934 176.298C255.899 175.965 255.904 175.589 255.855 175.178C255.672 173.009 255.207 170.872 254.472 168.823C254.059 167.703 253.559 166.618 252.976 165.576C252.683 165.088 252.428 164.652 252.135 164.256C251.998 164.056 251.861 163.865 251.729 163.68C251.597 163.494 251.455 163.328 251.323 163.191C250.272 161.895 249.466 161.235 249.505 161.196C249.71 161.327 249.9 161.479 250.072 161.651C250.292 161.835 250.501 162.033 250.698 162.242C250.927 162.482 251.187 162.731 251.465 163.073C251.597 163.24 251.739 163.406 251.886 163.562C252.032 163.719 252.164 163.939 252.311 164.139C252.614 164.535 252.878 164.995 253.176 165.464C253.78 166.51 254.294 167.606 254.711 168.74C255.453 170.805 255.899 172.964 256.036 175.154C256.071 175.569 256.066 175.951 256.075 176.283C256.085 176.616 256.075 176.904 256.075 177.139C256.078 177.386 256.055 177.634 256.007 177.877Z" fill="#C5860F"/>
<g opacity="0.3">
<path opacity="0.3" d="M266.865 155.266C263.897 154.04 260.628 153.742 257.488 154.41C260.187 154.286 262.858 155.008 265.127 156.475C267.397 157.942 269.151 160.082 270.145 162.594C270.37 163.201 270.82 163.919 271.465 163.826C272.11 163.733 272.286 162.985 272.286 162.384C272.291 159.221 269.783 156.483 266.865 155.266Z" fill="black"/>
</g>
<path d="M193.624 119.694C193.477 119.667 193.336 119.62 193.203 119.552C192.934 119.45 192.558 119.279 192.098 119.063C190.899 118.465 189.754 117.763 188.676 116.966C187.602 116.173 186.598 115.29 185.674 114.326C185.322 113.955 185.044 113.642 184.868 113.422C184.692 113.202 184.594 113.07 184.609 113.055C184.623 113.04 185.068 113.495 185.802 114.199C186.755 115.118 187.765 115.976 188.828 116.766C189.893 117.549 191.009 118.263 192.167 118.902C193.086 119.406 193.653 119.66 193.624 119.694Z" fill="white"/>
<path d="M250.076 121.537C250.039 121.57 249.998 121.598 249.954 121.62L249.577 121.845C249.25 122.046 248.751 122.334 248.111 122.657C246.275 123.599 244.371 124.401 242.415 125.057C239.509 126.019 236.528 126.735 233.502 127.199C229.798 127.75 226.061 128.06 222.317 128.128C218.332 128.22 214.538 128.128 211.072 128.069C208.014 128.026 204.961 127.796 201.93 127.38C199.885 127.09 197.87 126.622 195.907 125.981C195.218 125.747 194.685 125.551 194.333 125.4L193.932 125.228C193.884 125.212 193.838 125.191 193.795 125.165L193.942 125.204L194.352 125.351C194.709 125.488 195.247 125.668 195.941 125.888C197.907 126.486 199.918 126.926 201.954 127.204C204.981 127.59 208.027 127.801 211.077 127.834C214.499 127.898 218.313 127.966 222.287 127.873C226.022 127.808 229.748 127.504 233.444 126.964C236.46 126.516 239.434 125.821 242.337 124.886C244.292 124.247 246.2 123.473 248.047 122.569C248.697 122.246 249.201 121.987 249.514 121.801L249.9 121.601C250.027 121.552 250.071 121.532 250.076 121.537Z" fill="white"/>
<path d="M193.81 138.961C193.604 138.942 193.401 138.9 193.204 138.834L191.576 138.389C190.207 138.003 188.32 137.451 186.237 136.83C184.155 136.209 182.277 135.627 180.918 135.197L179.315 134.679C179.116 134.622 178.923 134.546 178.738 134.454C178.944 134.473 179.147 134.515 179.344 134.581L180.972 135.026C182.341 135.412 184.228 135.965 186.311 136.585C188.393 137.206 190.271 137.783 191.63 138.213L193.233 138.737C193.433 138.791 193.626 138.866 193.81 138.961Z" fill="white"/>
<path d="M195.232 165.982C195.232 166.046 190.343 164.648 184.33 162.854C178.317 161.059 173.481 159.549 173.501 159.48C173.521 159.412 178.39 160.81 184.403 162.609C190.417 164.408 195.252 165.914 195.232 165.982Z" fill="white"/>
<path d="M265.892 107.521C265.728 107.68 265.547 107.823 265.354 107.946C265.002 108.205 264.474 108.567 263.814 108.997C260.361 111.231 256.658 113.05 252.78 114.419C252.037 114.678 251.431 114.874 251.005 114.996C250.79 115.074 250.567 115.13 250.34 115.162C250.544 115.057 250.757 114.97 250.976 114.903L252.721 114.253C254.188 113.691 256.197 112.859 258.348 111.808C260.499 110.757 262.387 109.672 263.726 108.851L265.31 107.873C265.492 107.737 265.687 107.619 265.892 107.521Z" fill="white"/>
<path d="M275.631 135.3C275.376 135.444 275.111 135.57 274.839 135.676C274.325 135.906 273.563 136.209 272.614 136.556C267.656 138.362 262.451 139.397 257.18 139.626C256.168 139.67 255.351 139.68 254.784 139.66C254.492 139.667 254.2 139.654 253.909 139.621C254.199 139.577 254.491 139.558 254.784 139.563C255.347 139.563 256.163 139.514 257.17 139.445C259.789 139.279 262.394 138.941 264.968 138.433C267.54 137.917 270.076 137.234 272.56 136.39C273.514 136.062 274.281 135.784 274.809 135.583C275.074 135.465 275.349 135.37 275.631 135.3Z" fill="white"/>
<path d="M261.58 179.73C261.577 179.638 261.585 179.546 261.605 179.456C261.634 179.256 261.678 179.001 261.727 178.688C261.776 178.376 261.849 177.945 261.898 177.466C261.947 176.987 262.03 176.449 262.05 175.843C262.05 175.545 262.089 175.227 262.108 174.9C262.128 174.572 262.108 174.225 262.108 173.873C262.108 173.164 262.079 172.406 262.04 171.609C261.911 169.884 261.648 168.171 261.253 166.486C260.838 164.805 260.294 163.159 259.625 161.563C259.292 160.839 258.994 160.14 258.647 159.519C258.481 159.206 258.329 158.898 258.158 158.61L257.669 157.798C257.371 157.27 257.048 156.82 256.789 156.424C256.53 156.028 256.3 155.686 256.08 155.417L255.621 154.787C255.562 154.717 255.512 154.64 255.474 154.557C255.542 154.616 255.604 154.682 255.66 154.752L256.149 155.359C256.415 155.671 256.665 155.998 256.897 156.336C257.171 156.732 257.503 157.172 257.811 157.696L258.3 158.507C258.471 158.791 258.627 159.104 258.789 159.416C259.141 160.037 259.454 160.736 259.767 161.465C261.175 164.668 262.003 168.097 262.211 171.59C262.24 172.392 262.284 173.154 262.255 173.868C262.255 174.225 262.255 174.572 262.226 174.904C262.196 175.237 262.177 175.55 262.152 175.853C262.118 176.464 262.02 177.002 261.957 177.481C261.893 177.96 261.82 178.371 261.747 178.698C261.673 179.026 261.619 179.26 261.575 179.466C261.587 179.553 261.588 179.642 261.58 179.73Z" fill="white"/>
<path d="M280.442 164.745C280.418 164.745 280.403 164.344 280.291 163.64C280.118 162.646 279.788 161.686 279.313 160.795C278.617 159.473 277.68 158.292 276.551 157.314C275.174 156.107 273.58 155.174 271.853 154.567C270.115 153.986 268.301 153.67 266.47 153.628C264.972 153.586 263.473 153.644 261.982 153.799C260.706 153.916 259.674 154.048 258.961 154.127L258.139 154.215C258.044 154.228 257.947 154.228 257.851 154.215C257.941 154.181 258.034 154.16 258.13 154.151L258.946 154.014C259.655 153.902 260.686 153.75 261.962 153.604C263.461 153.425 264.971 153.35 266.48 153.379C268.336 153.415 270.175 153.733 271.936 154.322C273.693 154.945 275.313 155.901 276.707 157.138C277.85 158.141 278.789 159.355 279.474 160.712C279.938 161.631 280.241 162.623 280.369 163.645C280.408 163.921 280.427 164.198 280.428 164.476C280.443 164.565 280.448 164.655 280.442 164.745Z" fill="white"/>
<path d="M227.847 150.592C227.757 150.62 227.663 150.636 227.568 150.641L226.772 150.724L223.838 150.968C221.36 151.159 217.932 151.394 214.148 151.589C210.364 151.785 206.928 151.907 204.439 151.936C203.197 151.936 202.19 151.936 201.506 151.936H200.709C200.615 151.939 200.521 151.929 200.43 151.907C200.522 151.888 200.615 151.88 200.709 151.882H201.506L204.439 151.809C206.918 151.736 210.35 151.589 214.134 151.389L223.824 150.841L226.757 150.675L227.559 150.641C227.652 150.612 227.749 150.595 227.847 150.592Z" fill="white"/>
<g opacity="0.3">
<path opacity="0.3" d="M230.687 151.609C233.767 152.513 238.02 152.733 241.037 151.609C238.69 154.948 234.158 156.156 230.222 155.07C226.287 153.985 222.664 150.049 222.361 145.977C224.268 148.544 227.607 150.695 230.687 151.609Z" fill="black"/>
</g>
<path d="M255.665 148.387C255.584 148.417 255.5 148.44 255.415 148.456L254.707 148.607C254.086 148.734 253.191 148.901 252.076 149.096C249.852 149.487 246.767 149.966 243.35 150.387C239.932 150.807 236.818 151.081 234.55 151.237C233.425 151.316 232.511 151.369 231.88 151.394L231.157 151.418C231.073 151.432 230.987 151.432 230.903 151.418C230.984 151.397 231.068 151.384 231.152 151.379L231.875 151.306L234.535 151.066C236.784 150.866 239.883 150.577 243.306 150.142C246.728 149.707 249.803 149.272 252.032 148.93L254.672 148.519L255.396 148.417C255.483 148.391 255.574 148.381 255.665 148.387Z" fill="white"/>
<g opacity="0.3">
<path opacity="0.3" d="M250.542 126.622C249.77 135.471 252.18 144.251 254.57 152.807C254.677 153.338 254.901 153.839 255.225 154.273C255.393 154.49 255.627 154.647 255.891 154.72C256.156 154.793 256.437 154.779 256.692 154.679C257.44 154.298 257.338 153.212 257.127 152.411L250.483 126.988" fill="black"/>
</g>
<path d="M126.754 135.436L136.801 184.765L224.019 184.765C224.48 184.765 224.923 184.582 225.249 184.255C225.576 183.929 225.759 183.486 225.759 183.025C225.759 182.563 225.576 182.121 225.249 181.794C224.923 181.468 224.48 181.284 224.019 181.284L206.458 181.284L197.144 135.407C197.057 134.98 196.826 134.595 196.49 134.318C196.154 134.04 195.733 133.886 195.296 133.882L128.641 133.153C128.357 133.15 128.076 133.21 127.818 133.329C127.56 133.449 127.333 133.624 127.151 133.843C126.97 134.062 126.841 134.319 126.772 134.595C126.703 134.87 126.697 135.158 126.754 135.436Z" fill="#043449"/>
<path d="M126.754 135.437C126.741 135.388 126.732 135.339 126.725 135.29C126.706 135.141 126.706 134.989 126.725 134.84C126.76 134.545 126.861 134.262 127.021 134.012C127.181 133.763 127.396 133.552 127.649 133.398C127.828 133.292 128.023 133.216 128.226 133.173C128.451 133.131 128.681 133.116 128.91 133.129H130.48L134.391 133.163L159.593 133.403L177.164 133.579L187.01 133.681L192.173 133.735L194.808 133.76C195.033 133.76 195.243 133.76 195.482 133.76C195.717 133.783 195.946 133.849 196.157 133.955C196.593 134.16 196.941 134.516 197.135 134.957C197.22 135.173 197.281 135.398 197.316 135.627L197.453 136.292C197.541 136.732 197.633 137.177 197.721 137.622C197.907 138.517 198.088 139.416 198.274 140.316L199.389 145.806C200.141 149.505 200.911 153.291 201.696 157.163C203.27 164.897 204.908 172.939 206.585 181.231L206.468 181.133L223.735 181.133C223.963 181.122 224.19 181.135 224.415 181.172C224.883 181.288 225.288 181.578 225.549 181.984C225.697 182.199 225.799 182.443 225.847 182.701C225.894 182.958 225.888 183.222 225.827 183.477C225.766 183.731 225.652 183.97 225.493 184.178C225.334 184.385 225.133 184.557 224.904 184.682C224.651 184.819 224.37 184.894 224.082 184.902L201.364 184.902H177.75L136.801 184.902H136.728V184.829C133.653 169.673 131.154 157.334 129.424 148.788C128.568 144.515 127.898 141.191 127.444 138.932C127.219 137.803 127.048 136.942 126.955 136.361C126.862 135.779 126.793 135.481 126.793 135.481C126.793 135.481 126.862 135.779 126.984 136.356L127.522 138.917C127.986 141.176 128.671 144.501 129.551 148.764L136.933 184.795L136.84 184.717L177.789 184.717L224.117 184.717C224.366 184.707 224.61 184.642 224.83 184.526C225.03 184.416 225.205 184.266 225.343 184.085C225.481 183.904 225.579 183.696 225.632 183.474C225.684 183.252 225.69 183.022 225.648 182.798C225.606 182.574 225.517 182.362 225.388 182.174C225.158 181.837 224.808 181.601 224.41 181.514C224.201 181.481 223.99 181.468 223.779 181.475L206.36 181.475V181.382C204.678 173.071 203.05 165.044 201.471 157.309C200.686 153.444 199.918 149.658 199.169 145.953L198.025 140.389C197.844 139.485 197.663 138.59 197.482 137.695C197.389 137.25 197.301 136.805 197.208 136.361L197.076 135.701C197.044 135.484 196.987 135.273 196.905 135.07C196.742 134.681 196.445 134.362 196.069 134.17C195.88 134.077 195.677 134.018 195.468 133.994C195.262 133.994 195.028 133.994 194.813 133.994L192.173 133.965L187.01 133.906L177.169 133.789L159.598 133.584L134.396 133.276L130.485 133.222L128.915 133.197C128.69 133.184 128.463 133.195 128.241 133.232C128.043 133.276 127.853 133.35 127.678 133.452C127.427 133.6 127.212 133.804 127.052 134.048C126.892 134.292 126.79 134.57 126.754 134.86C126.73 135.051 126.73 135.245 126.754 135.437Z" fill="#263238"/>
<path d="M169.013 157.767C169.013 158.73 168.727 159.672 168.192 160.473C167.657 161.274 166.896 161.898 166.006 162.267C165.116 162.635 164.137 162.732 163.192 162.544C162.247 162.356 161.379 161.892 160.698 161.211C160.017 160.53 159.553 159.662 159.365 158.717C159.177 157.772 159.274 156.793 159.642 155.903C160.011 155.013 160.635 154.252 161.436 153.717C162.237 153.182 163.179 152.896 164.142 152.896C165.434 152.896 166.673 153.41 167.586 154.323C168.499 155.236 169.013 156.475 169.013 157.767Z" fill="white"/>
<path d="M126.833 135.837C126.833 135.837 126.936 135.837 127.136 135.837H131.409L143.881 135.896L185.021 136.185L190.97 136.233H192.437C192.687 136.222 192.938 136.237 193.185 136.277C193.436 136.326 193.674 136.423 193.889 136.561C194.325 136.836 194.641 137.266 194.774 137.764C194.886 138.253 194.965 138.702 195.062 139.172C195.801 142.887 196.529 146.471 197.189 149.883C198.538 156.728 199.756 162.863 200.773 168.031L203.173 180.253C203.447 181.695 203.662 182.815 203.813 183.582C203.882 183.959 203.936 184.247 203.975 184.453C204.014 184.658 204.019 184.746 204.019 184.746C204.019 184.746 203.989 184.648 203.95 184.457C203.911 184.267 203.843 183.969 203.765 183.592C203.608 182.825 203.378 181.71 203.08 180.273C202.493 177.378 201.653 173.203 200.606 168.05L196.969 149.913C196.289 146.49 195.571 142.917 194.833 139.201C194.735 138.741 194.647 138.262 194.549 137.813C194.428 137.373 194.147 136.995 193.762 136.752C193.57 136.635 193.358 136.555 193.136 136.517C192.905 136.479 192.671 136.466 192.437 136.478H190.97L185.021 136.434L143.876 136.072L131.409 135.935L128.016 135.886H127.136L126.833 135.837Z" fill="#0A4A66"/>
<path d="M243.311 60.9199C243.411 65.481 242.545 70.0117 240.768 74.214C238.992 78.4162 236.346 82.1947 233.005 85.3008C231.463 80.8519 229.926 76.403 228.395 71.9542" fill="#263238"/>
<path d="M208.579 34.3733C212.534 32.2124 217.311 31.8995 221.73 32.7844C226.15 33.6693 230.266 35.6688 234.168 37.9275C236.358 39.1937 238.538 40.5871 240.113 42.5622C242.982 46.1751 245.823 52.1102 246.097 56.74C246.322 60.4653 244.894 69.7884 243.32 73.1715C241.878 76.276 235.116 78.6422 231.777 79.4098L201.153 43.7697C201.707 41.7896 202.648 39.9393 203.923 38.3262C205.198 36.7131 206.781 35.3694 208.579 34.3733Z" fill="#043449"/>
<path d="M203.3 39.1742L210.634 37.864C206.62 47.4218 205.53 69.2751 203.237 79.3854C200.528 75.4742 194.246 63.4965 194.583 58.7396C194.921 53.9827 194.603 38.3676 203.3 39.1742Z" fill="#043449"/>
<path d="M238.114 55.0827C237.718 49.4996 234.1 44.9236 228.678 43.54L211.768 39.228C204.464 38.4409 199.584 47.4267 199.105 54.76C198.572 62.9098 198.245 71.5045 199.198 77.5862C201.11 89.8085 210.477 91.3925 210.477 91.3925C210.477 91.3925 210.477 97.2103 210.477 100.779L216.133 124.202L234.364 99.0143L238.138 55.2391C238.153 55.024 238.114 55.3613 238.114 55.0827Z" fill="#FFCAAE"/>
<path d="M202.777 63.9952C202.773 64.404 202.928 64.7982 203.21 65.0941C203.492 65.3899 203.879 65.5639 204.287 65.5792C204.487 65.5952 204.688 65.571 204.878 65.5083C205.068 65.4455 205.243 65.3453 205.394 65.2137C205.545 65.082 205.668 64.9216 205.756 64.7417C205.844 64.5618 205.894 64.3662 205.906 64.1663C205.91 63.7584 205.755 63.3648 205.474 63.0691C205.193 62.7734 204.807 62.5988 204.4 62.5823C204.2 62.5657 203.999 62.5893 203.808 62.6517C203.617 62.7142 203.441 62.8142 203.29 62.946C203.139 63.0777 203.015 63.2384 202.927 63.4186C202.839 63.5988 202.788 63.7949 202.777 63.9952Z" fill="#263238"/>
<path d="M200.957 59.5463C201.153 59.7516 202.341 58.8765 204.027 58.8814C205.714 58.8863 206.961 59.7369 207.132 59.5316C207.225 59.4387 207.024 59.0721 206.486 58.6761C205.758 58.1691 204.891 57.8993 204.003 57.9036C203.126 57.9006 202.271 58.1743 201.558 58.6858C201.021 59.0867 200.845 59.4534 200.957 59.5463Z" fill="#263238"/>
<path d="M217.482 63.9952C217.478 64.404 217.633 64.7982 217.915 65.094C218.197 65.3899 218.584 65.5639 218.992 65.5792C219.193 65.5958 219.394 65.572 219.585 65.5092C219.775 65.4464 219.951 65.3459 220.102 65.2136C220.253 65.0813 220.376 64.9199 220.463 64.7392C220.551 64.5584 220.601 64.3619 220.611 64.1614C220.615 63.7535 220.46 63.3599 220.179 63.0642C219.898 62.7685 219.513 62.5939 219.105 62.5774C218.905 62.5608 218.703 62.5845 218.512 62.6473C218.321 62.7101 218.145 62.8105 217.993 62.9428C217.842 63.075 217.719 63.2363 217.631 63.4171C217.543 63.5979 217.492 63.7945 217.482 63.9952Z" fill="#263238"/>
<path d="M216.96 59.5462C217.155 59.7516 218.348 58.8765 220.035 58.8813C221.722 58.8862 222.968 59.7369 223.139 59.5316C223.227 59.4387 223.032 59.072 222.494 58.676C221.769 58.1736 220.908 57.9042 220.025 57.9036C219.149 57.9022 218.294 58.1758 217.581 58.6858C217.043 59.0867 216.867 59.4533 216.96 59.5462Z" fill="#263238"/>
<path d="M211.713 72.7952C211.713 72.7024 210.672 72.5166 208.971 72.3064C208.541 72.2624 208.135 72.1743 208.061 71.881C208.026 71.4357 208.128 70.9901 208.355 70.605C208.762 69.5653 209.189 68.4718 209.636 67.3246C211.415 62.6606 212.701 58.8228 212.515 58.7543C212.329 58.6859 210.731 62.4063 208.951 67.0655C208.521 68.2127 208.112 69.3111 207.724 70.3606C207.452 70.8801 207.37 71.4788 207.494 72.0521C207.556 72.2045 207.653 72.3405 207.775 72.4499C207.898 72.5592 208.045 72.6389 208.203 72.6828C208.44 72.751 208.685 72.7855 208.932 72.7855C210.618 72.8832 211.679 72.893 211.713 72.7952Z" fill="#263238"/>
<path d="M226.694 87.0366C226.694 87.0366 222.714 95.4504 210.482 94.2624V91.3877C216.184 91.4662 221.797 89.9599 226.694 87.0366Z" fill="#EB996E"/>
<path d="M217.493 53.4499C217.659 53.9095 219.341 53.6943 221.321 53.9388C223.301 54.1832 224.899 54.7259 225.163 54.3152C225.281 54.1148 225.002 53.6846 224.357 53.2397C223.5 52.6907 222.524 52.3554 221.511 52.2619C220.499 52.1382 219.472 52.2555 218.514 52.6041C217.786 52.873 217.419 53.2299 217.493 53.4499Z" fill="#263238"/>
<path d="M201.49 54.3836C201.784 54.7698 202.957 54.3836 204.345 54.3591C205.734 54.3347 206.927 54.6231 207.201 54.2223C207.318 54.0267 207.132 53.6454 206.619 53.2787C205.925 52.8438 205.117 52.6242 204.299 52.6477C203.48 52.6712 202.686 52.9367 202.018 53.4107C201.52 53.8018 201.358 54.1978 201.49 54.3836Z" fill="#263238"/>
<path d="M202.425 43.589C203.173 41.7507 205.192 40.6556 207.172 40.5481C209.152 40.4405 211.083 41.1983 212.814 42.1907C220.093 46.4001 223.838 56.5641 231.03 60.9201C232.799 61.9907 235.102 61.0081 236.608 62.4258C238.114 63.8436 239.087 66.1121 238.255 68.0041C239.286 66.7246 240.127 65.3037 240.754 63.785C241.301 62.2352 241.37 60.441 240.548 59.0183C239.927 57.9378 238.827 57.1165 238.529 55.909C238.26 54.8432 238.681 53.7334 238.637 52.6383C238.512 51.5254 238.129 50.4572 237.517 49.5192C234.696 44.5374 230.819 40.0298 225.828 37.2236C222.569 35.342 218.859 34.3837 215.097 34.4516C211.313 34.5364 207.684 35.9743 204.869 38.5045C203.261 40.0054 201.569 41.5552 202.425 43.589Z" fill="#043449"/>
<path d="M236.431 63.9412C236.558 63.5892 242.938 61.2915 243.021 68.0675C243.104 74.6528 236.46 73.3572 236.446 73.1666C236.431 72.9759 236.431 63.9412 236.431 63.9412Z" fill="#FFCAAE"/>
<path d="M238.456 70.6538C238.486 70.6538 238.569 70.732 238.764 70.82C239.041 70.9299 239.348 70.9299 239.625 70.82C240.314 70.5609 240.891 69.4462 240.91 68.2631C240.924 67.6976 240.81 67.1362 240.578 66.6204C240.513 66.4157 240.399 66.2296 240.247 66.0781C240.095 65.9266 239.908 65.8141 239.703 65.7502C239.572 65.7161 239.433 65.7292 239.31 65.7873C239.188 65.8454 239.09 65.9448 239.033 66.068C238.945 66.2538 238.989 66.3858 238.95 66.3956C238.911 66.4053 238.808 66.288 238.862 66.0142C238.898 65.8526 238.988 65.7078 239.116 65.6036C239.205 65.534 239.306 65.4827 239.414 65.4525C239.522 65.4222 239.635 65.4138 239.747 65.4276C240.018 65.4781 240.272 65.5977 240.484 65.775C240.695 65.9523 240.857 66.1812 240.954 66.4396C241.242 67.0052 241.385 67.6335 241.37 68.268C241.341 69.5978 240.676 70.8445 239.723 71.128C239.547 71.1813 239.362 71.1944 239.181 71.1665C239 71.1386 238.827 71.0703 238.676 70.9667C238.466 70.8151 238.432 70.6685 238.456 70.6538Z" fill="#EB996E"/>
<path d="M239.052 60.5582C238.914 60.4965 238.781 60.4229 238.656 60.3382C238.401 60.1769 238.01 59.9618 237.551 59.6342C236.252 58.6855 235.059 57.6005 233.992 56.3978C232.439 54.598 230.988 52.7128 229.645 50.7511C228.028 48.347 226.211 46.0836 224.214 43.9849C223.148 42.9363 221.971 42.0068 220.704 41.2129C219.516 40.489 218.246 39.9112 216.92 39.492C214.669 38.7699 212.302 38.4796 209.943 38.6364C208.352 38.7334 206.78 39.0409 205.269 39.5506C204.727 39.7169 204.326 39.8977 204.047 40.0053C203.909 40.0688 203.765 40.1195 203.617 40.1569C203.747 40.0788 203.883 40.0102 204.023 39.9515C204.415 39.7639 204.818 39.6006 205.23 39.4626C206.74 38.9008 208.322 38.5584 209.929 38.4457C212.315 38.2505 214.717 38.516 217.003 39.228C218.355 39.6445 219.65 40.2257 220.86 40.9586C222.146 41.7643 223.341 42.7068 224.424 43.7697C226.434 45.8893 228.256 48.1794 229.87 50.6142C231.198 52.5762 232.628 54.4675 234.153 56.2804C235.199 57.4854 236.36 58.5857 237.619 59.5658C238.069 59.9031 238.445 60.1329 238.685 60.3089C238.814 60.3817 238.937 60.4651 239.052 60.5582Z" fill="#074B68"/>
<path d="M239.204 71.8174C239.528 71.7576 239.863 71.8236 240.14 72.002C240.417 72.1803 240.616 72.4576 240.696 72.7774C240.776 73.0971 240.731 73.4353 240.57 73.7231C240.41 74.0108 240.145 74.2266 239.831 74.3263C239.517 74.426 239.177 74.4023 238.879 74.2599C238.582 74.1175 238.35 73.8671 238.231 73.5599C238.112 73.2526 238.114 72.9114 238.238 72.6058C238.362 72.3003 238.597 72.0533 238.896 71.9152" fill="white"/>
<path d="M238.896 71.915C238.613 72.1429 238.407 72.4516 238.304 72.7999C238.258 72.9794 238.256 73.1678 238.301 73.3479C238.345 73.528 238.434 73.6942 238.559 73.8314C238.706 74.0047 238.9 74.1308 239.119 74.1938C239.337 74.2568 239.569 74.2539 239.786 74.1855C240.003 74.1171 240.194 73.9862 240.337 73.8093C240.479 73.6324 240.567 73.4173 240.587 73.191C240.607 73.0084 240.582 72.8238 240.514 72.6533C240.446 72.4827 240.337 72.3316 240.196 72.2132C239.917 71.9894 239.576 71.8563 239.219 71.8319C239.219 71.8319 239.316 71.7634 239.527 71.7585C239.825 71.7609 240.114 71.8624 240.348 72.047C240.531 72.1826 240.676 72.3633 240.768 72.5715C240.861 72.7797 240.898 73.0082 240.876 73.235C240.857 73.5186 240.754 73.79 240.578 74.0138C240.403 74.2376 240.165 74.4033 239.894 74.4894C239.623 74.5755 239.332 74.5778 239.06 74.4962C238.788 74.4146 238.547 74.2528 238.368 74.0319C238.22 73.8598 238.119 73.6524 238.074 73.4297C238.029 73.207 238.043 72.9766 238.114 72.7608C238.191 72.4758 238.364 72.2258 238.603 72.0519C238.774 71.9199 238.891 71.9003 238.896 71.915Z" fill="#263238"/>
<path d="M237.395 62.4208C237.497 64.2199 237.58 66.1168 236.749 67.7155C235.918 69.3141 233.816 70.4044 232.261 69.5097C230.985 68.7813 230.604 67.1435 230.384 65.6915C229.763 61.4968 229.475 57.2581 228.815 53.0684L237.395 62.4208Z" fill="#043449"/>
<path d="M204.048 40.46C204.048 40.4942 204.63 40.3476 205.681 40.3133C207.173 40.2906 208.655 40.5613 210.042 41.1102C210.999 41.4809 211.913 41.9529 212.77 42.5182C213.752 43.1771 214.692 43.8955 215.586 44.6693C217.657 46.4212 219.509 48.4173 221.101 50.6142C221.937 51.7876 222.68 52.9951 223.481 54.1147C224.243 55.2032 225.129 56.1992 226.121 57.0822C227.829 58.5293 229.695 59.7774 231.685 60.8027C233.372 61.6925 234.78 62.3182 235.753 62.7582L236.877 63.2471C237.007 63.3106 237.143 63.3598 237.283 63.3938C237.167 63.3099 237.043 63.2394 236.911 63.1836L235.811 62.6409C234.833 62.152 233.469 61.5067 231.812 60.5925C229.858 59.5405 228.026 58.2782 226.346 56.828C225.377 55.9542 224.514 54.9697 223.775 53.8947C222.988 52.7898 222.249 51.5822 221.404 50.3942C219.795 48.1739 217.916 46.1621 215.811 44.4053C214.898 43.6294 213.938 42.911 212.936 42.2542C212.056 41.6891 211.117 41.2218 210.135 40.8609C208.713 40.3221 207.194 40.0856 205.676 40.1667C205.266 40.1906 204.859 40.2478 204.459 40.3378C204.317 40.3595 204.179 40.4006 204.048 40.46Z" fill="#074B68"/>
<path d="M237.576 58.3533C237.754 58.506 237.949 58.6373 238.158 58.7444L239.83 59.7222L240.387 60.04C240.607 60.1732 240.854 60.2551 241.111 60.2795C241.266 60.2964 241.423 60.2602 241.555 60.1768C241.626 60.1272 241.685 60.0624 241.727 59.9871C241.77 59.9118 241.794 59.8279 241.8 59.7417C241.785 59.4396 241.678 59.1493 241.492 58.9106L239.536 55.8111L239.272 56.0506C240.563 57.0015 242.145 57.4734 243.746 57.3853C243.95 57.3837 244.153 57.3491 244.347 57.2826C244.455 57.2472 244.555 57.1892 244.639 57.1125C244.723 57.0359 244.79 56.9422 244.836 56.8377C244.873 56.7262 244.883 56.6072 244.863 56.4912C244.844 56.3752 244.796 56.2658 244.723 56.1728C244.615 56.023 244.49 55.8853 244.352 55.7622C243.482 54.9216 242.728 53.9698 242.108 52.9315C241.561 51.9561 241.084 50.9432 240.68 49.9004C240.711 50.2033 240.782 50.5009 240.891 50.7853C241.137 51.5765 241.464 52.34 241.868 53.0635C242.469 54.1417 243.22 55.1293 244.098 55.9968C244.342 56.2315 244.587 56.4857 244.494 56.7057C244.401 56.9257 244.039 57.0186 243.692 57.0186C242.939 57.0565 242.185 56.9656 241.463 56.7497C240.743 56.5384 240.064 56.2079 239.453 55.7719L238.671 55.1951L239.194 56.0115L241.15 59.0866C241.302 59.2707 241.399 59.4946 241.428 59.7319C241.428 59.9177 241.262 60.0253 241.052 60.0106C240.629 59.9273 240.227 59.7611 239.869 59.5217L238.148 58.6417C237.968 58.5257 237.776 58.429 237.576 58.3533Z" fill="#074B68"/>
<path d="M218.103 75.8945C217.98 75.3935 217.685 74.9516 217.269 74.646C216.854 74.3404 216.344 74.1905 215.829 74.2225C215.453 74.2686 215.094 74.4076 214.785 74.627C214.476 74.8463 214.227 75.1391 214.059 75.4789C213.895 75.8209 213.802 76.1922 213.784 76.571C213.767 76.9497 213.825 77.3282 213.957 77.6838L213.996 77.8403C214.347 78.2186 214.806 78.4794 215.311 78.587C215.816 78.6946 216.342 78.6439 216.817 78.4416C217.282 78.218 217.66 77.8471 217.892 77.3865C218.125 76.9259 218.199 76.4014 218.103 75.8945Z" fill="#EB996E"/>
<path d="M212.768 77.8895C212.768 77.6353 214.475 77.7135 215.76 76.3153C217.046 74.9171 216.944 73.0886 217.183 73.0886C217.291 73.0886 217.496 73.5091 217.476 74.2815C217.441 75.2798 217.055 76.2337 216.386 76.9753C215.741 77.6887 214.843 78.1234 213.883 78.1877C213.179 78.2171 212.754 78.0069 212.768 77.8895Z" fill="#263238"/>
<path d="M270.243 181.495C270.206 181.499 270.168 181.499 270.131 181.495L269.789 181.529L268.483 181.636C267.349 181.729 265.706 181.837 263.673 181.959C259.61 182.199 253.993 182.448 247.784 182.551C241.575 182.653 235.943 182.595 231.875 182.487C229.842 182.438 228.194 182.38 227.06 182.331L225.75 182.262H225.407H225.295H225.407H225.75H227.06L231.88 182.345C235.948 182.404 241.57 182.433 247.779 182.345C253.988 182.257 259.6 182.023 263.663 181.827L268.478 181.588L269.789 181.529H270.126L270.243 181.495Z" fill="white"/>
</g>
<defs>
<filter id="filter0_i_1547_120562" x="0" y="0" width="359.999" height="189.625" filterUnits="userSpaceOnUse" color-interpolation-filters="sRGB">
<feFlood flood-opacity="0" result="BackgroundImageFix"/>
<feBlend mode="normal" in="SourceGraphic" in2="BackgroundImageFix" result="shape"/>
<feColorMatrix in="SourceAlpha" type="matrix" values="0 0 0 0 0 0 0 0 0 0 0 0 0 0 0 0 0 0 127 0" result="hardAlpha"/>
<feOffset dy="4"/>
<feGaussianBlur stdDeviation="4"/>
<feComposite in2="hardAlpha" operator="arithmetic" k2="-1" k3="1"/>
<feColorMatrix type="matrix" values="0 0 0 0 0 0 0 0 0 0 0 0 0 0 0 0 0 0 0.03 0"/>
<feBlend mode="normal" in2="shape" result="effect1_innerShadow_1547_120562"/>
</filter>
<filter id="filter1_f_1547_120562" x="-476.625" y="88.124" width="871.124" height="871.124" filterUnits="userSpaceOnUse" color-interpolation-filters="sRGB">
<feFlood flood-opacity="0" result="BackgroundImageFix"/>
<feBlend mode="normal" in="SourceGraphic" in2="BackgroundImageFix" result="shape"/>
<feGaussianBlur stdDeviation="150" result="effect1_foregroundBlur_1547_120562"/>
</filter>
<filter id="filter2_f_1547_120562" x="-126.75" y="-571.125" width="1083.75" height="1083.75" filterUnits="userSpaceOnUse" color-interpolation-filters="sRGB">
<feFlood flood-opacity="0" result="BackgroundImageFix"/>
<feBlend mode="normal" in="SourceGraphic" in2="BackgroundImageFix" result="shape"/>
<feGaussianBlur stdDeviation="150" result="effect1_foregroundBlur_1547_120562"/>
</filter>
<filter id="filter3_d_1547_120562" x="88.1191" y="-5.85156" width="138.325" height="125.303" filterUnits="userSpaceOnUse" color-interpolation-filters="sRGB">
<feFlood flood-opacity="0" result="BackgroundImageFix"/>
<feColorMatrix in="SourceAlpha" type="matrix" values="0 0 0 0 0 0 0 0 0 0 0 0 0 0 0 0 0 0 127 0" result="hardAlpha"/>
<feOffset dy="4"/>
<feGaussianBlur stdDeviation="10"/>
<feComposite in2="hardAlpha" operator="out"/>
<feColorMatrix type="matrix" values="0 0 0 0 0 0 0 0 0 0 0 0 0 0 0 0 0 0 0.05 0"/>
<feBlend mode="normal" in2="BackgroundImageFix" result="effect1_dropShadow_1547_120562"/>
<feBlend mode="normal" in="SourceGraphic" in2="effect1_dropShadow_1547_120562" result="shape"/>
</filter>
<linearGradient id="paint0_linear_1547_120562" x1="138.29" y1="8.5491" x2="418.413" y2="267.421" gradientUnits="userSpaceOnUse">
<stop stop-color="#0976F6"/>
<stop offset="1" stop-color="#003AC2"/>
</linearGradient>
<linearGradient id="paint1_linear_1547_120562" x1="-96.3064" y1="-87.3059" x2="75.4984" y2="71.4649" gradientUnits="userSpaceOnUse">
<stop stop-color="#0976F6"/>
<stop offset="1" stop-color="#003AC2"/>
</linearGradient>
<linearGradient id="paint2_linear_1547_120562" x1="222.51" y1="84.8516" x2="388.889" y2="238.609" gradientUnits="userSpaceOnUse">
<stop stop-color="#0976F6"/>
<stop offset="1" stop-color="#003AC2"/>
</linearGradient>
<linearGradient id="paint3_linear_1547_120562" x1="-64.0096" y1="-57.9179" x2="37.3357" y2="36.7911" gradientUnits="userSpaceOnUse">
<stop stop-color="#0976F6"/>
<stop offset="1" stop-color="#003AC2"/>
</linearGradient>
<linearGradient id="paint4_linear_1547_120562" x1="-163.372" y1="365.025" x2="94.4993" y2="664.55" gradientUnits="userSpaceOnUse">
<stop stop-color="#0A7DF7"/>
<stop offset="1" stop-color="#09F6AF"/>
</linearGradient>
<linearGradient id="paint5_linear_1547_120562" x1="196.897" y1="-312.338" x2="656.999" y2="222.083" gradientUnits="userSpaceOnUse">
<stop stop-color="#0A7DF7"/>
<stop offset="1" stop-color="#09F6AF"/>
</linearGradient>
<linearGradient id="paint6_linear_1547_120562" x1="127.59" y1="62.8408" x2="132.145" y2="67.2146" gradientUnits="userSpaceOnUse">
<stop stop-color="#0976F6"/>
<stop offset="1" stop-color="#003AC2"/>
</linearGradient>
<linearGradient id="paint7_linear_1547_120562" x1="141.14" y1="62.7771" x2="145.694" y2="67.1317" gradientUnits="userSpaceOnUse">
<stop stop-color="#0976F6"/>
<stop offset="1" stop-color="#003AC2"/>
</linearGradient>
<linearGradient id="paint8_linear_1547_120562" x1="154.978" y1="62.7669" x2="159.542" y2="67.1354" gradientUnits="userSpaceOnUse">
<stop stop-color="#0976F6"/>
<stop offset="1" stop-color="#003AC2"/>
</linearGradient>
<linearGradient id="paint9_linear_1547_120562" x1="168.36" y1="62.7771" x2="172.914" y2="67.1365" gradientUnits="userSpaceOnUse">
<stop stop-color="#0976F6"/>
<stop offset="1" stop-color="#003AC2"/>
</linearGradient>
<linearGradient id="paint10_linear_1547_120562" x1="180.585" y1="69.447" x2="180.613" y2="70.0265" gradientUnits="userSpaceOnUse">
<stop stop-color="#0976F6"/>
<stop offset="1" stop-color="#003AC2"/>
</linearGradient>
<linearGradient id="paint11_linear_1547_120562" x1="142.263" y1="19.993" x2="168.458" y2="44.2013" gradientUnits="userSpaceOnUse">
<stop stop-color="#0976F6"/>
<stop offset="1" stop-color="#003AC2"/>
</linearGradient>
<linearGradient id="paint12_linear_1547_120562" x1="85.2691" y1="156.248" x2="112.655" y2="181.556" gradientUnits="userSpaceOnUse">
<stop stop-color="#0976F6"/>
<stop offset="1" stop-color="#003AC2"/>
</linearGradient>
</defs>
</svg>
