<svg width="360" height="186" viewBox="0 0 360 186" fill="none" xmlns="http://www.w3.org/2000/svg">
<g filter="url(#filter0_i_1547_120343)">
<rect width="359.999" height="185.625" rx="15" fill="#EDF2F4"/>
</g>
<mask id="mask0_1547_120343" style="mask-type:alpha" maskUnits="userSpaceOnUse" x="0" y="0" width="360" height="185">
<rect width="360" height="185" rx="15" fill="#C4C4C4"/>
</mask>
<g mask="url(#mask0_1547_120343)">
<mask id="mask1_1547_120343" style="mask-type:alpha" maskUnits="userSpaceOnUse" x="0" y="0" width="439" height="374">
<rect width="438.749" height="373.499" fill="#FAFAFA"/>
</mask>
<g mask="url(#mask1_1547_120343)">
<circle opacity="0.05" cx="307.238" cy="160.988" r="138.488" fill="url(#paint0_linear_1547_120343)"/>
<circle opacity="0.04" cx="7.31271" cy="6.18771" r="84.9373" transform="rotate(-180 7.31271 6.18771)" fill="url(#paint1_linear_1547_120343)"/>
<circle opacity="0.05" cx="322.857" cy="175.393" r="82.2551" fill="url(#paint2_linear_1547_120343)"/>
<ellipse opacity="0.04" cx="-2.24987" cy="-2.81237" rx="50.6249" ry="50.0624" transform="rotate(-180 -2.24987 -2.81237)" fill="url(#paint3_linear_1547_120343)"/>
<g opacity="0.1" filter="url(#filter1_f_1547_120343)">
<circle cx="-41.0628" cy="523.686" r="135.562" fill="url(#paint4_linear_1547_120343)"/>
</g>
<g opacity="0.2" filter="url(#filter2_f_1547_120343)">
<circle cx="415.124" cy="-29.2501" r="241.874" fill="url(#paint5_linear_1547_120343)"/>
</g>
</g>
<path d="M89.3334 116.257L89.9756 144.515C90.0165 146.438 90.7981 148.271 92.1573 149.631C93.5166 150.992 95.3486 151.775 97.2713 151.817L255.381 155.337C256.376 155.359 257.365 155.182 258.291 154.817C259.216 154.452 260.059 153.905 260.771 153.209C261.482 152.513 262.047 151.682 262.433 150.765C262.819 149.848 263.017 148.863 263.017 147.868V113.83C263.015 108.978 261.259 104.29 258.072 100.631C254.885 96.9718 250.483 94.5886 245.677 93.9207C216.732 89.9389 157.05 83.8185 108.786 92.5142C103.247 93.5047 98.2427 96.441 94.6762 100.794C91.1096 105.147 89.2149 110.631 89.3334 116.257Z" fill="url(#paint6_linear_1547_120343)"/>
<path d="M88.6379 126.128C88.6379 126.128 75.6135 120.098 72.9483 126.128C70.283 132.159 73.2758 139.557 76.2044 143.68C79.1329 147.804 79.1201 198.745 79.1201 198.745L276.656 196.632L278.994 147.649C278.994 147.649 288.467 135.98 287.876 130.952C287.285 125.923 279.289 118.602 270.112 126.109C260.934 133.617 258.552 149.306 258.552 149.306L101.059 150.495C101.059 150.495 101.598 128.46 88.6379 126.128Z" fill="url(#paint7_linear_1547_120343)"/>
<path d="M256.559 159.094C256.559 159.184 221.564 159.261 178.406 159.261C135.249 159.261 100.254 159.203 100.254 159.094C100.254 158.985 135.236 158.927 178.406 158.927C221.577 158.927 256.559 159.017 256.559 159.094Z" fill="#0045A5"/>
<path d="M100.248 180.673C100.239 180.622 100.239 180.57 100.248 180.519C100.248 180.396 100.248 180.242 100.248 180.063C100.248 179.66 100.235 179.076 100.209 178.309C100.209 176.762 100.209 174.572 100.209 171.887C100.209 166.454 100.248 158.946 99.9973 150.694C99.9483 146.808 99.648 142.929 99.0981 139.082C98.9825 138.658 98.8669 138.234 98.7578 137.798C98.6486 137.361 98.4366 136.995 98.2697 136.603C97.9293 135.826 97.5825 135.081 97.2036 134.381C96.5195 133.078 95.7153 131.842 94.8016 130.688C94.0387 129.743 93.1776 128.882 92.2327 128.119C91.515 127.548 90.7428 127.049 89.9271 126.629C89.2165 126.302 88.4899 126.01 87.75 125.756H87.8977L88.3408 125.878C88.9077 126.04 89.4581 126.255 89.9849 126.52C90.8238 126.918 91.6164 127.407 92.3483 127.978C93.3131 128.736 94.1918 129.597 94.9686 130.547C95.9075 131.702 96.7334 132.946 97.4348 134.259C97.8265 134.965 98.1798 135.71 98.5266 136.494C98.7 136.886 98.8605 137.29 99.0211 137.695L99.3871 138.979C99.9601 142.844 100.271 146.742 100.318 150.649C100.569 158.933 100.485 166.441 100.434 171.874C100.395 174.565 100.363 176.755 100.344 178.296C100.344 179.035 100.344 179.619 100.344 180.05V180.499C100.248 180.615 100.248 180.673 100.248 180.673Z" fill="#0045A5"/>
<path d="M87.1058 137.496C87.2592 137.391 87.4405 137.335 87.626 137.335C88.1423 137.296 88.656 137.439 89.0775 137.74C89.3738 137.947 89.616 138.222 89.7839 138.542C89.9759 138.918 90.0412 139.346 89.9702 139.763C89.9002 140.242 89.6867 140.689 89.3576 141.044C89.0285 141.4 88.5995 141.647 88.127 141.753C87.6509 141.822 87.1653 141.748 86.7311 141.541C86.2969 141.334 85.9335 141.004 85.6865 140.591C85.4702 140.231 85.361 139.816 85.3718 139.396C85.3949 138.955 85.5365 138.527 85.7817 138.159C86.0269 137.79 86.3667 137.495 86.7655 137.303C86.9292 137.214 87.1124 137.168 87.2985 137.168C87.2985 137.2 87.1123 137.245 86.8233 137.418C86.4193 137.669 86.096 138.03 85.892 138.459C85.7394 138.76 85.6664 139.095 85.6799 139.432C85.6934 139.769 85.7929 140.098 85.9691 140.386C86.1891 140.738 86.5061 141.019 86.882 141.196C87.2579 141.372 87.6768 141.437 88.0884 141.381C88.491 141.287 88.8571 141.077 89.1414 140.776C89.4256 140.476 89.6155 140.099 89.6876 139.692C89.7442 139.357 89.7056 139.012 89.5762 138.698C89.4468 138.383 89.2317 138.111 88.9555 137.913C88.5894 137.622 88.1387 137.457 87.671 137.444C87.2985 137.463 87.1123 137.528 87.1058 137.496Z" fill="#0045A5"/>
<path d="M88.0008 150.173C87.6264 149.895 87.3209 149.535 87.1081 149.12C86.5218 148.154 86.2054 147.049 86.1919 145.919C86.1783 144.79 86.4681 143.677 87.0311 142.698C87.2359 142.278 87.5321 141.909 87.8981 141.619C87.943 141.657 87.6091 142.062 87.2559 142.807C86.7739 143.772 86.5274 144.837 86.5366 145.915C86.5542 146.995 86.8248 148.055 87.3265 149.011C87.699 149.743 88.0522 150.141 88.0008 150.173Z" fill="#0045A5"/>
<path d="M85.928 131.105C85.8931 131.432 85.8286 131.754 85.7354 132.069C85.4536 133.606 85.7906 135.192 86.673 136.481C86.8811 136.733 87.0721 136.999 87.2446 137.277C87.2446 137.277 86.8849 137.097 86.4803 136.635C85.9592 135.999 85.5967 135.248 85.4225 134.444C85.2483 133.64 85.2675 132.806 85.4785 132.011C85.5503 131.676 85.7049 131.365 85.928 131.105Z" fill="#0045A5"/>
<path d="M82.0781 138.208C82.1552 138.144 82.7525 138.748 83.6644 139.217C84.5764 139.685 85.4049 139.859 85.392 139.936C84.7344 140.02 84.0682 139.87 83.5103 139.512C82.8963 139.256 82.3901 138.796 82.0781 138.208Z" fill="#0045A5"/>
<path d="M277.41 180.673C277.41 180.763 232.859 180.84 177.904 180.84C122.949 180.84 78.4102 180.763 78.4102 180.673C78.4102 180.583 122.955 180.506 177.955 180.506C232.956 180.506 277.41 180.576 277.41 180.673Z" fill="#0045A5"/>
<path d="M255.866 149.493C255.963 149.493 256.033 156.467 256.033 165.067C256.033 173.666 255.963 180.654 255.866 180.654C255.77 180.654 255.699 173.679 255.699 165.067C255.699 156.454 255.776 149.493 255.866 149.493Z" fill="#0045A5"/>
<path d="M189.908 95.6034H189.599L188.7 95.6355L185.252 95.7318L172.548 96.0272L130.65 96.8685C126.559 96.9649 122.557 96.952 118.717 97.2089C115.019 97.3679 111.36 98.0357 107.844 99.1934C104.672 100.258 101.834 102.133 99.6107 104.633C98.6022 105.763 97.7391 107.014 97.0418 108.358C96.4058 109.594 95.8793 110.883 95.4683 112.211C94.8083 114.518 94.378 116.884 94.1839 119.276C93.9848 121.395 93.9655 123.226 93.9527 124.728C93.9398 126.231 93.9527 127.387 93.9976 128.177C93.9976 128.562 93.9976 128.858 93.9976 129.076C93.9976 129.295 93.9976 129.384 93.9976 129.384C93.9976 129.384 93.9976 129.282 93.9976 129.076C93.9976 128.871 93.9976 128.562 93.9463 128.177C93.9077 127.394 93.8563 126.25 93.8435 124.728C93.8307 123.206 93.8435 121.389 94.0169 119.257C94.206 116.841 94.6363 114.451 95.3014 112.121C95.708 110.77 96.2323 109.457 96.8684 108.197C97.5597 106.826 98.4229 105.548 99.4373 104.395C101.691 101.858 104.569 99.9535 107.786 98.8723C111.314 97.6946 114.989 97.0137 118.704 96.8493C122.557 96.5924 126.565 96.5988 130.656 96.5025L172.561 95.7575L185.258 95.5712L188.713 95.5327H189.612L189.908 95.6034Z" fill="#0387BF"/>
<path d="M139.336 117.606C139.336 117.606 139.124 117.709 138.797 117.959C138.334 118.314 137.987 118.8 137.801 119.353C137.651 119.747 137.605 120.173 137.667 120.59C137.729 121.007 137.897 121.402 138.154 121.735C138.445 122.175 138.863 122.514 139.353 122.708C139.843 122.902 140.38 122.94 140.892 122.818C141.405 122.696 141.867 122.42 142.217 122.026C142.567 121.633 142.788 121.141 142.849 120.618C142.927 120.203 142.899 119.775 142.766 119.374C142.634 118.973 142.402 118.612 142.091 118.325C141.675 117.918 141.148 117.643 140.576 117.535C140.171 117.465 139.933 117.49 139.933 117.465C140.139 117.389 140.36 117.369 140.576 117.407C141.099 117.467 141.598 117.664 142.021 117.979C142.444 118.294 142.776 118.714 142.984 119.199C143.173 119.667 143.224 120.179 143.132 120.676C143.049 121.25 142.795 121.787 142.403 122.216C142.011 122.645 141.5 122.946 140.935 123.08C140.37 123.214 139.778 123.176 139.235 122.969C138.692 122.763 138.224 122.398 137.891 121.922C137.586 121.521 137.401 121.042 137.358 120.541C137.329 120.103 137.397 119.665 137.557 119.256C137.776 118.673 138.177 118.176 138.7 117.837C138.888 117.705 139.107 117.625 139.336 117.606Z" fill="#263238"/>
<path d="M136.633 134.246C136.389 133.627 136.225 132.98 136.145 132.319C135.832 130.751 135.867 129.133 136.248 127.58C136.66 126.006 137.648 124.644 139.016 123.765C139.43 123.509 139.883 123.324 140.358 123.219C140.528 123.165 140.708 123.148 140.885 123.167C140.273 123.364 139.687 123.631 139.138 123.964C137.872 124.858 136.963 126.171 136.569 127.669C136.207 129.18 136.141 130.746 136.376 132.281C136.53 133.501 136.685 134.233 136.633 134.246Z" fill="#263238"/>
<path d="M138.972 107.716C138.631 108.169 138.316 108.64 138.028 109.129C137.375 110.331 137.183 111.729 137.487 113.062C137.791 114.395 138.57 115.572 139.678 116.373C140.15 116.692 140.641 116.981 141.149 117.24C140.99 117.239 140.833 117.207 140.687 117.144C140.282 117.001 139.898 116.807 139.543 116.566C138.332 115.774 137.474 114.543 137.152 113.132C136.83 111.721 137.068 110.239 137.816 109C138.031 108.629 138.295 108.288 138.599 107.986C138.818 107.761 138.959 107.671 138.972 107.716Z" fill="#263238"/>
<path d="M138.375 120.56C137.201 120.757 136.039 121.018 134.894 121.344C133.785 121.778 132.701 122.271 131.645 122.821C133.5 121.206 135.921 120.393 138.375 120.56Z" fill="#263238"/>
<g opacity="0.3">
<path opacity="0.3" d="M117.633 159.697C123.868 164.476 131.631 166.816 139.469 166.28C137.842 173.829 136.219 181.379 134.6 188.932C134.17 190.942 133.766 193.183 134.819 194.956C136.296 197.441 139.732 197.685 142.622 197.647C145.833 197.602 149.185 197.525 152.037 196.035C156.076 193.928 158.247 189.458 159.814 185.181C161.381 180.904 162.736 176.318 165.96 173.101C169.661 177.317 174.671 180.169 180.186 181.199C181.791 181.495 183.615 181.584 184.9 180.557C186.184 179.529 186.55 177.718 186.223 176.126C185.795 174.556 185.083 173.078 184.123 171.765L174.72 157.186C173.436 155.215 172.062 153.134 169.91 152.196C168.221 151.458 166.307 151.554 164.47 151.637C149.12 152.532 133.885 154.834 118.956 158.516" fill="black"/>
</g>
<g opacity="0.3">
<path opacity="0.3" d="M167.864 87.4213C164.062 97.4657 149.881 99.7713 144.878 109.257C139.953 118.659 146.06 131.093 140.986 140.444C139.105 143.899 135.849 146.474 134.038 149.955C132.805 152.293 132.169 155.093 130.184 156.82C127.859 158.843 124.256 158.805 121.463 157.495C118.669 156.185 116.524 153.834 114.533 151.477C110.808 147.058 107.308 142.28 105.542 136.764C102.549 127.278 105.298 116.546 111.322 108.621C117.346 100.696 126.267 95.3464 135.688 92.1417C145.11 88.937 155.077 87.7296 164.986 86.7983" fill="black"/>
</g>
<path d="M122.203 61.0065C123.642 58.7632 125.632 56.9258 127.983 55.6696C130.351 54.4099 133.118 54.1308 135.69 54.8926C136.953 55.2935 138.091 56.0156 138.992 56.9883C139.892 57.9609 140.525 59.1508 140.828 60.4414C141.232 62.5029 140.68 64.8021 141.746 66.6132C142.966 68.694 145.914 69.3491 146.955 71.5326C147.228 72.2089 147.342 72.939 147.287 73.6663C147.232 74.3936 147.011 75.0985 146.64 75.7264C145.891 76.9765 144.938 78.0923 143.82 79.0274C144.494 79.4489 145.089 79.9834 145.58 80.6073C145.824 80.9216 145.986 81.2916 146.051 81.6841C146.116 82.0765 146.082 82.479 145.953 82.8551C145.534 83.5986 144.843 84.151 144.026 84.3964C140.438 85.9089 136.472 86.2811 132.665 85.4625C131.65 85.2442 130.488 84.968 129.653 85.5846" fill="#043449"/>
<path d="M147.906 68.63L145.844 74.9173L159.883 82.8874L145.754 83.3434L146.808 94.7943L174.006 88.1151C174.006 88.1151 175.637 77.0239 147.906 68.63L145.979 68.1676C145.632 68.0859 145.309 67.9211 145.04 67.6873C144.77 67.4535 144.561 67.1577 144.431 66.8253C144.211 66.2844 143.8 65.8433 143.275 65.5858L140.957 64.3784V66.2152L142.241 67.7116L142.036 71.2631C141.982 72.0237 142.201 72.7787 142.652 73.3929C143.104 74.0071 143.76 74.4405 144.502 74.6155L145.787 74.9173" fill="#FFBE9D"/>
<path d="M117.153 91.3647C116.595 91.3647 111.412 92.6492 108.445 96.3998C105.478 100.15 101.187 114.344 101.187 114.344L112.105 116.232L116.819 128.068C116.819 128.068 144.724 124.414 143.24 122.93C141.806 121.611 140.306 120.365 138.745 119.199L145.167 97.8063L152.874 93.6446L150.273 82.958L134.75 85.0581L117.153 91.3647Z" fill="#F6A509"/>
<path d="M114.38 106.014C114.141 107.785 113.791 109.54 113.333 111.267C112.983 113.021 112.527 114.752 111.965 116.45C112.204 114.679 112.551 112.925 113.005 111.196C113.351 109.441 113.81 107.71 114.38 106.014Z" fill="#D18C07"/>
<path d="M175.617 162.061L187.755 183.158L197.684 176.787L185.495 155.369L175.617 162.061Z" fill="#FFBE9D"/>
<path d="M194.252 170.757L200.527 181.572C200.527 181.572 213.603 178.823 214.958 180.705L194.458 193.613L183.996 177.179L194.252 170.757Z" fill="#455A64"/>
<path d="M193.624 184.661C193.461 184.841 193.371 185.076 193.371 185.319C193.371 185.562 193.461 185.797 193.624 185.977C193.799 186.138 194.029 186.227 194.266 186.227C194.504 186.227 194.733 186.138 194.909 185.977C195.077 185.781 195.167 185.53 195.161 185.271C195.155 185.013 195.054 184.765 194.877 184.577C194.672 184.424 194.417 184.356 194.164 184.386C193.91 184.416 193.678 184.542 193.515 184.738" fill="#E0E0E0"/>
<path d="M194.458 193.601L193.469 191.905L213.493 180.165C213.493 180.165 214.656 179.985 214.958 180.692L194.458 193.601Z" fill="#E0E0E0"/>
<path d="M200.79 181.244C200.848 181.347 200.379 181.707 200.09 182.336C199.801 182.965 199.801 183.556 199.685 183.575C199.57 183.595 199.351 182.933 199.685 182.163C200.019 181.392 200.751 181.135 200.79 181.244Z" fill="#263238"/>
<path d="M203.498 180.775C203.582 180.859 203.254 181.302 203.184 181.944C203.113 182.586 203.293 183.087 203.184 183.145C203.075 183.203 202.664 182.683 202.766 181.861C202.869 181.039 203.434 180.685 203.498 180.775Z" fill="#263238"/>
<path d="M206.347 182.58C206.263 182.664 205.813 182.252 205.704 181.54C205.595 180.827 205.948 180.319 206.045 180.371C206.141 180.422 206.045 180.904 206.115 181.488C206.186 182.073 206.436 182.509 206.347 182.58Z" fill="#263238"/>
<path d="M199.092 178.939C199.092 179.061 198.559 179.208 198.02 179.581C197.48 179.953 197.153 180.429 197.043 180.377C196.934 180.326 197.14 179.696 197.782 179.241C198.424 178.785 199.092 178.829 199.092 178.939Z" fill="#263238"/>
<path d="M197.787 176.787C197.787 176.826 197.46 177.14 196.759 177.429C196.346 177.592 195.915 177.709 195.475 177.776C195.213 177.809 194.949 177.828 194.685 177.834C194.529 177.84 194.373 177.822 194.223 177.782C194.113 177.753 194.016 177.687 193.948 177.597C193.879 177.506 193.843 177.395 193.844 177.282C193.849 177.18 193.879 177.08 193.93 176.992C193.981 176.904 194.053 176.829 194.139 176.774C194.27 176.694 194.41 176.632 194.557 176.588C195.236 176.355 195.963 176.3 196.67 176.427C197.427 176.569 197.826 176.845 197.8 176.883C197.774 176.922 197.35 176.774 196.637 176.716C196.221 176.686 195.803 176.707 195.392 176.781C195.153 176.823 194.919 176.885 194.692 176.967C194.435 177.05 194.248 177.166 194.255 177.294C194.261 177.423 194.255 177.359 194.351 177.397C194.463 177.423 194.577 177.434 194.692 177.429C195.357 177.438 196.02 177.345 196.657 177.153C197.024 177.003 197.402 176.881 197.787 176.787Z" fill="#263238"/>
<path d="M197.746 177.012C197.746 177.05 197.297 176.813 196.847 176.19C196.589 175.821 196.398 175.41 196.282 174.976C196.213 174.72 196.167 174.457 196.147 174.192C196.118 174.022 196.133 173.846 196.192 173.683C196.25 173.52 196.35 173.375 196.481 173.261C196.571 173.204 196.676 173.174 196.783 173.174C196.89 173.174 196.994 173.204 197.085 173.261C197.214 173.347 197.331 173.451 197.432 173.569C197.608 173.779 197.755 174.013 197.868 174.263C198.051 174.683 198.128 175.142 198.093 175.599C198.029 176.382 197.688 176.768 197.656 176.736C197.727 176.358 197.777 175.976 197.804 175.592C197.796 175.187 197.699 174.788 197.521 174.424C197.42 174.211 197.288 174.014 197.13 173.839C196.963 173.647 196.77 173.518 196.699 173.595C196.635 173.672 196.589 173.761 196.563 173.858C196.538 173.955 196.534 174.056 196.552 174.154C196.563 174.396 196.595 174.637 196.648 174.873C196.742 175.276 196.894 175.663 197.098 176.023C197.444 176.652 197.791 176.96 197.746 177.012Z" fill="#263238"/>
<path d="M139.483 159.094L163.323 142.884L178.357 172.15L192.024 164.745C192.024 164.745 176.283 126.34 170.631 125.12C167.465 124.426 131.154 131.356 131.154 131.356L127.095 129.32L116.819 128.068L116.177 129.731C114.383 134.273 113.558 139.14 113.755 144.02C113.952 148.899 115.166 153.683 117.32 158.066L117.821 159.087L139.483 159.094Z" fill="#043449"/>
<path d="M131.111 138.812C131.291 139.615 151.02 158.079 151.02 158.079L139.652 196.285L156.62 199.528L173.658 153.507L142.517 122.956L128.266 128.909L131.111 138.812Z" fill="#043449"/>
<path d="M163.324 142.878C163.376 142.955 158.077 146.641 151.501 151.117C144.925 155.594 139.543 159.158 139.485 159.094C139.427 159.03 144.725 155.324 151.308 150.848C157.891 146.371 163.266 142.801 163.324 142.878Z" fill="#455A64"/>
<path d="M175.563 166.691C175.343 166.417 175.149 166.122 174.985 165.812C174.631 165.234 174.143 164.379 173.546 163.326C172.358 161.213 170.778 158.259 169.108 154.977C167.438 151.695 165.961 148.671 164.927 146.481C164.407 145.382 163.996 144.49 163.72 143.873C163.558 143.561 163.426 143.234 163.328 142.897C163.522 143.19 163.694 143.497 163.842 143.815L165.126 146.384C166.244 148.6 167.74 151.561 169.391 154.842C171.041 158.124 172.602 161.104 173.739 163.243C174.285 164.277 174.74 165.131 175.087 165.78C175.269 166.071 175.428 166.376 175.563 166.691Z" fill="#455A64"/>
<path d="M154.563 151.246C154.056 152.654 153.447 154.024 152.739 155.343C152.128 156.708 151.417 158.026 150.613 159.286C151.729 156.512 153.049 153.824 154.563 151.246Z" fill="#455A64"/>
<path d="M101.181 114.343L97.3273 128.575C96.83 130.416 97.0599 132.377 97.9696 134.053C98.7457 135.494 99.9739 136.64 101.465 137.314C102.956 137.988 104.628 138.154 106.222 137.785L136.76 130.264L133.549 123.919L109.491 126.006L112.06 116.231L101.181 114.343Z" fill="#FFBE9D"/>
<path d="M114.73 135.941L115.129 133.873L131.679 130.9L136.489 105.384L167.226 101.724L162.063 128.96L114.73 135.941Z" fill="#455A64"/>
<path d="M150.291 119.128C149.938 119.112 149.597 118.989 149.316 118.775C149.035 118.561 148.826 118.265 148.717 117.929C148.608 117.592 148.605 117.231 148.708 116.892C148.81 116.554 149.014 116.255 149.291 116.035C149.569 115.816 149.907 115.687 150.26 115.665C150.613 115.643 150.964 115.73 151.266 115.913C151.569 116.097 151.808 116.368 151.951 116.691C152.095 117.015 152.136 117.374 152.07 117.721C152.018 118.143 151.803 118.527 151.47 118.79C151.137 119.054 150.713 119.175 150.291 119.128Z" fill="#EBEBEB"/>
<path d="M119.23 62.7599L119.288 64.6031L119.982 92.2188C120.065 95.43 122.885 97.909 126.314 97.7934C129.782 97.6842 132.57 94.9676 132.544 91.7243C132.512 88.327 132.544 84.7433 132.544 84.7433C132.544 84.7433 136.917 83.9662 137.759 78.2376C138.176 75.3925 137.977 70.7299 137.694 66.9215C137.634 66.1093 137.41 65.3176 137.036 64.5942C136.662 63.8708 136.145 63.2307 135.517 62.7122C134.888 62.1938 134.162 61.8079 133.38 61.5777C132.599 61.3475 131.779 61.2778 130.97 61.3727L119.23 62.7599Z" fill="#FFBE9D"/>
<path d="M135.478 70.1263C135.481 70.3179 135.41 70.5033 135.279 70.6436C135.149 70.7838 134.969 70.8677 134.777 70.8777C134.685 70.8856 134.593 70.8752 134.505 70.8472C134.417 70.8191 134.335 70.774 134.265 70.7143C134.194 70.6546 134.137 70.5815 134.094 70.4994C134.052 70.4172 134.027 70.3275 134.02 70.2354C134.016 70.0449 134.086 69.8603 134.215 69.7203C134.345 69.5803 134.523 69.4956 134.713 69.484C134.9 69.468 135.085 69.5266 135.228 69.6471C135.372 69.7675 135.461 69.9398 135.478 70.1263Z" fill="#263238"/>
<path d="M136.706 69.3812C136.616 69.4775 136.064 69.0729 135.268 69.0794C134.471 69.0858 133.906 69.4968 133.816 69.4005C133.726 69.3041 133.868 69.1821 134.118 68.9959C134.456 68.7562 134.86 68.6262 135.274 68.6234C135.685 68.6194 136.086 68.7428 136.424 68.9766C136.668 69.1821 136.751 69.3363 136.706 69.3812Z" fill="#263238"/>
<path d="M127.695 70.4088C127.7 70.6008 127.63 70.7872 127.499 70.9278C127.368 71.0684 127.187 71.1518 126.995 71.1602C126.808 71.1762 126.623 71.1176 126.48 70.9972C126.337 70.8768 126.247 70.7044 126.231 70.518C126.227 70.327 126.298 70.1422 126.429 70.0031C126.56 69.8639 126.74 69.7813 126.931 69.773C127.023 69.7641 127.115 69.7736 127.204 69.8009C127.292 69.8281 127.374 69.8725 127.445 69.9317C127.516 69.9908 127.575 70.0634 127.618 70.1453C127.661 70.2271 127.687 70.3167 127.695 70.4088Z" fill="#263238"/>
<path d="M128.957 69.6188C128.867 69.7151 128.315 69.3105 127.518 69.3169C126.722 69.3233 126.157 69.7344 126.067 69.638C125.977 69.5417 126.112 69.4197 126.362 69.2334C126.703 68.9937 127.108 68.8637 127.525 68.8609C127.933 68.857 128.333 68.9805 128.668 69.2142C128.912 69.4004 129.002 69.5738 128.957 69.6188Z" fill="#263238"/>
<path d="M131.883 75.431C132.3 75.2968 132.731 75.2148 133.168 75.1869C133.373 75.1869 133.56 75.1227 133.592 74.9814C133.607 74.7746 133.558 74.5682 133.45 74.3906L132.84 72.8621C132.271 71.5699 131.808 70.2341 131.453 68.8674C132.128 70.1018 132.697 71.3908 133.155 72.7208L133.746 74.2557C133.873 74.4981 133.914 74.7769 133.861 75.0457C133.833 75.1171 133.788 75.1812 133.732 75.2334C133.675 75.2856 133.607 75.3246 133.534 75.3475C133.421 75.3785 133.304 75.3957 133.187 75.3989C132.756 75.466 132.318 75.4768 131.883 75.431Z" fill="#263238"/>
<path d="M132.543 84.7626C129.845 84.8489 127.176 84.1817 124.836 82.8359C124.836 82.8359 126.763 86.7407 132.453 86.137L132.543 84.7626Z" fill="#EB996E"/>
<path d="M129.273 68.315C129.19 68.5269 128.406 68.392 127.475 68.4563C126.544 68.5205 125.786 68.7453 125.67 68.5462C125.619 68.4498 125.76 68.2572 126.069 68.0645C126.481 67.8224 126.946 67.6836 127.424 67.6599C127.9 67.6241 128.377 67.7011 128.817 67.8847C129.151 68.0388 129.312 68.2186 129.273 68.315Z" fill="#263238"/>
<path d="M136.382 66.613C136.241 66.7929 135.695 66.613 135.046 66.613C134.398 66.613 133.839 66.7479 133.71 66.5617C133.582 66.3754 133.71 66.2919 133.974 66.1185C134.297 65.9098 134.675 65.8025 135.06 65.8105C135.444 65.8185 135.818 65.9414 136.132 66.1635C136.363 66.369 136.44 66.5552 136.382 66.613Z" fill="#263238"/>
<path d="M131.801 78.289C131.569 78.3261 131.332 78.3018 131.114 78.2184L130.471 78.0385C130.292 77.9807 130.092 77.8973 129.868 77.8138C129.642 77.752 129.438 77.6299 129.277 77.4605C129.142 77.2871 129.168 76.9789 129.476 76.7027C129.69 76.5468 129.938 76.4442 130.2 76.4036C130.461 76.3629 130.729 76.3852 130.98 76.4687C131.231 76.5523 131.459 76.6946 131.644 76.8839C131.829 77.0731 131.967 77.3039 132.045 77.5569C132.18 77.9615 132.013 78.2312 131.801 78.289Z" fill="#EB996E"/>
<path d="M131.915 78.2182C131.838 78.276 131.453 77.486 130.528 77.2484C129.962 77.1672 129.385 77.2313 128.852 77.4347C128.852 77.4347 128.954 77.2291 129.269 77.0686C129.685 76.8612 130.161 76.811 130.611 76.9273C131.063 77.0415 131.457 77.3153 131.722 77.698C131.921 77.987 131.954 78.2053 131.915 78.2182Z" fill="#263238"/>
<path d="M125.841 59.0477C126.723 60.4385 127.102 62.0898 126.914 63.7261C126.725 65.3623 125.982 66.8845 124.807 68.0388C123.439 69.3233 121.403 70.3059 121.268 72.1684C121.114 74.2299 123.503 75.7713 123.503 77.8392C123.503 79.9072 121.057 81.3201 120.575 83.3945C120.19 85.0643 121.217 86.7341 122.347 87.9992C123.478 89.2644 124.916 90.3819 125.559 91.949C125.9 92.8319 126.058 93.7747 126.025 94.7206C125.992 95.6665 125.768 96.5959 125.366 97.4528C124.553 99.156 123.469 100.716 122.155 102.07C120.447 101.459 118.669 101.064 116.863 100.895C116.972 100.214 117.088 99.5272 117.203 98.8465C117.186 99.2444 117.043 99.6267 116.795 99.9383C116.547 100.25 116.206 100.475 115.822 100.58C115.048 100.777 114.238 100.788 113.459 100.613C111.052 100.232 108.686 99.6235 106.395 98.7951C107.419 97.8712 108.287 96.7867 108.963 95.5839C109.297 94.9756 109.477 94.2953 109.49 93.6017C109.502 92.9082 109.346 92.222 109.034 91.6021C108.469 90.6388 107.429 90.0223 106.908 89.0332C106.131 87.5561 106.773 85.6808 107.878 84.4285C108.983 83.1761 110.486 82.3605 111.802 81.3329C113.119 80.3054 114.326 78.9182 114.429 77.2484C114.57 75.0905 112.817 73.1189 113.035 70.9674C113.279 68.5141 115.874 67.0113 116.889 64.7635C117.627 63.1387 117.531 61.1349 118.661 59.7541C119.104 59.2613 119.656 58.8774 120.272 58.6324C120.888 58.3873 121.552 58.2877 122.213 58.3412C123.533 58.4559 124.804 58.8973 125.912 59.6257" fill="#043449"/>
<path d="M133.007 85.3791C131.979 85.9442 132.037 87.5177 132.667 88.5131C133.296 89.5086 134.304 90.2214 134.927 91.2233C135.454 92.138 135.638 93.2103 135.446 94.2481C135.254 95.286 134.699 96.2217 133.88 96.8878L136.347 97.819L136.886 97.5171L138.402 96.6566L137.689 98.4098H139.269C140.108 98.4271 140.935 98.209 141.657 97.7803C142.379 97.3516 142.966 96.7294 143.352 95.9842C143.739 95.2389 143.909 94.4004 143.843 93.5635C143.777 92.7266 143.479 91.9249 142.981 91.249C142.339 90.3499 141.324 89.637 141.099 88.5517C140.836 87.2351 141.831 86.047 142.313 84.8011C142.696 83.7486 142.736 82.6017 142.427 81.5251C142.118 80.4486 141.475 79.4977 140.592 78.8091" fill="#043449"/>
<g filter="url(#filter3_d_1547_120343)">
<path d="M148.853 60.9495L151.92 51.7674C148.102 47.6248 145.971 42.2038 145.947 36.5701C145.923 30.9365 148.007 25.4974 151.789 21.3221C155.571 17.1468 160.778 14.5372 166.387 14.0062C171.996 13.4752 177.6 15.0612 182.099 18.4525C186.598 21.8438 189.665 26.7951 190.699 32.3333C191.732 37.8714 190.657 43.5959 187.684 48.3814C184.711 53.167 180.056 56.6676 174.633 58.1952C169.211 59.7228 163.413 59.1669 158.379 56.6368L148.853 60.9495Z" fill="white"/>
</g>
<path d="M168.587 25.8748C170.638 25.8748 172.284 26.4461 173.526 27.5888C174.788 28.7115 175.419 30.2652 175.419 32.25C175.419 34.2146 174.798 35.7182 173.556 36.7607C172.314 37.7831 170.667 38.2944 168.616 38.2944L168.498 40.6099H164.86L164.712 35.4977H166.043C167.759 35.4977 169.08 35.2671 170.007 34.806C170.933 34.3449 171.397 33.5029 171.397 32.28C171.397 31.3979 171.14 30.6962 170.628 30.175C170.135 29.6538 169.455 29.3931 168.587 29.3931C167.68 29.3931 166.97 29.6437 166.457 30.1449C165.964 30.6461 165.718 31.3378 165.718 32.2199H161.814C161.794 30.997 162.05 29.9044 162.583 28.9421C163.115 27.9798 163.894 27.228 164.919 26.6867C165.964 26.1454 167.187 25.8748 168.587 25.8748ZM166.664 47.797C165.915 47.797 165.294 47.5665 164.801 47.1054C164.328 46.6242 164.091 46.0328 164.091 45.3311C164.091 44.6295 164.328 44.0481 164.801 43.587C165.294 43.1058 165.915 42.8653 166.664 42.8653C167.394 42.8653 167.995 43.1058 168.469 43.587C168.942 44.0481 169.178 44.6295 169.178 45.3311C169.178 46.0328 168.942 46.6242 168.469 47.1054C167.995 47.5665 167.394 47.797 166.664 47.797Z" fill="url(#paint8_linear_1547_120343)"/>
</g>
<defs>
<filter id="filter0_i_1547_120343" x="0" y="0" width="359.999" height="189.625" filterUnits="userSpaceOnUse" color-interpolation-filters="sRGB">
<feFlood flood-opacity="0" result="BackgroundImageFix"/>
<feBlend mode="normal" in="SourceGraphic" in2="BackgroundImageFix" result="shape"/>
<feColorMatrix in="SourceAlpha" type="matrix" values="0 0 0 0 0 0 0 0 0 0 0 0 0 0 0 0 0 0 127 0" result="hardAlpha"/>
<feOffset dy="4"/>
<feGaussianBlur stdDeviation="4"/>
<feComposite in2="hardAlpha" operator="arithmetic" k2="-1" k3="1"/>
<feColorMatrix type="matrix" values="0 0 0 0 0 0 0 0 0 0 0 0 0 0 0 0 0 0 0.03 0"/>
<feBlend mode="normal" in2="shape" result="effect1_innerShadow_1547_120343"/>
</filter>
<filter id="filter1_f_1547_120343" x="-476.625" y="88.124" width="871.124" height="871.124" filterUnits="userSpaceOnUse" color-interpolation-filters="sRGB">
<feFlood flood-opacity="0" result="BackgroundImageFix"/>
<feBlend mode="normal" in="SourceGraphic" in2="BackgroundImageFix" result="shape"/>
<feGaussianBlur stdDeviation="150" result="effect1_foregroundBlur_1547_120343"/>
</filter>
<filter id="filter2_f_1547_120343" x="-126.75" y="-571.125" width="1083.75" height="1083.75" filterUnits="userSpaceOnUse" color-interpolation-filters="sRGB">
<feFlood flood-opacity="0" result="BackgroundImageFix"/>
<feBlend mode="normal" in="SourceGraphic" in2="BackgroundImageFix" result="shape"/>
<feGaussianBlur stdDeviation="150" result="effect1_foregroundBlur_1547_120343"/>
</filter>
<filter id="filter3_d_1547_120343" x="134.947" y="6.90576" width="67.135" height="69.0437" filterUnits="userSpaceOnUse" color-interpolation-filters="sRGB">
<feFlood flood-opacity="0" result="BackgroundImageFix"/>
<feColorMatrix in="SourceAlpha" type="matrix" values="0 0 0 0 0 0 0 0 0 0 0 0 0 0 0 0 0 0 127 0" result="hardAlpha"/>
<feOffset dy="4"/>
<feGaussianBlur stdDeviation="5.5"/>
<feComposite in2="hardAlpha" operator="out"/>
<feColorMatrix type="matrix" values="0 0 0 0 0 0 0 0 0 0 0 0 0 0 0 0 0 0 0.05 0"/>
<feBlend mode="normal" in2="BackgroundImageFix" result="effect1_dropShadow_1547_120343"/>
<feBlend mode="normal" in="SourceGraphic" in2="effect1_dropShadow_1547_120343" result="shape"/>
</filter>
<linearGradient id="paint0_linear_1547_120343" x1="138.29" y1="8.5491" x2="418.413" y2="267.421" gradientUnits="userSpaceOnUse">
<stop stop-color="#0976F6"/>
<stop offset="1" stop-color="#003AC2"/>
</linearGradient>
<linearGradient id="paint1_linear_1547_120343" x1="-96.3064" y1="-87.3059" x2="75.4984" y2="71.4649" gradientUnits="userSpaceOnUse">
<stop stop-color="#0976F6"/>
<stop offset="1" stop-color="#003AC2"/>
</linearGradient>
<linearGradient id="paint2_linear_1547_120343" x1="222.51" y1="84.8516" x2="388.889" y2="238.609" gradientUnits="userSpaceOnUse">
<stop stop-color="#0976F6"/>
<stop offset="1" stop-color="#003AC2"/>
</linearGradient>
<linearGradient id="paint3_linear_1547_120343" x1="-64.0096" y1="-57.9179" x2="37.3357" y2="36.7911" gradientUnits="userSpaceOnUse">
<stop stop-color="#0976F6"/>
<stop offset="1" stop-color="#003AC2"/>
</linearGradient>
<linearGradient id="paint4_linear_1547_120343" x1="-163.372" y1="365.025" x2="94.4993" y2="664.55" gradientUnits="userSpaceOnUse">
<stop stop-color="#0A7DF7"/>
<stop offset="1" stop-color="#09F6AF"/>
</linearGradient>
<linearGradient id="paint5_linear_1547_120343" x1="196.897" y1="-312.338" x2="656.999" y2="222.083" gradientUnits="userSpaceOnUse">
<stop stop-color="#0A7DF7"/>
<stop offset="1" stop-color="#09F6AF"/>
</linearGradient>
<linearGradient id="paint6_linear_1547_120343" x1="70.2268" y1="84.7006" x2="118.86" y2="200.778" gradientUnits="userSpaceOnUse">
<stop stop-color="#0976F6"/>
<stop offset="1" stop-color="#003AC2"/>
</linearGradient>
<linearGradient id="paint7_linear_1547_120343" x1="48.1609" y1="119.071" x2="99.2682" y2="253.557" gradientUnits="userSpaceOnUse">
<stop stop-color="#0976F6"/>
<stop offset="1" stop-color="#003AC2"/>
</linearGradient>
<linearGradient id="paint8_linear_1547_120343" x1="160.316" y1="24.7706" x2="179.514" y2="35.7824" gradientUnits="userSpaceOnUse">
<stop stop-color="#0976F6"/>
<stop offset="1" stop-color="#003AC2"/>
</linearGradient>
</defs>
</svg>
