<svg width="232" height="47" viewBox="0 0 232 47" fill="none" xmlns="http://www.w3.org/2000/svg">
<g filter="url(#filter0_d_1586_118441)">
<rect x="12" y="8" width="208" height="23" rx="3" fill="white"/>
</g>
<path d="M140.43 18.07C140.43 18.65 140.23 19.1333 139.83 19.52C139.437 19.9 138.833 20.09 138.02 20.09H136.68V23H135.77V16.03H138.02C138.807 16.03 139.403 16.22 139.81 16.6C140.223 16.98 140.43 17.47 140.43 18.07ZM138.02 19.34C138.527 19.34 138.9 19.23 139.14 19.01C139.38 18.79 139.5 18.4767 139.5 18.07C139.5 17.21 139.007 16.78 138.02 16.78H136.68V19.34H138.02ZM141.221 20.24C141.221 19.68 141.334 19.19 141.561 18.77C141.788 18.3433 142.098 18.0133 142.491 17.78C142.891 17.5467 143.334 17.43 143.821 17.43C144.301 17.43 144.718 17.5333 145.071 17.74C145.424 17.9467 145.688 18.2067 145.861 18.52V17.52H146.781V23H145.861V21.98C145.681 22.3 145.411 22.5667 145.051 22.78C144.698 22.9867 144.284 23.09 143.811 23.09C143.324 23.09 142.884 22.97 142.491 22.73C142.098 22.49 141.788 22.1533 141.561 21.72C141.334 21.2867 141.221 20.7933 141.221 20.24ZM145.861 20.25C145.861 19.8367 145.778 19.4767 145.611 19.17C145.444 18.8633 145.218 18.63 144.931 18.47C144.651 18.3033 144.341 18.22 144.001 18.22C143.661 18.22 143.351 18.3 143.071 18.46C142.791 18.62 142.568 18.8533 142.401 19.16C142.234 19.4667 142.151 19.8267 142.151 20.24C142.151 20.66 142.234 21.0267 142.401 21.34C142.568 21.6467 142.791 21.8833 143.071 22.05C143.351 22.21 143.661 22.29 144.001 22.29C144.341 22.29 144.651 22.21 144.931 22.05C145.218 21.8833 145.444 21.6467 145.611 21.34C145.778 21.0267 145.861 20.6633 145.861 20.25ZM150.259 23.09C149.839 23.09 149.462 23.02 149.129 22.88C148.795 22.7333 148.532 22.5333 148.339 22.28C148.145 22.02 148.039 21.7233 148.019 21.39H148.959C148.985 21.6633 149.112 21.8867 149.339 22.06C149.572 22.2333 149.875 22.32 150.249 22.32C150.595 22.32 150.869 22.2433 151.069 22.09C151.269 21.9367 151.369 21.7433 151.369 21.51C151.369 21.27 151.262 21.0933 151.049 20.98C150.835 20.86 150.505 20.7433 150.059 20.63C149.652 20.5233 149.319 20.4167 149.059 20.31C148.805 20.1967 148.585 20.0333 148.399 19.82C148.219 19.6 148.129 19.3133 148.129 18.96C148.129 18.68 148.212 18.4233 148.379 18.19C148.545 17.9567 148.782 17.7733 149.089 17.64C149.395 17.5 149.745 17.43 150.139 17.43C150.745 17.43 151.235 17.5833 151.609 17.89C151.982 18.1967 152.182 18.6167 152.209 19.15H151.299C151.279 18.8633 151.162 18.6333 150.949 18.46C150.742 18.2867 150.462 18.2 150.109 18.2C149.782 18.2 149.522 18.27 149.329 18.41C149.135 18.55 149.039 18.7333 149.039 18.96C149.039 19.14 149.095 19.29 149.209 19.41C149.329 19.5233 149.475 19.6167 149.649 19.69C149.829 19.7567 150.075 19.8333 150.389 19.92C150.782 20.0267 151.102 20.1333 151.349 20.24C151.595 20.34 151.805 20.4933 151.979 20.7C152.159 20.9067 152.252 21.1767 152.259 21.51C152.259 21.81 152.175 22.08 152.009 22.32C151.842 22.56 151.605 22.75 151.299 22.89C150.999 23.0233 150.652 23.09 150.259 23.09ZM155.483 23.09C155.063 23.09 154.687 23.02 154.353 22.88C154.02 22.7333 153.757 22.5333 153.563 22.28C153.37 22.02 153.263 21.7233 153.243 21.39H154.183C154.21 21.6633 154.337 21.8867 154.563 22.06C154.797 22.2333 155.1 22.32 155.473 22.32C155.82 22.32 156.093 22.2433 156.293 22.09C156.493 21.9367 156.593 21.7433 156.593 21.51C156.593 21.27 156.487 21.0933 156.273 20.98C156.06 20.86 155.73 20.7433 155.283 20.63C154.877 20.5233 154.543 20.4167 154.283 20.31C154.03 20.1967 153.81 20.0333 153.623 19.82C153.443 19.6 153.353 19.3133 153.353 18.96C153.353 18.68 153.437 18.4233 153.603 18.19C153.77 17.9567 154.007 17.7733 154.313 17.64C154.62 17.5 154.97 17.43 155.363 17.43C155.97 17.43 156.46 17.5833 156.833 17.89C157.207 18.1967 157.407 18.6167 157.433 19.15H156.523C156.503 18.8633 156.387 18.6333 156.173 18.46C155.967 18.2867 155.687 18.2 155.333 18.2C155.007 18.2 154.747 18.27 154.553 18.41C154.36 18.55 154.263 18.7333 154.263 18.96C154.263 19.14 154.32 19.29 154.433 19.41C154.553 19.5233 154.7 19.6167 154.873 19.69C155.053 19.7567 155.3 19.8333 155.613 19.92C156.007 20.0267 156.327 20.1333 156.573 20.24C156.82 20.34 157.03 20.4933 157.203 20.7C157.383 20.9067 157.477 21.1767 157.483 21.51C157.483 21.81 157.4 22.08 157.233 22.32C157.067 22.56 156.83 22.75 156.523 22.89C156.223 23.0233 155.877 23.09 155.483 23.09ZM158.428 20.25C158.428 19.6833 158.541 19.19 158.768 18.77C158.995 18.3433 159.308 18.0133 159.708 17.78C160.115 17.5467 160.578 17.43 161.098 17.43C161.771 17.43 162.325 17.5933 162.758 17.92C163.198 18.2467 163.488 18.7 163.628 19.28H162.648C162.555 18.9467 162.371 18.6833 162.098 18.49C161.831 18.2967 161.498 18.2 161.098 18.2C160.578 18.2 160.158 18.38 159.838 18.74C159.518 19.0933 159.358 19.5967 159.358 20.25C159.358 20.91 159.518 21.42 159.838 21.78C160.158 22.14 160.578 22.32 161.098 22.32C161.498 22.32 161.831 22.2267 162.098 22.04C162.365 21.8533 162.548 21.5867 162.648 21.24H163.628C163.481 21.8 163.188 22.25 162.748 22.59C162.308 22.9233 161.758 23.09 161.098 23.09C160.578 23.09 160.115 22.9733 159.708 22.74C159.308 22.5067 158.995 22.1767 158.768 21.75C158.541 21.3233 158.428 20.8233 158.428 20.25ZM167.232 23.09C166.719 23.09 166.252 22.9733 165.832 22.74C165.419 22.5067 165.092 22.1767 164.852 21.75C164.619 21.3167 164.502 20.8167 164.502 20.25C164.502 19.69 164.622 19.1967 164.862 18.77C165.109 18.3367 165.442 18.0067 165.862 17.78C166.282 17.5467 166.752 17.43 167.272 17.43C167.792 17.43 168.262 17.5467 168.682 17.78C169.102 18.0067 169.432 18.3333 169.672 18.76C169.919 19.1867 170.042 19.6833 170.042 20.25C170.042 20.8167 169.916 21.3167 169.662 21.75C169.416 22.1767 169.079 22.5067 168.652 22.74C168.226 22.9733 167.752 23.09 167.232 23.09ZM167.232 22.29C167.559 22.29 167.866 22.2133 168.152 22.06C168.439 21.9067 168.669 21.6767 168.842 21.37C169.022 21.0633 169.112 20.69 169.112 20.25C169.112 19.81 169.026 19.4367 168.852 19.13C168.679 18.8233 168.452 18.5967 168.172 18.45C167.892 18.2967 167.589 18.22 167.262 18.22C166.929 18.22 166.622 18.2967 166.342 18.45C166.069 18.5967 165.849 18.8233 165.682 19.13C165.516 19.4367 165.432 19.81 165.432 20.25C165.432 20.6967 165.512 21.0733 165.672 21.38C165.839 21.6867 166.059 21.9167 166.332 22.07C166.606 22.2167 166.906 22.29 167.232 22.29ZM170.899 20.24C170.899 19.68 171.012 19.19 171.239 18.77C171.465 18.3433 171.775 18.0133 172.169 17.78C172.569 17.5467 173.015 17.43 173.509 17.43C173.935 17.43 174.332 17.53 174.699 17.73C175.065 17.9233 175.345 18.18 175.539 18.5V15.6H176.459V23H175.539V21.97C175.359 22.2967 175.092 22.5667 174.739 22.78C174.385 22.9867 173.972 23.09 173.499 23.09C173.012 23.09 172.569 22.97 172.169 22.73C171.775 22.49 171.465 22.1533 171.239 21.72C171.012 21.2867 170.899 20.7933 170.899 20.24ZM175.539 20.25C175.539 19.8367 175.455 19.4767 175.289 19.17C175.122 18.8633 174.895 18.63 174.609 18.47C174.329 18.3033 174.019 18.22 173.679 18.22C173.339 18.22 173.029 18.3 172.749 18.46C172.469 18.62 172.245 18.8533 172.079 19.16C171.912 19.4667 171.829 19.8267 171.829 20.24C171.829 20.66 171.912 21.0267 172.079 21.34C172.245 21.6467 172.469 21.8833 172.749 22.05C173.029 22.21 173.339 22.29 173.679 22.29C174.019 22.29 174.329 22.21 174.609 22.05C174.895 21.8833 175.122 21.6467 175.289 21.34C175.455 21.0267 175.539 20.6633 175.539 20.25ZM182.997 20.05C182.997 20.2233 182.987 20.4067 182.967 20.6H178.587C178.62 21.14 178.803 21.5633 179.137 21.87C179.477 22.17 179.887 22.32 180.367 22.32C180.76 22.32 181.087 22.23 181.347 22.05C181.613 21.8633 181.8 21.6167 181.907 21.31H182.887C182.74 21.8367 182.447 22.2667 182.007 22.6C181.567 22.9267 181.02 23.09 180.367 23.09C179.847 23.09 179.38 22.9733 178.967 22.74C178.56 22.5067 178.24 22.1767 178.007 21.75C177.773 21.3167 177.657 20.8167 177.657 20.25C177.657 19.6833 177.77 19.1867 177.997 18.76C178.223 18.3333 178.54 18.0067 178.947 17.78C179.36 17.5467 179.833 17.43 180.367 17.43C180.887 17.43 181.347 17.5433 181.747 17.77C182.147 17.9967 182.453 18.31 182.667 18.71C182.887 19.1033 182.997 19.55 182.997 20.05ZM182.057 19.86C182.057 19.5133 181.98 19.2167 181.827 18.97C181.673 18.7167 181.463 18.5267 181.197 18.4C180.937 18.2667 180.647 18.2 180.327 18.2C179.867 18.2 179.473 18.3467 179.147 18.64C178.827 18.9333 178.643 19.34 178.597 19.86H182.057ZM184.488 23.06C184.314 23.06 184.168 23 184.048 22.88C183.928 22.76 183.868 22.6133 183.868 22.44C183.868 22.2667 183.928 22.12 184.048 22C184.168 21.88 184.314 21.82 184.488 21.82C184.654 21.82 184.794 21.88 184.908 22C185.028 22.12 185.088 22.2667 185.088 22.44C185.088 22.6133 185.028 22.76 184.908 22.88C184.794 23 184.654 23.06 184.488 23.06ZM184.488 18.78C184.314 18.78 184.168 18.72 184.048 18.6C183.928 18.48 183.868 18.3333 183.868 18.16C183.868 17.9867 183.928 17.84 184.048 17.72C184.168 17.6 184.314 17.54 184.488 17.54C184.654 17.54 184.794 17.6 184.908 17.72C185.028 17.84 185.088 17.9867 185.088 18.16C185.088 18.3333 185.028 18.48 184.908 18.6C184.794 18.72 184.654 18.78 184.488 18.78Z" fill="#043449"/>
<rect x="190" y="11.5" width="26" height="16" rx="2.5" fill="#F70C0C"/>
<path d="M197.541 23.07C196.881 23.07 196.274 22.9167 195.721 22.61C195.174 22.3033 194.737 21.8767 194.411 21.33C194.091 20.7767 193.931 20.1567 193.931 19.47C193.931 18.7833 194.091 18.1667 194.411 17.62C194.737 17.0733 195.174 16.6467 195.721 16.34C196.274 16.0333 196.881 15.88 197.541 15.88C198.201 15.88 198.804 16.0333 199.351 16.34C199.904 16.6467 200.337 17.0733 200.651 17.62C200.971 18.1667 201.131 18.7833 201.131 19.47C201.131 20.1567 200.971 20.7767 200.651 21.33C200.331 21.8767 199.897 22.3033 199.351 22.61C198.804 22.9167 198.201 23.07 197.541 23.07ZM197.541 21.51C198.101 21.51 198.547 21.3233 198.881 20.95C199.221 20.5767 199.391 20.0833 199.391 19.47C199.391 18.85 199.221 18.3567 198.881 17.99C198.547 17.6167 198.101 17.43 197.541 17.43C196.974 17.43 196.521 17.6133 196.181 17.98C195.847 18.3467 195.681 18.8433 195.681 19.47C195.681 20.09 195.847 20.5867 196.181 20.96C196.521 21.3267 196.974 21.51 197.541 21.51ZM206.652 15.98V17.35H203.792V18.83H205.932V20.16H203.792V23H202.082V15.98H206.652ZM212.121 15.98V17.35H209.261V18.83H211.401V20.16H209.261V23H207.551V15.98H212.121Z" fill="white"/>
<rect x="190" y="11.5" width="26" height="16" rx="2.5" stroke="white"/>
<path d="M125 14V26" stroke="#E3E3E3"/>
<path d="M36.09 17.15V18.9H38.44V20.01H36.09V21.86H38.74V23H34.69V16.01H38.74V17.15H36.09ZM43.0723 23L41.9323 21.28L40.9223 23H39.4223L41.2323 20.22L39.4023 17.46H40.9823L42.1123 19.17L43.1323 17.46H44.6323L42.8123 20.22L44.6523 23H43.0723ZM50.5627 20.11C50.5627 20.31 50.5493 20.49 50.5227 20.65H46.4727C46.506 21.05 46.646 21.3633 46.8927 21.59C47.1393 21.8167 47.4427 21.93 47.8027 21.93C48.3227 21.93 48.6927 21.7067 48.9127 21.26H50.4227C50.2627 21.7933 49.956 22.2333 49.5027 22.58C49.0493 22.92 48.4927 23.09 47.8327 23.09C47.2993 23.09 46.8193 22.9733 46.3927 22.74C45.9727 22.5 45.6427 22.1633 45.4027 21.73C45.1693 21.2967 45.0527 20.7967 45.0527 20.23C45.0527 19.6567 45.1693 19.1533 45.4027 18.72C45.636 18.2867 45.9627 17.9533 46.3827 17.72C46.8027 17.4867 47.286 17.37 47.8327 17.37C48.3593 17.37 48.8293 17.4833 49.2427 17.71C49.6627 17.9367 49.986 18.26 50.2127 18.68C50.446 19.0933 50.5627 19.57 50.5627 20.11ZM49.1127 19.71C49.106 19.35 48.976 19.0633 48.7227 18.85C48.4693 18.63 48.1593 18.52 47.7927 18.52C47.446 18.52 47.1527 18.6267 46.9127 18.84C46.6793 19.0467 46.536 19.3367 46.4827 19.71H49.1127ZM51.2245 20.23C51.2245 19.6567 51.3412 19.1567 51.5745 18.73C51.8079 18.2967 52.1312 17.9633 52.5445 17.73C52.9579 17.49 53.4312 17.37 53.9645 17.37C54.6512 17.37 55.2179 17.5433 55.6645 17.89C56.1179 18.23 56.4212 18.71 56.5745 19.33H55.0645C54.9845 19.09 54.8479 18.9033 54.6545 18.77C54.4679 18.63 54.2345 18.56 53.9545 18.56C53.5545 18.56 53.2379 18.7067 53.0045 19C52.7712 19.2867 52.6545 19.6967 52.6545 20.23C52.6545 20.7567 52.7712 21.1667 53.0045 21.46C53.2379 21.7467 53.5545 21.89 53.9545 21.89C54.5212 21.89 54.8912 21.6367 55.0645 21.13H56.5745C56.4212 21.73 56.1179 22.2067 55.6645 22.56C55.2112 22.9133 54.6445 23.09 53.9645 23.09C53.4312 23.09 52.9579 22.9733 52.5445 22.74C52.1312 22.5 51.8079 22.1667 51.5745 21.74C51.3412 21.3067 51.2245 20.8033 51.2245 20.23ZM62.8302 17.46V23H61.4202V22.3C61.2402 22.54 61.0035 22.73 60.7102 22.87C60.4235 23.0033 60.1102 23.07 59.7702 23.07C59.3368 23.07 58.9535 22.98 58.6202 22.8C58.2868 22.6133 58.0235 22.3433 57.8302 21.99C57.6435 21.63 57.5502 21.2033 57.5502 20.71V17.46H58.9502V20.51C58.9502 20.95 59.0602 21.29 59.2802 21.53C59.5002 21.7633 59.8002 21.88 60.1802 21.88C60.5668 21.88 60.8702 21.7633 61.0902 21.53C61.3102 21.29 61.4202 20.95 61.4202 20.51V17.46H62.8302ZM65.8415 18.61V21.29C65.8415 21.4767 65.8848 21.6133 65.9715 21.7C66.0648 21.78 66.2182 21.82 66.4315 21.82H67.0815V23H66.2015C65.0215 23 64.4315 22.4267 64.4315 21.28V18.61H63.7715V17.46H64.4315V16.09H65.8415V17.46H67.0815V18.61H65.8415ZM68.7984 16.8C68.5518 16.8 68.3451 16.7233 68.1784 16.57C68.0184 16.41 67.9384 16.2133 67.9384 15.98C67.9384 15.7467 68.0184 15.5533 68.1784 15.4C68.3451 15.24 68.5518 15.16 68.7984 15.16C69.0451 15.16 69.2484 15.24 69.4084 15.4C69.5751 15.5533 69.6584 15.7467 69.6584 15.98C69.6584 16.2133 69.5751 16.41 69.4084 16.57C69.2484 16.7233 69.0451 16.8 68.7984 16.8ZM69.4884 17.46V23H68.0884V17.46H69.4884ZM73.1816 21.71L74.5816 17.46H76.0716L74.0216 23H72.3216L70.2816 17.46H71.7816L73.1816 21.71ZM82.008 20.11C82.008 20.31 81.9946 20.49 81.968 20.65H77.918C77.9513 21.05 78.0913 21.3633 78.338 21.59C78.5846 21.8167 78.888 21.93 79.248 21.93C79.768 21.93 80.138 21.7067 80.358 21.26H81.868C81.708 21.7933 81.4013 22.2333 80.948 22.58C80.4946 22.92 79.938 23.09 79.278 23.09C78.7446 23.09 78.2646 22.9733 77.838 22.74C77.418 22.5 77.088 22.1633 76.848 21.73C76.6146 21.2967 76.498 20.7967 76.498 20.23C76.498 19.6567 76.6146 19.1533 76.848 18.72C77.0813 18.2867 77.408 17.9533 77.828 17.72C78.248 17.4867 78.7313 17.37 79.278 17.37C79.8046 17.37 80.2746 17.4833 80.688 17.71C81.108 17.9367 81.4313 18.26 81.658 18.68C81.8913 19.0933 82.008 19.57 82.008 20.11ZM80.558 19.71C80.5513 19.35 80.4213 19.0633 80.168 18.85C79.9146 18.63 79.6046 18.52 79.238 18.52C78.8913 18.52 78.598 18.6267 78.358 18.84C78.1246 19.0467 77.9813 19.3367 77.928 19.71H80.558ZM89.0127 23L87.4727 20.28H86.8127V23H85.4127V16.02H88.0327C88.5727 16.02 89.0327 16.1167 89.4127 16.31C89.7927 16.4967 90.076 16.7533 90.2627 17.08C90.456 17.4 90.5527 17.76 90.5527 18.16C90.5527 18.62 90.4193 19.0367 90.1527 19.41C89.886 19.7767 89.4893 20.03 88.9627 20.17L90.6327 23H89.0127ZM86.8127 19.23H87.9827C88.3627 19.23 88.646 19.14 88.8327 18.96C89.0193 18.7733 89.1127 18.5167 89.1127 18.19C89.1127 17.87 89.0193 17.6233 88.8327 17.45C88.646 17.27 88.3627 17.18 87.9827 17.18H86.8127V19.23ZM94.2789 23.09C93.7456 23.09 93.2656 22.9733 92.8389 22.74C92.4122 22.5 92.0756 22.1633 91.8289 21.73C91.5889 21.2967 91.4689 20.7967 91.4689 20.23C91.4689 19.6633 91.5922 19.1633 91.8389 18.73C92.0922 18.2967 92.4356 17.9633 92.8689 17.73C93.3022 17.49 93.7856 17.37 94.3189 17.37C94.8522 17.37 95.3356 17.49 95.7689 17.73C96.2022 17.9633 96.5422 18.2967 96.7889 18.73C97.0422 19.1633 97.1689 19.6633 97.1689 20.23C97.1689 20.7967 97.0389 21.2967 96.7789 21.73C96.5256 22.1633 96.1789 22.5 95.7389 22.74C95.3056 22.9733 94.8189 23.09 94.2789 23.09ZM94.2789 21.87C94.5322 21.87 94.7689 21.81 94.9889 21.69C95.2156 21.5633 95.3956 21.3767 95.5289 21.13C95.6622 20.8833 95.7289 20.5833 95.7289 20.23C95.7289 19.7033 95.5889 19.3 95.3089 19.02C95.0356 18.7333 94.6989 18.59 94.2989 18.59C93.8989 18.59 93.5622 18.7333 93.2889 19.02C93.0222 19.3 92.8889 19.7033 92.8889 20.23C92.8889 20.7567 93.0189 21.1633 93.2789 21.45C93.5456 21.73 93.8789 21.87 94.2789 21.87ZM103.496 17.46L100.066 25.62H98.5759L99.7759 22.86L97.5559 17.46H99.1259L100.556 21.33L102.006 17.46H103.496ZM103.891 20.21C103.891 19.65 104.001 19.1533 104.221 18.72C104.447 18.2867 104.751 17.9533 105.131 17.72C105.517 17.4867 105.947 17.37 106.421 17.37C106.834 17.37 107.194 17.4533 107.501 17.62C107.814 17.7867 108.064 17.9967 108.251 18.25V17.46H109.661V23H108.251V22.19C108.071 22.45 107.821 22.6667 107.501 22.84C107.187 23.0067 106.824 23.09 106.411 23.09C105.944 23.09 105.517 22.97 105.131 22.73C104.751 22.49 104.447 22.1533 104.221 21.72C104.001 21.28 103.891 20.7767 103.891 20.21ZM108.251 20.23C108.251 19.89 108.184 19.6 108.051 19.36C107.917 19.1133 107.737 18.9267 107.511 18.8C107.284 18.6667 107.041 18.6 106.781 18.6C106.521 18.6 106.281 18.6633 106.061 18.79C105.841 18.9167 105.661 19.1033 105.521 19.35C105.387 19.59 105.321 19.8767 105.321 20.21C105.321 20.5433 105.387 20.8367 105.521 21.09C105.661 21.3367 105.841 21.5267 106.061 21.66C106.287 21.7933 106.527 21.86 106.781 21.86C107.041 21.86 107.284 21.7967 107.511 21.67C107.737 21.5367 107.917 21.35 108.051 21.11C108.184 20.8633 108.251 20.57 108.251 20.23ZM112.428 15.6V23H111.028V15.6H112.428Z" fill="#003AC2"/>
<path d="M23.5 15.417L25.6667 18.667L28.375 16.5003L27.2917 22.7503H19.7084L18.625 16.5003L21.3333 18.667L23.5 15.417Z" stroke="#003AC2" stroke-linecap="round" stroke-linejoin="round"/>
<path d="M24.5 15.0002C24.5 15.5525 24.0523 16.0002 23.5 16.0002C22.9477 16.0002 22.5 15.5525 22.5 15.0002C22.5 14.448 22.9477 14.0002 23.5 14.0002C24.0523 14.0002 24.5 14.448 24.5 15.0002Z" fill="#003AC2"/>
<path d="M19.5 16.5C19.5 17.0523 19.0523 17.5 18.5 17.5C17.9477 17.5 17.5 17.0523 17.5 16.5C17.5 15.9477 17.9477 15.5 18.5 15.5C19.0523 15.5 19.5 15.9477 19.5 16.5Z" fill="#003AC2"/>
<path d="M29.5 16.5C29.5 17.0523 29.0523 17.5 28.5 17.5C27.9477 17.5 27.5 17.0523 27.5 16.5C27.5 15.9477 27.9477 15.5 28.5 15.5C29.0523 15.5 29.5 15.9477 29.5 16.5Z" fill="#003AC2"/>
<path d="M20 24.0005C19.7239 24.0005 19.5 24.2243 19.5 24.5005C19.5 24.7766 19.7239 25.0005 20 25.0005V24.0005ZM27 25.0005C27.2761 25.0005 27.5 24.7766 27.5 24.5005C27.5 24.2243 27.2761 24.0005 27 24.0005V25.0005ZM20 25.0005H27V24.0005H20V25.0005Z" fill="#003AC2"/>
<defs>
<filter id="filter0_d_1586_118441" x="0" y="0" width="232" height="47" filterUnits="userSpaceOnUse" color-interpolation-filters="sRGB">
<feFlood flood-opacity="0" result="BackgroundImageFix"/>
<feColorMatrix in="SourceAlpha" type="matrix" values="0 0 0 0 0 0 0 0 0 0 0 0 0 0 0 0 0 0 127 0" result="hardAlpha"/>
<feOffset dy="4"/>
<feGaussianBlur stdDeviation="6"/>
<feComposite in2="hardAlpha" operator="out"/>
<feColorMatrix type="matrix" values="0 0 0 0 0 0 0 0 0 0 0 0 0 0 0 0 0 0 0.03 0"/>
<feBlend mode="normal" in2="BackgroundImageFix" result="effect1_dropShadow_1586_118441"/>
<feBlend mode="normal" in="SourceGraphic" in2="effect1_dropShadow_1586_118441" result="shape"/>
</filter>
</defs>
</svg>
