<svg width="254" height="185" viewBox="0 0 254 185" fill="none" xmlns="http://www.w3.org/2000/svg">
<mask id="mask0_1547_120855" style="mask-type:alpha" maskUnits="userSpaceOnUse" x="0" y="0" width="254" height="184">
<rect x="0.660156" y="0.5" width="252.681" height="183.032" fill="#C4C4C4"/>
</mask>
<g mask="url(#mask0_1547_120855)">
<circle opacity="0.07" cx="126.19" cy="122.791" r="123.101" fill="url(#paint0_linear_1547_120855)"/>
<circle opacity="0.07" cx="140.073" cy="135.595" r="73.1158" fill="url(#paint1_linear_1547_120855)"/>
</g>
<path d="M235.959 183.765C235.959 183.907 187.416 184.011 127.548 184.011C67.6801 184.011 19.1321 183.907 19.1321 183.765C19.1321 183.623 67.6602 183.519 127.548 183.519C187.436 183.519 235.959 183.613 235.959 183.765Z" fill="#043449"/>
<path d="M51.8172 80.1081C44.7012 69.2221 45.7384 53.6785 54.2357 43.8397C56.8737 40.7828 60.5589 38.1299 64.5782 38.474C68.6972 38.8231 72.0134 42.3537 73.265 46.2932C74.5167 50.2327 74.0829 54.4963 73.3498 58.5605C72.3176 64.2553 70.5922 70.0798 66.6427 74.3085C62.6932 78.5372 56.8937 82.8857 51.8172 80.1081Z" fill="url(#paint2_linear_1547_120855)"/>
<path d="M55.7516 132.469C53.0688 126.215 55.0136 118.301 60.2845 114.018C61.9202 112.681 64.0595 111.649 66.099 112.188C68.1386 112.726 69.5897 114.865 69.864 117.005C70.1383 119.144 69.5448 121.308 68.7968 123.333C67.7496 126.175 66.3334 129.018 63.9148 130.838C61.4963 132.658 58.1153 134.374 55.7516 132.484" fill="url(#paint3_linear_1547_120855)"/>
<path d="M38.6012 128.753C40.5609 119.104 35.4745 108.463 26.7427 103.92C24.03 102.508 20.6939 101.676 17.9611 103.042C15.2284 104.408 13.8222 107.854 14.0416 110.976C14.261 114.098 15.767 116.96 17.4226 119.628C19.7414 123.348 22.5838 126.958 26.5483 128.828C30.5127 130.698 35.8086 132.124 38.6012 128.753Z" fill="url(#paint4_linear_1547_120855)"/>
<path d="M39.8289 102.668C43.2348 91.6722 37.4552 78.3477 27.8309 72.0395C24.8389 70.0848 21.0589 68.7184 17.7228 69.99C14.3069 71.2915 12.3422 75.1064 12.2374 78.7616C12.1327 82.4169 13.539 85.9425 15.1547 89.2337C17.4186 93.8265 20.3009 98.3644 24.6942 101.002C29.0875 103.64 36.1886 106.273 39.8339 102.678" fill="url(#paint5_linear_1547_120855)"/>
<path d="M46.6651 156.405C46.6118 156.231 46.5751 156.052 46.5554 155.871C46.4956 155.472 46.4208 154.964 46.326 154.336C46.2812 154.001 46.2313 153.627 46.1714 153.228C46.1116 152.83 46.0119 152.386 45.9221 151.922C45.7426 150.984 45.5581 149.927 45.2489 148.75C45.1093 148.167 44.9597 147.554 44.8051 146.92C44.6505 146.287 44.4311 145.634 44.2316 144.956C43.8676 143.594 43.324 142.183 42.8154 140.677C41.5976 137.455 40.1803 134.312 38.5717 131.267C36.9258 128.244 35.0938 125.326 33.0863 122.53C32.089 121.274 31.2362 120.037 30.3037 118.985L28.9773 117.409L27.6957 116.013C26.8928 115.115 26.1049 114.367 25.4217 113.704L24.4743 112.771L23.6415 112.023L22.4846 111.026C22.3397 110.914 22.2106 110.783 22.1006 110.637C22.2563 110.728 22.4033 110.833 22.5394 110.951L23.7512 111.948L24.6388 112.622L25.6362 113.529C26.3393 114.178 27.1322 114.916 27.965 115.803L29.2765 117.17L30.6229 118.725C31.5753 119.783 32.468 121.009 33.4553 122.266C35.5019 125.064 37.361 127.994 39.0205 131.038C40.6366 134.1 42.0509 137.265 43.2542 140.512C43.7529 142.008 44.2865 143.45 44.6355 144.831C44.83 145.509 45.0145 146.172 45.1891 146.826C45.3636 147.479 45.4733 148.087 45.6079 148.676C45.8922 149.852 46.0567 150.93 46.2113 151.877C46.2911 152.346 46.3609 152.79 46.4258 153.199C46.4906 153.607 46.5056 153.971 46.5405 154.316C46.6003 154.944 46.6452 155.458 46.6851 155.861C46.7014 156.043 46.6947 156.225 46.6651 156.405Z" fill="#263238"/>
<path d="M46.417 158.369C46.4038 158.297 46.4038 158.223 46.417 158.15C46.417 157.975 46.4469 157.771 46.4619 157.512C46.5217 156.913 46.5965 156.1 46.6913 155.068C46.7411 154.535 46.801 153.946 46.8658 153.308C46.9306 152.67 46.9306 151.957 46.9705 151.204C47.0254 149.708 47.17 147.977 47.1152 146.072C47.1152 145.121 47.1152 144.124 47.1152 143.08C47.1152 142.043 47.0104 140.966 46.9556 139.854C46.8808 137.615 46.5766 135.246 46.3073 132.743C45.5745 127.34 44.4478 121.999 42.9363 116.76C41.3442 111.552 39.3708 106.469 37.032 101.551C35.895 99.3068 34.8578 97.1525 33.7009 95.2376C33.1374 94.2702 32.6337 93.3178 32.0752 92.4401C31.5167 91.5624 30.9782 90.7297 30.4595 89.9467C29.4622 88.3211 28.41 86.9547 27.5423 85.723C27.0985 85.1146 26.6996 84.5312 26.3056 84.0175L25.1986 82.6013L23.7025 80.6764L23.3186 80.1778C23.2338 80.0631 23.1889 79.9982 23.1989 79.9933C23.2089 79.9883 23.2537 80.0381 23.3535 80.1478L23.7773 80.6465L25.3631 82.5165L26.5051 83.8779C26.909 84.3766 27.3179 84.96 27.7767 85.5634C28.6693 86.7901 29.7464 88.1415 30.7687 89.7572C31.2973 90.5551 31.8458 91.3929 32.4143 92.2506C32.9828 93.1083 33.4964 94.0807 34.0699 95.0432C35.2468 96.9581 36.304 99.1173 37.4559 101.361C39.8223 106.304 41.8111 111.418 43.405 116.661C44.9257 121.922 46.0459 127.292 46.7561 132.723C47.0104 135.216 47.3046 137.615 47.3595 139.859C47.4044 140.981 47.4941 142.063 47.4941 143.105C47.4941 144.147 47.4941 145.145 47.4941 146.097C47.5291 148.002 47.3595 149.727 47.2797 151.238C47.2249 151.996 47.1949 152.7 47.1351 153.348C47.0753 153.996 46.9855 154.575 46.9207 155.108C46.786 156.135 46.6813 156.948 46.6065 157.542C46.5716 157.796 46.5417 158.005 46.5167 158.175C46.4942 158.245 46.4606 158.31 46.417 158.369Z" fill="#263238"/>
<path d="M64.937 51.6191C64.937 51.6191 64.9121 51.6939 64.8473 51.8236C64.7824 51.9533 64.6627 52.1627 64.5381 52.3921L63.3263 54.5663C63.062 55.035 62.7478 55.5636 62.4486 56.1321L61.4962 58.047C61.1637 58.7352 60.798 59.4666 60.3991 60.2412C60.0301 61.0291 59.676 61.8818 59.2821 62.7595C58.8881 63.6371 58.4742 64.5646 58.0803 65.542L56.8984 68.6039C56.694 69.1325 56.4895 69.671 56.2801 70.2196L55.7066 71.9151C55.3176 73.057 54.9237 74.2389 54.5148 75.4457C53.0188 80.3227 51.5776 85.7532 50.3708 91.5178C49.164 97.2825 48.3761 102.853 47.7777 107.924C47.2791 113.001 46.8751 117.588 46.7804 121.448C46.6807 123.378 46.6607 125.123 46.6557 126.659C46.6507 128.195 46.6258 129.517 46.6557 130.594C46.6856 131.671 46.6856 132.479 46.6906 133.087V133.735C46.7026 133.81 46.7026 133.885 46.6906 133.96C46.6744 133.888 46.6644 133.814 46.6607 133.74C46.6607 133.566 46.6607 133.356 46.6158 133.092C46.6158 132.489 46.546 131.656 46.4962 130.599C46.4463 129.542 46.4114 128.195 46.4114 126.659C46.4114 125.123 46.4114 123.373 46.4662 121.438C46.5311 117.568 46.8801 112.961 47.3738 107.874C47.9573 102.793 48.7701 97.2176 49.937 91.4181C51.1039 85.6185 52.5949 80.193 54.1308 75.311L55.3426 71.7704C55.542 71.202 55.7365 70.6335 55.926 70.08C56.1155 69.5264 56.3549 68.9928 56.5643 68.4643C56.9832 67.4021 57.3821 66.3798 57.7711 65.3974C58.1601 64.415 58.6139 63.5075 59.0078 62.6198C59.4018 61.7322 59.7758 60.8944 60.1548 60.1265C60.5337 59.3585 60.9327 58.6305 61.2867 57.9373L62.2841 56.0374C62.5982 55.4589 62.9224 54.9503 63.1967 54.4865L64.4882 52.3522L64.8373 51.8086C64.8619 51.7413 64.8955 51.6776 64.937 51.6191Z" fill="#263238"/>
<path d="M62.538 118.391C62.3239 118.853 62.0721 119.297 61.785 119.718C61.2863 120.55 60.5483 121.777 59.7105 123.318C58.8727 124.859 57.9502 126.729 57.0177 128.848C56.0259 131.156 55.1521 133.513 54.3997 135.909C53.6659 138.312 53.0535 140.751 52.5646 143.215C52.1357 145.489 51.8365 147.558 51.6669 149.299C51.4974 151.039 51.3877 152.46 51.3478 153.443C51.3483 153.952 51.3066 154.461 51.2231 154.964C51.1657 154.457 51.1474 153.947 51.1683 153.438C51.1683 152.44 51.2032 151.024 51.3428 149.269C51.5052 147.212 51.7715 145.165 52.1407 143.135C52.6029 140.648 53.2039 138.189 53.9409 135.77C54.6989 133.357 55.5896 130.988 56.6088 128.674C57.4483 126.79 58.382 124.949 59.4063 123.158C60.289 121.632 61.0469 120.426 61.6154 119.618C61.889 119.184 62.1976 118.774 62.538 118.391Z" fill="#263238"/>
<path d="M32.6926 151.493H63.9444L60.1644 183.413H36.5872L32.6926 151.493Z" fill="url(#paint6_linear_1547_120855)"/>
<path d="M33.8352 179.967L36.4881 183.413H60.165L62.8978 180.082L33.8352 179.967Z" fill="#043449"/>
<path d="M62.7279 160.893C62.7279 161.022 56.2451 161.127 48.2664 161.127C40.2877 161.127 33.8049 161.022 33.8049 160.893C33.8049 160.763 40.2877 160.658 48.2913 160.658C56.295 160.658 62.7279 160.753 62.7279 160.893Z" fill="#FAFAFA"/>
<path d="M62.7279 163.007C62.7279 163.137 56.2451 163.241 48.2664 163.241C40.2877 163.241 33.8049 163.137 33.8049 163.007C33.8049 162.877 40.2877 162.773 48.2913 162.773C56.295 162.773 62.7279 162.887 62.7279 163.007Z" fill="#FAFAFA"/>
<path d="M62.3394 165.067C62.3394 165.196 56.0811 165.296 48.3766 165.296C40.6721 165.296 34.4138 165.196 34.4138 165.067C34.4138 164.937 40.6721 164.832 48.3766 164.832C56.0811 164.832 62.3394 164.937 62.3394 165.067Z" fill="#FAFAFA"/>
<path d="M150.694 40.8776C149.383 44.1438 149.422 50.8959 151.602 53.6535C152.739 55.0947 154.284 56.2466 155.092 57.8972C156.149 60.0614 155.696 62.7543 154.369 64.7639C153.043 66.7736 150.953 68.1798 148.754 69.1672C146.306 70.2742 143.309 70.8826 141.025 69.4664C139.279 68.3893 138.357 66.3696 137.798 64.3949C136.233 58.8696 136.801 52.9255 138.427 47.4002C140.052 41.8749 142.7 36.7236 145.318 31.6272" fill="#043449"/>
<path d="M157.965 86.6707L169.654 79.5347C169.654 79.5347 160.778 62.4352 159.441 61.8169C158.105 61.1985 140.187 58.5605 140.187 58.5605C134.737 67.1277 127.915 65.0134 121.038 59.2986C120.425 59.4233 109.604 61.8867 106.776 62.2557C103.949 62.6247 95.8057 75.6002 95.8057 75.6002L105.041 91.7521L105.739 108.488C105.739 108.488 106.238 120.391 104.288 126.534L153.297 128.125C152.762 125.573 152.385 122.99 152.17 120.391C151.986 118.311 151.422 116.237 151.846 113.564C153.188 105.077 157.965 86.6707 157.965 86.6707Z" fill="#F6A509"/>
<g opacity="0.3">
<path opacity="0.3" d="M107.419 67.5216C106.491 70.4538 106.127 73.6652 107.05 76.5974C107.541 77.9339 108.112 79.2395 108.76 80.507C110.782 84.9495 111.64 89.8335 111.254 94.6992C111.217 94.8674 111.238 95.0431 111.314 95.1978C111.508 95.522 112.002 95.4023 112.346 95.2477L114.555 94.2504C115.512 95.0283 115.657 96.5692 116.714 97.1975C117.771 97.8258 119.243 97.1227 120.3 96.3547C122.619 94.6543 124.818 92.6795 126.164 90.1363C127.016 88.3549 127.648 86.4759 128.044 84.5412C128.458 82.8507 128.877 81.1602 129.136 79.4398C130.147 72.6185 128.667 65.6611 124.967 59.842" fill="black"/>
</g>
<path d="M154.249 70.1348C154.296 70.2155 154.331 70.3029 154.353 70.3941C154.423 70.5985 154.513 70.8479 154.618 71.157C154.842 71.8552 155.151 72.8126 155.53 73.9745C155.909 75.1364 156.358 76.5975 156.857 78.1634C157.418 79.8747 157.839 81.6293 158.113 83.4094C158.327 85.2068 158.237 87.0272 157.849 88.795C157.54 90.2333 157.12 91.6454 156.592 93.0188C156.153 94.1907 155.755 95.1232 155.475 95.7665C155.342 96.059 155.233 96.3034 155.146 96.4995C155.112 96.5882 155.067 96.672 155.012 96.7488C155.027 96.6555 155.055 96.5648 155.096 96.4796L155.381 95.7266C155.635 95.0733 156.004 94.1308 156.423 92.9589C156.918 91.5857 157.317 90.1793 157.615 88.7502C157.982 87.0045 158.063 85.2109 157.854 83.4393C157.583 81.6743 157.173 79.9334 156.627 78.2332C156.129 76.6574 155.72 75.2412 155.356 74.0294C154.992 72.8176 154.727 71.8951 154.523 71.187L154.303 70.409C154.272 70.3206 154.254 70.2283 154.249 70.1348Z" fill="#D08B07"/>
<g opacity="0.3">
<path opacity="0.3" d="M158.562 84.8953C159.265 82.4866 159.179 79.9164 158.318 77.5599C157.46 75.2201 156.294 73.0049 154.852 70.9724C155.54 75.6898 157.699 80.128 158.128 84.8804" fill="black"/>
</g>
<g opacity="0.3">
<path opacity="0.3" d="M118.748 115.11C120.855 112.29 123.681 110.089 126.931 108.737C130.169 107.396 133.575 106.502 137.054 106.079C138.426 105.88 139.917 105.74 141.118 106.433C142.32 107.126 142.889 109.006 141.842 109.924C141.265 110.326 140.575 110.533 139.872 110.512C135.075 110.861 130.008 110.876 125.859 113.32C124.218 114.282 122.762 115.609 120.952 116.192C120.129 116.456 118.913 116.307 118.828 115.449" fill="black"/>
</g>
<path d="M143.204 105.436C143.108 105.446 143.011 105.446 142.914 105.436H142.087H141.483L140.775 105.481C140.277 105.52 139.683 105.54 139.045 105.635L138.047 105.76C137.698 105.81 137.344 105.884 136.97 105.949C136.222 106.069 135.439 106.273 134.612 106.448C132.831 106.929 131.087 107.534 129.391 108.258C127.699 108.997 126.055 109.842 124.469 110.786C123.741 111.23 123.047 111.649 122.429 112.083C121.811 112.517 121.222 112.906 120.699 113.285C120.175 113.664 119.701 114.023 119.312 114.332C118.923 114.641 118.559 114.92 118.285 115.15L117.637 115.648C117.564 115.713 117.484 115.768 117.397 115.813C117.459 115.738 117.527 115.67 117.602 115.609L118.215 115.05C118.485 114.806 118.819 114.516 119.213 114.197C119.607 113.878 120.055 113.494 120.579 113.115C121.103 112.736 121.661 112.297 122.294 111.878C122.928 111.46 123.611 111.011 124.334 110.557C125.923 109.595 127.574 108.738 129.276 107.994C130.984 107.263 132.744 106.661 134.542 106.194C135.38 106.004 136.167 105.8 136.92 105.695C137.299 105.635 137.658 105.56 138.008 105.515L139.005 105.411C139.648 105.326 140.232 105.316 140.745 105.291C141.005 105.291 141.244 105.266 141.463 105.266H142.067L142.9 105.296C143.008 105.325 143.111 105.372 143.204 105.436Z" fill="#D08B07"/>
<g opacity="0.3">
<path opacity="0.3" d="M102.757 78.8764C101.485 80.6367 101.34 83.0104 101.864 85.1148C102.387 87.2192 103.5 89.1041 104.607 90.9891C104.756 89.1197 104.611 87.2385 104.178 85.414C103.654 83.2298 102.717 81.1055 102.722 78.8564" fill="black"/>
</g>
<path d="M138.277 11.4512C138.307 9.86043 140.122 8.73344 141.693 9.00272C143.264 9.272 144.491 10.5436 145.224 11.9549C145.957 13.3661 146.311 14.9469 146.864 16.4429C148.36 20.4323 151.297 23.8681 152.35 28.017C153.031 30.9625 152.938 34.0343 152.08 36.9333C151.227 39.8126 150.051 42.5863 148.575 45.2013C147.654 46.7715 146.878 48.4223 146.256 50.1331C145.632 51.8587 145.574 53.7382 146.091 55.4988C146.203 55.7211 146.228 55.9772 146.161 56.2169C146.007 56.556 145.523 56.571 145.164 56.4762C143.334 56.0075 142.067 54.2073 141.753 52.3422C141.439 50.4772 141.917 48.5723 142.586 46.802C143.254 45.0317 144.112 43.3113 144.605 41.5111C145.682 37.5217 144.934 33.293 144.745 29.159C144.64 26.8302 144.715 24.4765 144.246 22.1776C143.778 19.8787 142.695 17.6198 140.756 16.3182C140.003 15.8196 139.135 15.4505 138.502 14.8222C137.868 14.1939 137.549 13.0719 138.123 12.3638" fill="#043449"/>
<path d="M139.918 57.7027C139.918 57.7027 139.863 55.2891 139.863 55.3141C139.863 55.339 147.009 53.9527 148.271 44.5627C148.899 39.8951 148.485 32.2705 147.946 26.047C147.448 20.442 143.578 13.6401 137.998 14.3632L120.639 19.1903C118.949 19.4097 118.39 20.8609 118.465 22.5713L118.34 23.3742L119.786 50.1478L120.285 54.6359C120.539 59.7273 124.963 65.108 130.418 65.2476C135.684 65.5069 139.988 63.3377 139.918 57.7027Z" fill="#FFBE9D"/>
<path d="M144.754 32.0859C144.764 32.3989 144.651 32.7033 144.439 32.9342C144.228 33.1652 143.935 33.3046 143.622 33.3226C143.47 33.3384 143.316 33.3235 143.169 33.2788C143.023 33.2342 142.887 33.1606 142.769 33.0626C142.652 32.9645 142.555 32.8439 142.485 32.7078C142.415 32.5718 142.372 32.4231 142.36 32.2704C142.351 31.9582 142.463 31.6546 142.673 31.4237C142.884 31.1929 143.176 31.053 143.487 31.0337C143.64 31.0179 143.794 31.0328 143.941 31.0774C144.088 31.122 144.224 31.1954 144.342 31.2934C144.46 31.3914 144.557 31.512 144.628 31.6481C144.699 31.7842 144.742 31.933 144.754 32.0859Z" fill="#263238"/>
<path d="M146.315 30.3106C146.171 30.4702 145.248 29.8119 143.957 29.8518C142.665 29.8917 141.733 30.555 141.593 30.4004C141.518 30.3306 141.663 30.0463 142.092 29.7322C142.642 29.334 143.302 29.1147 143.982 29.1038C144.652 29.0846 145.311 29.2803 145.862 29.6623C146.266 29.9566 146.41 30.2408 146.315 30.3106Z" fill="#263238"/>
<path d="M133.774 32.7341C133.629 32.8937 132.702 32.2355 131.41 32.2803C130.119 32.3252 129.191 32.9785 129.047 32.8239C128.977 32.7591 129.121 32.4698 129.545 32.1607C130.096 31.7613 130.755 31.5403 131.435 31.5273C132.107 31.5106 132.767 31.708 133.32 32.0909C133.704 32.3751 133.849 32.6543 133.774 32.7341Z" fill="#263238"/>
<path d="M138.61 40.0599C138.61 39.9851 139.403 39.8255 140.7 39.631C141.029 39.5861 141.338 39.5163 141.388 39.2869C141.408 38.9454 141.323 38.6059 141.144 38.3145L140.111 35.8212C138.675 32.2756 137.618 29.3385 137.768 29.3035C137.917 29.2686 139.194 32.0712 140.63 35.6167C140.962 36.4911 141.295 37.3222 141.627 38.1101C141.845 38.5014 141.917 38.9571 141.832 39.3967C141.786 39.5143 141.714 39.6201 141.621 39.7064C141.529 39.7927 141.419 39.8572 141.298 39.8953C141.116 39.9485 140.929 39.9786 140.74 39.9851C139.428 40.1048 138.615 40.1297 138.61 40.0599Z" fill="#263238"/>
<path d="M139.862 55.314C135.459 55.4846 131.095 54.4298 127.256 52.2671C127.256 52.2671 130.572 58.7997 139.917 57.7026L139.862 55.314Z" fill="#EB996E"/>
<path d="M133.725 29.4582C133.58 29.8023 132.304 29.558 130.778 29.6428C129.252 29.7275 128.005 30.0716 127.826 29.7425C127.746 29.5879 127.975 29.2688 128.494 28.9596C129.174 28.5801 129.934 28.3666 130.713 28.3362C131.493 28.2879 132.273 28.4281 132.987 28.7452C133.53 29.0045 133.79 29.2937 133.725 29.4582Z" fill="#263238"/>
<path d="M146.141 26.3262C145.882 26.6254 144.82 26.3262 143.558 26.3661C142.296 26.406 141.224 26.6155 140.97 26.3163C140.86 26.1667 141.02 25.8725 141.469 25.5832C142.106 25.23 142.822 25.0447 143.55 25.0447C144.279 25.0447 144.995 25.23 145.632 25.5832C146.101 25.8824 146.256 26.1816 146.141 26.3262Z" fill="#263238"/>
<path d="M137.649 42.7676C137.455 42.5239 137.211 42.3253 136.933 42.1858C136.655 42.0463 136.349 41.9691 136.038 41.9597C135.685 41.9707 135.338 42.0554 135.019 42.2082C134.701 42.3611 134.418 42.5788 134.188 42.8474L134.153 42.8773L134.088 42.9471C133.909 43.1387 133.796 43.3839 133.769 43.6452C133.765 43.9383 133.833 44.2279 133.967 44.4887C134.101 44.7495 134.297 44.9735 134.537 45.1412C134.909 45.4243 135.359 45.5858 135.825 45.6036C136.292 45.6215 136.753 45.4948 137.145 45.241C137.527 44.9691 137.791 44.5626 137.884 44.1035C137.978 43.6444 137.894 43.167 137.649 42.7676Z" fill="#EB996E"/>
<path d="M134.297 41.5159C134.372 41.5159 134.432 41.8151 134.636 42.2389C134.899 42.7829 135.31 43.2411 135.823 43.5604C136.346 43.8613 136.945 44.005 137.548 43.9743C138.017 43.9743 138.311 43.8646 138.346 43.9344C138.381 44.0042 138.112 44.2037 137.593 44.3234C136.9 44.4665 136.178 44.3456 135.569 43.9843C134.96 43.6219 134.512 43.043 134.312 42.3636C134.167 41.85 134.237 41.5159 134.297 41.5159Z" fill="#263238"/>
<path d="M140.133 14.518C140.082 14.988 140.145 15.4634 140.319 15.9031C140.493 16.3428 140.771 16.7335 141.13 17.0413C141.859 17.6465 142.645 18.1777 143.479 18.627C145.972 20.1829 147.204 23.5838 148.371 26.2816C150.426 22.3671 147.269 17.3056 144.656 14.2387C144.21 13.6668 143.658 13.186 143.03 12.8225C142.714 12.6437 142.36 12.5395 141.997 12.5179C141.635 12.4963 141.271 12.5578 140.936 12.6978" fill="#043449"/>
<path d="M148.395 45.7396C148.422 45.6205 148.459 45.5038 148.505 45.3905L148.864 44.4231C149.148 43.5704 149.567 42.3387 149.941 40.7778C150.916 36.6971 151.148 32.4739 150.624 28.3111C150.363 26.0273 149.82 23.7846 149.009 21.6338C148.352 19.8759 147.283 18.301 145.892 17.0411C144.945 16.2008 143.822 15.5839 142.606 15.2359C141.743 15.0115 141.239 15.0115 141.239 14.9816C141.36 14.9684 141.482 14.9684 141.603 14.9816C141.949 15.0078 142.293 15.0612 142.631 15.1411C143.88 15.4536 145.039 16.0567 146.012 16.9014C147.444 18.1664 148.549 19.7593 149.233 21.5441C150.067 23.7105 150.622 25.9744 150.884 28.2811C151.41 32.4645 151.151 36.7093 150.121 40.7978C149.8 42.0316 149.413 43.2469 148.959 44.4381C148.789 44.852 148.65 45.1761 148.555 45.3905C148.514 45.5123 148.461 45.6294 148.395 45.7396Z" fill="#04435E"/>
<path d="M149.237 52.4718C149.217 52.438 149.201 52.4009 149.193 52.3621L149.083 52.028C148.966 51.5978 148.894 51.1566 148.868 50.7115C148.833 49.0563 149.219 47.4193 149.99 45.9542C150.873 44.0543 152.484 42.1493 154.03 39.9103C154.851 38.7511 155.509 37.4842 155.984 36.1453C156.454 34.6987 156.634 33.1735 156.513 31.6573C156.398 30.1368 155.979 28.6548 155.281 27.2989C154.598 26.0488 153.76 24.8894 152.788 23.8481C150.963 21.8534 149.128 20.148 147.926 18.4375C146.922 17.1292 146.214 15.6183 145.851 14.0093C145.722 13.4203 145.683 12.8149 145.737 12.2141C145.761 12.8106 145.833 13.4042 145.951 13.9894C146.345 15.5708 147.069 17.0509 148.075 18.3328C149.282 20.0083 151.112 21.6639 152.967 23.6885C153.954 24.7406 154.804 25.9135 155.496 27.1792C156.209 28.5648 156.638 30.0788 156.757 31.6324C156.88 33.1858 156.695 34.7481 156.214 36.2301C155.729 37.5896 155.058 38.8752 154.219 40.0499C152.648 42.299 151.038 44.1789 150.145 46.034C149.368 47.467 148.962 49.0715 148.963 50.7016C148.993 51.2996 149.085 51.8929 149.237 52.4718Z" fill="#263238"/>
<path d="M138.625 9.61093C137.025 8.47895 134.96 8.21964 133 8.24956C127.715 8.32436 122.349 10.344 118.813 14.2735C115.821 17.5847 111.428 23.9577 110.595 28.3261C108.566 38.9727 115.293 41.9548 109.812 58.5755C108.815 61.5675 107.578 64.4997 106.97 67.5914C106.751 68.6947 106.649 69.8179 106.666 70.9425C106.022 72.8873 106.416 75.1313 107.209 77.0662C108.142 79.3401 109.563 81.3847 110.456 83.6736C111.348 85.9625 113.313 89.7175 112.001 91.7969C113.851 91.2983 113.916 89.3684 115.382 88.1367C115.816 89.7894 115.802 91.5276 115.343 93.1733C117.642 93.0128 119.825 92.1018 121.556 90.5802C124.977 87.5882 126.044 82.7261 126.578 78.1982C127.725 68.2996 126.603 58.8049 123.98 49.1905L123.945 49.2353C122.035 43.0867 118.419 37.4119 121.666 36.0555C127.321 33.6968 122.164 31.2134 124.309 25.2692C124.982 23.4142 125.73 21.4494 127.301 20.2825C129.186 18.8762 131.734 18.951 134.083 18.8214C136.431 18.6917 139.094 18.0734 140.196 15.9989L140.341 14.7572C141.184 12.977 140.226 10.7479 138.625 9.61093Z" fill="#043449"/>
<path d="M113.124 48.971C113.28 48.8504 113.419 48.7095 113.538 48.5521C113.823 48.0595 113.934 47.4849 113.852 46.9215C113.692 45.4504 112.949 43.4308 111.977 40.9374C111.427 39.5867 111.005 38.1877 110.715 36.7586C110.348 35.0076 110.508 33.1868 111.175 31.5268C111.843 29.8669 112.988 28.4423 114.465 27.4334C116.061 26.2865 118.23 26.1119 119.562 24.5561C120.893 23.0002 121.556 21.1352 122.135 19.33C122.415 18.4268 122.748 17.541 123.132 16.6771C123.519 15.8534 123.987 15.07 124.529 14.3383C125.531 12.9861 126.776 11.8314 128.199 10.9324C128.839 10.508 129.533 10.1724 130.263 9.93503C130.941 9.72949 131.65 9.64509 132.358 9.68569C133.56 9.78471 134.739 10.0777 135.848 10.5534C136.846 10.9573 137.664 11.3114 138.342 11.6704C138.857 11.9356 139.305 12.3141 139.653 12.7775C139.771 12.9406 139.861 13.1228 139.918 13.316C139.824 13.1441 139.721 12.9776 139.608 12.8173C139.251 12.3761 138.802 12.0186 138.292 11.7701C137.634 11.431 136.796 11.087 135.798 10.698C134.7 10.2484 133.537 9.9774 132.353 9.89513C131.666 9.85792 130.979 9.94406 130.323 10.1495C129.619 10.3849 128.949 10.7101 128.328 11.1169C126.174 12.4949 124.456 14.4581 123.377 16.7768C122.993 17.6326 122.66 18.5101 122.379 19.4048C121.791 21.205 121.177 23.1847 119.756 24.7256C119.049 25.4693 118.178 26.0378 117.213 26.3862C116.302 26.7046 115.43 27.1262 114.615 27.6428C113.108 28.6775 111.953 30.1476 111.304 31.8566C110.731 33.4126 110.594 35.0958 110.91 36.7236C111.191 38.1428 111.602 39.5332 112.137 40.8776C113.084 43.3709 113.807 45.4105 113.937 46.9165C114.012 47.4984 113.879 48.0882 113.563 48.5821C113.473 48.7022 113.365 48.8081 113.244 48.8962L113.124 48.971Z" fill="#04435E"/>
<path d="M121.382 36.8781C121.237 34.8834 119.043 33.6068 117.338 34.639C116.4 35.2075 115.702 36.3245 115.842 38.4389C116.196 44.0689 121.776 42.553 121.776 42.3884C121.776 42.2238 121.526 39.2168 121.382 36.8781Z" fill="#FFBE9D"/>
<path d="M119.887 40.364C119.887 40.364 119.792 40.4388 119.633 40.5236C119.406 40.6379 119.143 40.6611 118.9 40.5884C118.291 40.4039 117.733 39.4914 117.643 38.4791C117.597 37.9975 117.66 37.5117 117.828 37.0578C117.869 36.8781 117.953 36.7113 118.074 36.5722C118.195 36.433 118.349 36.3258 118.521 36.26C118.631 36.2231 118.75 36.2259 118.859 36.2677C118.967 36.3096 119.057 36.388 119.114 36.4894C119.199 36.6439 119.169 36.7586 119.204 36.7686C119.239 36.7786 119.319 36.6639 119.259 36.4345C119.218 36.2969 119.132 36.1772 119.014 36.0954C118.851 35.989 118.653 35.9497 118.461 35.9857C118.233 36.0464 118.024 36.1644 117.855 36.3285C117.686 36.4926 117.561 36.6973 117.493 36.9232C117.283 37.4253 117.199 37.9717 117.249 38.514C117.359 39.6459 118.007 40.6732 118.835 40.8577C118.989 40.8912 119.148 40.8903 119.302 40.8549C119.455 40.8196 119.599 40.7507 119.723 40.6533C119.887 40.5037 119.912 40.374 119.887 40.364Z" fill="#EB996E"/>
<path d="M122.04 44.2036C122.04 44.2036 122.08 44.3133 122.04 44.5128C121.96 44.795 121.783 45.0402 121.541 45.206C121.357 45.327 121.147 45.4031 120.928 45.4282C120.709 45.4533 120.487 45.4267 120.28 45.3506C120.027 45.2589 119.797 45.114 119.605 44.9256C119.413 44.7371 119.264 44.5096 119.168 44.2585C119 43.8097 118.958 43.3237 119.046 42.8529C119.134 42.382 119.348 41.9439 119.666 41.5856C119.786 41.4296 119.936 41.2997 120.108 41.2036C120.279 41.1076 120.468 41.0475 120.664 41.0271C120.339 41.1986 120.048 41.4285 119.806 41.7053C119.562 42.0153 119.391 42.3768 119.307 42.7625C119.207 43.2282 119.243 43.7133 119.412 44.1588C119.493 44.3778 119.619 44.5773 119.782 44.7441C119.945 44.9109 120.142 45.0411 120.36 45.1262C120.534 45.1968 120.722 45.2267 120.909 45.2137C121.097 45.2008 121.279 45.1453 121.442 45.0514C121.661 44.9159 121.835 44.7179 121.94 44.4829C122.005 44.3133 122.015 44.2036 122.04 44.2036Z" fill="white"/>
<path d="M139.035 15.3755C138.672 15.0049 138.272 14.6708 137.843 14.3782C136.615 13.651 135.181 13.3495 133.764 13.5205C132.79 13.6172 131.843 13.9016 130.977 14.3583C129.991 14.8984 129.097 15.5919 128.329 16.4128C127.479 17.3304 126.725 18.333 126.08 19.4048C125.397 20.5069 124.773 21.7037 124.13 22.9304C123.524 24.1348 122.858 25.3082 122.135 26.446C121.448 27.5059 120.645 28.486 119.742 29.3683C118.884 30.211 118.026 30.964 117.293 31.732C116.595 32.4196 115.994 33.1998 115.508 34.0508C114.789 35.2866 114.535 36.7382 114.79 38.1449C114.917 38.6509 115.126 39.1327 115.408 39.5711C115.318 39.469 115.234 39.3606 115.159 39.2469C114.949 38.9145 114.792 38.551 114.695 38.1698C114.389 36.7364 114.62 35.2406 115.343 33.966C115.828 33.0916 116.432 32.2893 117.139 31.5824C117.872 30.7994 118.724 30.0415 119.572 29.1987C120.459 28.3226 121.248 27.3528 121.926 26.3064C122.639 25.2193 123.277 24.0325 123.921 22.8157C124.564 21.599 125.187 20.3872 125.885 19.2751C126.541 18.1999 127.308 17.197 128.174 16.2831C128.963 15.4474 129.883 14.7451 130.897 14.2037C131.791 13.7448 132.764 13.4621 133.764 13.3709C135.217 13.2126 136.681 13.55 137.918 14.3283C138.243 14.549 138.539 14.8086 138.801 15.1013C138.885 15.1872 138.964 15.2788 139.035 15.3755Z" fill="#04435E"/>
<path d="M96.6024 76.3331L97.6496 71.2766L88.0153 66.8833L87.766 67.7061C86.3896 72.2889 79.5279 94.3751 79.109 96.0257C77.5631 102.154 77.9072 114.282 80.3507 116.551C82.3055 118.366 86.0605 119.703 88.5439 119.428C91.0273 119.154 97.874 110.343 97.874 110.343L104.152 90.2261L96.6024 76.3331Z" fill="#FFBE9D"/>
<path d="M97.0267 73.3262C97.0252 73.457 97.0102 73.5874 96.9819 73.7151C96.932 73.9944 96.8722 74.3634 96.7924 74.8322C96.6178 75.8295 96.3635 77.2108 96.0593 78.9163C95.7551 80.6217 95.3861 82.6962 95.062 84.9901C94.709 87.4685 94.5158 89.967 94.4835 92.4702C94.4612 94.9785 94.7442 97.4803 95.3263 99.9203C95.8698 102.159 96.3685 104.224 96.3236 106.004C96.3316 107.402 95.9741 108.777 95.2864 109.993C95.0397 110.442 94.7116 110.841 94.319 111.17C95.5878 109.748 96.2422 107.882 96.1391 105.979C96.169 104.234 95.6404 102.199 95.0969 99.9552C94.501 97.4986 94.2095 94.978 94.2292 92.4502C94.2585 89.9311 94.4601 87.4169 94.8326 84.9253C95.1567 82.6264 95.5407 80.5719 95.8748 78.8515C96.2089 77.131 96.4932 75.7697 96.6876 74.7823C96.7874 74.3185 96.8672 73.9545 96.922 73.6752C96.9505 73.5571 96.9854 73.4405 97.0267 73.3262Z" fill="#EB996E"/>
<path d="M106.985 62.9139L105.12 60.8494V58.3959L103.185 55.6133L99.3253 56.2317L98.1434 56.3314L98.9413 50.6865C99.3839 49.2425 99.9651 47.8447 100.677 46.5126C102.053 43.7599 99.8389 42.4983 99.8389 42.4983L95.6999 49.739L94.3236 54.5512L93.7352 50.6266C93.7352 50.6266 94.4333 46.8068 94.3336 44.842C94.2338 42.8773 92.2641 43.1615 92.2641 43.1615L90.6883 51.8035V56.127L89.3169 53.5738C89.3169 53.5738 89.0227 51.4095 88.8183 49.4448C88.6138 47.48 87.053 48.0684 87.053 48.0684V54.4564L88.8183 60.3507C88.8183 60.3507 87.6564 67.9555 87.4619 68.2497L96.5527 74.6227C96.5527 74.6227 98.5473 73.1267 98.9313 73.022C99.3153 72.9172 104.237 69.2869 104.237 69.2869L107.673 65.6516C107.673 65.6516 108.261 65.2626 108.261 64.8687C108.261 64.4747 106.985 62.9139 106.985 62.9139ZM102.272 65.2726L100.308 64.385L99.2255 61.732L100.028 60.2809L100.308 59.7822L100.667 59.5329L101.978 59.7822C101.978 59.7822 102.567 61.6523 102.477 62.5349C102.387 63.4175 103.559 64.3052 103.559 64.3052L102.272 65.2726Z" fill="#FFBE9D"/>
<path d="M100.667 59.5179C100.667 59.5479 100.488 59.5678 100.218 59.483C99.8663 59.3615 99.5553 59.1438 99.3206 58.8547C99.0816 58.5713 98.9293 58.2251 98.8818 57.8574C98.8519 57.5781 98.8818 57.4036 98.9317 57.4086C99.013 57.8811 99.2157 58.3245 99.5199 58.6951C99.8241 59.0658 100.219 59.351 100.667 59.5229V59.5179Z" fill="#EB996E"/>
<path d="M105.724 64.6094C105.687 63.6534 105.731 62.6959 105.853 61.7471C106.004 62.2115 106.05 62.7038 105.988 63.1882C106.01 63.676 105.919 64.1622 105.724 64.6094Z" fill="#EB996E"/>
<path d="M102.692 68.3243C102.692 68.3243 102.442 68.1647 102.163 67.7857C101.78 67.2793 101.602 66.6472 101.664 66.0154C101.694 65.822 101.777 65.6407 101.904 65.4918C102.018 65.3671 102.138 65.2524 102.253 65.1477C102.456 64.97 102.669 64.8036 102.891 64.649C103.27 64.3798 103.539 64.2601 103.559 64.3C103.387 64.4789 103.202 64.6455 103.006 64.7987C102.831 64.9483 102.632 65.1278 102.417 65.3372C102.313 65.4419 102.203 65.5566 102.098 65.6763C102.004 65.791 101.942 65.9287 101.919 66.0752C101.879 66.3827 101.911 66.6951 102.013 66.9878C102.087 67.2379 102.193 67.4776 102.328 67.7009C102.547 68.0699 102.726 68.2993 102.692 68.3243Z" fill="#EB996E"/>
<path d="M105.124 60.6001C105.158 61.3317 104.926 62.0509 104.471 62.6247C104.298 62.8647 104.069 63.0583 103.803 63.1882C103.575 63.2861 103.322 63.3088 103.08 63.253C102.656 63.1483 102.546 62.8591 102.581 62.8541C102.616 62.8491 102.766 63.0336 103.115 63.0735C103.317 63.0977 103.522 63.0612 103.703 62.9688C103.927 62.8483 104.12 62.6776 104.267 62.4701C104.625 61.8823 104.912 61.2547 105.124 60.6001Z" fill="#EB996E"/>
<path d="M102.478 62.3802C102.418 62.3802 102.273 61.5126 101.979 60.4504C101.865 59.9906 101.778 59.5243 101.72 59.0541C101.685 58.6901 101.72 58.4607 101.72 58.4607C101.72 58.4607 101.799 58.6751 101.879 59.0242C101.994 59.5229 102.099 59.9368 102.208 60.3906C102.527 61.4577 102.562 62.3802 102.478 62.3802Z" fill="#EB996E"/>
<path d="M105.723 65.1979C104.925 65.1352 104.158 64.8635 103.499 64.41C103.223 64.2478 102.977 64.0405 102.771 63.7966C102.608 63.5869 102.496 63.3431 102.441 63.0835C102.367 62.8527 102.38 62.6027 102.476 62.3804C102.521 62.3804 102.476 62.6497 102.616 63.0386C102.794 63.5318 103.15 63.9409 103.613 64.1856C104.715 64.8737 105.748 65.1131 105.723 65.1979Z" fill="#EB996E"/>
<path d="M97.626 67.3819C97.0321 66.3891 96.3 65.4857 95.4517 64.6991C94.5417 63.9777 93.5345 63.3885 92.4597 62.9487C92.8055 62.972 93.1438 63.0599 93.4571 63.208C95.0313 63.8315 96.3503 64.9661 97.2021 66.4295C97.4034 66.7167 97.5473 67.0401 97.626 67.3819Z" fill="#EB996E"/>
<path d="M94.334 58.2115C94.334 58.2863 93.6159 58.3462 92.7831 58.6404C91.9503 58.9346 91.3469 59.3186 91.2871 59.2587C91.6819 58.8685 92.1593 58.5718 92.6841 58.3905C93.2088 58.2093 93.7675 58.1481 94.319 58.2115H94.334Z" fill="#EB996E"/>
<path d="M110.122 167.725C110.122 167.725 80.9848 175.788 79.8179 176.202C78.0626 176.82 78.3568 183.253 81.0895 183.153C82.3811 183.104 103.465 183.936 106.133 183.772C108.801 183.607 115.967 180.78 115.967 180.78L110.122 167.725Z" fill="#455A64"/>
<path d="M97.9848 178.845C97.8352 178.845 97.6408 177.324 96.6983 175.719C95.7558 174.113 94.549 173.155 94.6388 173.036C94.7285 172.916 96.1348 173.744 97.1321 175.474C98.1295 177.205 98.1045 178.845 97.9848 178.845Z" fill="#263238"/>
<path d="M101.021 177.464C100.877 177.464 100.583 176.112 99.8096 174.591C99.0367 173.07 98.1141 172.003 98.2189 171.904C98.3236 171.804 99.4406 172.761 100.243 174.372C101.046 175.983 101.146 177.454 101.021 177.464Z" fill="#263238"/>
<path d="M103.869 176.701C103.724 176.701 103.834 175.235 103.191 173.624C102.548 172.013 101.5 171.006 101.6 170.896C101.7 170.786 102.966 171.689 103.645 173.444C104.323 175.2 103.989 176.741 103.869 176.701Z" fill="#263238"/>
<path d="M103.355 172.936C103.3 172.936 103.041 172.138 103.041 170.771C103.044 169.97 103.143 169.171 103.335 168.393C103.448 167.933 103.593 167.481 103.769 167.041C103.859 166.766 104.021 166.52 104.237 166.328C104.382 166.216 104.562 166.16 104.745 166.169C104.928 166.178 105.102 166.252 105.235 166.378C105.463 166.594 105.601 166.888 105.624 167.201C105.654 167.456 105.667 167.712 105.664 167.969C105.654 168.449 105.594 168.927 105.484 169.395C105.29 170.176 104.988 170.927 104.586 171.624C103.908 172.806 103.32 173.409 103.275 173.379C103.23 173.35 103.699 172.651 104.272 171.465C104.611 170.776 104.867 170.049 105.035 169.3C105.128 168.863 105.175 168.416 105.175 167.969C105.175 167.52 105.175 166.972 104.906 166.742C104.858 166.689 104.791 166.656 104.72 166.65C104.648 166.645 104.577 166.667 104.522 166.712C104.375 166.849 104.266 167.021 104.202 167.211C104.028 167.63 103.88 168.06 103.759 168.497C103.556 169.241 103.427 170.003 103.375 170.771C103.3 172.103 103.429 172.926 103.355 172.936Z" fill="#263238"/>
<path d="M103.389 172.642C103.389 172.587 104.078 172.347 105.269 172.337C105.965 172.336 106.659 172.422 107.334 172.592C107.75 172.681 108.151 172.829 108.526 173.031C108.766 173.15 108.96 173.345 109.079 173.585C109.198 173.826 109.235 174.099 109.184 174.362C109.118 174.613 108.986 174.841 108.802 175.023C108.618 175.206 108.388 175.336 108.137 175.399C107.706 175.507 107.256 175.507 106.825 175.399C106.136 175.227 105.492 174.909 104.935 174.467C104.405 174.11 103.946 173.658 103.579 173.135C103.634 173.07 104.182 173.549 105.13 174.182C105.67 174.554 106.279 174.817 106.92 174.955C107.275 175.043 107.647 175.043 108.002 174.955C108.17 174.912 108.323 174.826 108.447 174.705C108.571 174.584 108.662 174.434 108.71 174.267C108.739 174.103 108.712 173.933 108.633 173.786C108.555 173.639 108.429 173.522 108.276 173.454C107.944 173.271 107.588 173.131 107.219 173.041C106.577 172.861 105.919 172.746 105.254 172.696C104.117 172.602 103.399 172.721 103.389 172.642Z" fill="#263238"/>
<path d="M93.5061 179.154C93.3615 179.154 93.5061 177.893 92.9326 176.526C92.3592 175.16 91.4366 174.357 91.5064 174.242C91.5762 174.128 92.7731 174.816 93.3814 176.342C93.9898 177.868 93.6258 179.204 93.5061 179.154Z" fill="#263238"/>
<path d="M113.838 180.501C113.479 180.712 113.102 180.889 112.711 181.029C111.654 181.436 110.571 181.769 109.469 182.027C106.682 182.73 102.707 183.129 98.3439 183.084C93.9805 183.039 90.041 182.834 87.1886 182.72L83.8126 182.54C83.397 182.541 82.9824 182.498 82.5759 182.411C82.9865 182.347 83.4028 182.327 83.8176 182.351H87.1986L98.3439 182.57C102.055 182.674 105.766 182.382 109.414 181.697C112.177 181.124 113.803 180.406 113.838 180.501Z" fill="#263238"/>
<path d="M114.7 181.164C114.66 181.229 113.862 180.765 112.516 180.166C110.799 179.353 108.888 179.037 107.001 179.254C104.807 179.588 103.251 181.064 102.238 182.086C101.226 183.109 100.618 183.852 100.558 183.802C100.943 183.086 101.422 182.425 101.984 181.837C102.554 181.162 103.202 180.556 103.914 180.032C104.796 179.375 105.821 178.937 106.906 178.755C108.884 178.515 110.888 178.894 112.641 179.842C113.392 180.172 114.088 180.618 114.7 181.164Z" fill="#263238"/>
<path d="M85.4774 182.42C85.4276 182.385 85.6769 182.001 85.9063 181.323C86.2045 180.443 86.2782 179.502 86.1207 178.586C85.944 177.668 85.5373 176.81 84.9389 176.092C84.4851 175.539 84.1161 175.264 84.151 175.215C84.1859 175.165 84.6097 175.369 85.1483 175.903C85.85 176.614 86.3207 177.521 86.4986 178.504C86.6766 179.487 86.5536 180.501 86.1457 181.413C85.8415 182.116 85.5024 182.45 85.4774 182.42Z" fill="#263238"/>
<path d="M107.284 126.569L102.048 139.45C102.048 139.45 76.0278 129.93 60.7984 132.703C55.0088 133.76 48.8303 146.9 57.2478 155.338C65.4809 163.571 80.1867 175.21 107.823 178.975C108.511 179.069 119.826 181.498 119.128 181.413C118.43 181.328 134.991 183.951 134.991 183.951L138.88 169.256L169.753 174.113C187.935 172.871 196.831 153.428 185.885 147.184C175.672 141.345 156.463 140.881 156.463 140.881L151.751 128.02L107.284 126.569Z" fill="#043449"/>
<path d="M135.604 184.5C135.689 184.001 135.903 182.665 136.357 179.922C136.602 178.426 136.906 176.666 137.295 174.611C137.489 173.584 137.709 172.487 137.968 171.335C138.098 170.757 138.242 170.168 138.412 169.565C138.496 169.266 138.586 168.961 138.696 168.657C138.795 168.328 138.954 168.021 139.165 167.75L139.21 167.974C132.642 165.645 124.434 162.563 115.682 158.873C110.307 156.584 105.21 154.276 100.762 151.867C98.6306 150.756 96.5853 149.488 94.6433 148.072C92.8281 146.731 91.2125 145.394 89.6965 144.227C86.7045 141.859 83.9717 140.328 81.9372 139.679C81.492 139.517 81.0374 139.382 80.5758 139.276C80.2482 139.182 79.9151 139.109 79.5785 139.056L78.9451 138.941C78.8721 138.933 78.8002 138.916 78.7307 138.892C78.8036 138.884 78.8772 138.884 78.9501 138.892L79.5884 138.971C79.9347 139.011 80.278 139.074 80.6157 139.161C81.0817 139.257 81.5413 139.382 81.992 139.535C83.2351 139.937 84.432 140.47 85.5625 141.126C87.0578 141.993 88.4923 142.961 89.8561 144.023C91.382 145.18 93.0077 146.516 94.8428 147.833C96.7815 149.228 98.8199 150.48 100.942 151.578C105.405 153.961 110.476 156.26 115.847 158.559C124.589 162.244 132.802 165.346 139.334 167.715L139.514 167.78L139.379 167.934C139.201 168.178 139.065 168.449 138.975 168.737C138.865 169.031 138.776 169.33 138.691 169.625C138.516 170.218 138.372 170.806 138.237 171.38C137.968 172.527 137.738 173.619 137.539 174.641C137.13 176.691 136.806 178.476 136.542 179.937C136.277 181.398 136.043 182.52 135.913 183.313C135.834 183.702 135.774 183.996 135.724 184.196C135.693 184.3 135.653 184.402 135.604 184.5Z" fill="#012737"/>
<path d="M179.876 148.925C179.82 148.931 179.763 148.931 179.706 148.925L179.208 148.845C178.784 148.79 178.17 148.631 177.363 148.556C175.095 148.258 172.804 148.176 170.521 148.311C167.135 148.528 163.778 149.083 160.503 149.967C158.652 150.466 156.728 151.044 154.758 151.727C152.788 152.41 150.768 153.193 148.724 154.016C146.712 154.811 144.656 155.489 142.565 156.046C140.571 156.604 138.576 157.043 136.686 157.402C132.911 158.14 129.48 158.594 126.598 158.943C123.716 159.292 121.377 159.531 119.761 159.696L117.901 159.881L117.402 159.92C117.293 159.92 117.238 159.92 117.238 159.92C117.29 159.903 117.343 159.891 117.397 159.886L117.896 159.816L119.746 159.571L126.568 158.714C129.445 158.33 132.871 157.856 136.626 157.103C138.506 156.734 140.471 156.29 142.481 155.732C144.557 155.175 146.6 154.499 148.599 153.707C150.654 152.889 152.673 152.101 154.653 151.418C156.633 150.735 158.568 150.161 160.428 149.668C163.725 148.794 167.104 148.261 170.511 148.077C172.807 147.959 175.11 148.076 177.383 148.426C178.19 148.526 178.799 148.705 179.223 148.78L179.721 148.89C179.774 148.895 179.826 148.906 179.876 148.925Z" fill="#012737"/>
<path d="M132.352 143.654C132.352 143.873 130.971 144.222 128.657 144.437C122.614 144.929 116.532 144.278 110.73 142.517C108.521 141.819 107.239 141.175 107.289 140.966C107.439 140.502 112.899 141.963 119.781 142.671C126.663 143.379 132.303 143.17 132.352 143.654Z" fill="#043449"/>
<path d="M156.733 141.071C156.409 141.19 156.075 141.282 155.736 141.345C155.402 141.415 155.003 141.514 154.544 141.654C154.085 141.794 153.547 141.928 152.988 142.153C151.647 142.601 150.332 143.122 149.049 143.714C147.602 144.397 146.057 145.21 144.466 146.162C141.776 147.802 139.195 149.616 136.741 151.593C135.799 152.346 135.041 152.969 134.522 153.408C134.263 153.646 133.984 153.863 133.689 154.056C133.917 153.786 134.168 153.536 134.437 153.308C134.936 152.844 135.664 152.191 136.597 151.413C139.018 149.374 141.592 147.523 144.296 145.878C145.792 144.983 147.336 144.169 148.919 143.439C150.216 142.858 151.549 142.359 152.908 141.943C153.487 141.754 154.02 141.624 154.494 141.509C154.892 141.403 155.294 141.316 155.701 141.25C156.04 141.164 156.385 141.104 156.733 141.071Z" fill="#012737"/>
<path d="M127.81 154.036C127.182 153.939 126.569 153.763 125.985 153.512C124.556 152.967 123.161 152.337 121.806 151.627L117.762 149.508C117.186 149.246 116.63 148.945 116.096 148.605C116.708 148.771 117.3 149.004 117.861 149.299C118.929 149.797 120.355 150.52 121.956 151.333C123.556 152.146 124.997 152.829 126.07 153.298C126.662 153.513 127.243 153.759 127.81 154.036Z" fill="#012737"/>
<path d="M130.623 127.327C130.673 127.327 130.588 128.514 130.488 130.424C130.388 132.334 130.304 134.972 130.348 137.904C130.393 140.836 130.563 143.454 130.722 145.354C130.882 147.254 131.002 148.431 130.952 148.441C130.87 148.178 130.815 147.907 130.787 147.633C130.697 147.105 130.598 146.342 130.488 145.389C130.269 143.489 130.064 140.841 130.019 137.909C129.974 134.977 130.094 132.324 130.254 130.429C130.333 129.472 130.413 128.704 130.483 128.175C130.501 127.889 130.547 127.604 130.623 127.327Z" fill="#012737"/>
<path d="M133.52 132.384C133.52 132.414 133.41 132.489 133.251 132.673C133.028 132.942 132.886 133.269 132.842 133.616C132.805 133.863 132.822 134.116 132.89 134.357C132.959 134.598 133.079 134.821 133.241 135.012C133.463 135.21 133.735 135.343 134.027 135.399C134.319 135.455 134.621 135.43 134.9 135.328C135.18 135.225 135.426 135.049 135.613 134.818C135.8 134.587 135.921 134.309 135.963 134.015C135.961 133.764 135.906 133.516 135.801 133.289C135.696 133.061 135.544 132.858 135.355 132.693C135.096 132.459 134.776 132.303 134.432 132.244C134.188 132.209 134.044 132.244 134.039 132.205C134.034 132.165 134.173 132.12 134.442 132.115C134.83 132.13 135.202 132.27 135.505 132.514C135.735 132.69 135.923 132.916 136.055 133.175C136.187 133.434 136.26 133.719 136.268 134.01C136.234 134.37 136.099 134.714 135.878 135.002C135.658 135.289 135.361 135.508 135.021 135.634C134.681 135.76 134.313 135.788 133.958 135.714C133.604 135.64 133.277 135.468 133.016 135.216C132.83 134.991 132.697 134.726 132.627 134.442C132.557 134.158 132.552 133.862 132.612 133.576C132.68 133.193 132.871 132.843 133.156 132.579C133.255 132.479 133.382 132.412 133.52 132.384Z" fill="#012737"/>
<path d="M139.06 168.872C139.06 168.872 168.631 173.36 169.828 173.634C171.624 174.033 172.092 180.386 169.394 180.615C168.123 180.72 147.503 184.016 144.865 184.166C142.227 184.315 133.964 182.171 133.964 182.171L139.06 168.872Z" fill="#455A64"/>
<path d="M152.299 178.346C152.448 178.346 152.458 176.811 153.191 175.12C153.925 173.43 155.007 172.347 154.902 172.248C154.797 172.148 153.516 173.115 152.748 174.931C151.98 176.746 152.169 178.386 152.299 178.346Z" fill="#263238"/>
<path d="M149.143 177.349C149.288 177.349 149.417 175.968 150.001 174.382C150.584 172.796 151.357 171.644 151.243 171.56C151.128 171.475 150.145 172.557 149.547 174.217C148.949 175.878 149.023 177.374 149.143 177.349Z" fill="#263238"/>
<path d="M146.256 176.95C146.401 176.925 146.117 175.509 146.566 173.848C147.014 172.188 147.917 171.076 147.802 170.986C147.688 170.896 146.556 171.918 146.097 173.724C145.638 175.529 146.147 177.005 146.256 176.95Z" fill="#263238"/>
<path d="M146.315 173.195C146.37 173.195 146.524 172.372 146.37 171.026C146.268 170.24 146.075 169.469 145.796 168.727C145.633 168.288 145.438 167.861 145.213 167.45C145.092 167.19 144.905 166.966 144.669 166.802C144.511 166.706 144.322 166.67 144.139 166.701C143.956 166.732 143.79 166.828 143.672 166.972C143.476 167.212 143.375 167.515 143.388 167.824C143.391 168.08 143.409 168.334 143.443 168.587C143.505 169.058 143.62 169.52 143.787 169.964C144.071 170.707 144.455 171.408 144.929 172.048C145.324 172.661 145.832 173.194 146.425 173.619C146.485 173.564 145.926 172.956 145.213 171.854C144.799 171.219 144.464 170.535 144.216 169.819C144.074 169.4 143.976 168.967 143.921 168.528C143.881 168.084 143.812 167.53 144.041 167.296C144.082 167.237 144.143 167.197 144.212 167.182C144.282 167.167 144.354 167.179 144.415 167.216C144.578 167.336 144.707 167.495 144.789 167.68C145.011 168.07 145.206 168.475 145.372 168.892C145.662 169.598 145.879 170.331 146.021 171.081C146.275 172.362 146.24 173.19 146.315 173.195Z" fill="#263238"/>
<path d="M146.252 172.906C146.252 172.851 145.538 172.696 144.372 172.831C143.688 172.913 143.018 173.08 142.377 173.33C141.979 173.468 141.603 173.661 141.26 173.903C141.036 174.047 140.866 174.261 140.776 174.512C140.685 174.762 140.68 175.036 140.761 175.289C140.857 175.528 141.014 175.736 141.216 175.894C141.418 176.051 141.659 176.153 141.913 176.187C142.349 176.241 142.791 176.186 143.2 176.027C143.857 175.776 144.453 175.389 144.95 174.891C145.428 174.479 145.825 173.981 146.122 173.424C146.062 173.37 145.578 173.923 144.721 174.636C144.233 175.064 143.667 175.394 143.055 175.609C142.715 175.729 142.351 175.767 141.993 175.718C141.822 175.697 141.66 175.631 141.523 175.527C141.387 175.423 141.28 175.284 141.215 175.125C141.168 174.966 141.175 174.797 141.234 174.642C141.294 174.488 141.403 174.358 141.544 174.272C141.853 174.055 142.188 173.878 142.541 173.744C143.151 173.491 143.784 173.3 144.431 173.175C145.533 172.956 146.247 172.986 146.252 172.906Z" fill="#263238"/>
<path d="M156.728 178.142C156.867 178.107 156.578 176.9 156.982 175.494C157.386 174.088 158.219 173.185 158.114 173.085C158.009 172.986 156.937 173.793 156.513 175.364C156.089 176.935 156.618 178.207 156.728 178.142Z" fill="#263238"/>
<path d="M136.911 181.837C137.287 182.007 137.679 182.138 138.083 182.226C139.168 182.502 140.271 182.705 141.384 182.834C145.065 183.188 148.775 183.096 152.434 182.56C156.718 181.997 160.563 181.338 163.35 180.894L166.646 180.321C167.054 180.27 167.454 180.178 167.843 180.047C167.432 180.033 167.021 180.063 166.616 180.136L163.3 180.555L152.374 182.081C148.742 182.607 145.065 182.746 141.404 182.495C138.616 182.271 136.936 181.762 136.911 181.837Z" fill="#263238"/>
<path d="M136.143 182.605C136.192 182.67 136.921 182.106 138.172 181.378C139.764 180.379 141.604 179.847 143.483 179.842C145.677 179.917 147.378 181.184 148.495 182.071C149.077 182.611 149.695 183.111 150.345 183.567C149.883 182.914 149.337 182.325 148.719 181.817C148.075 181.224 147.365 180.705 146.605 180.271C145.657 179.726 144.591 179.418 143.498 179.374C141.534 179.374 139.618 179.981 138.013 181.114C137.316 181.512 136.686 182.015 136.143 182.605Z" fill="#263238"/>
<path d="M156 94.6094C155.885 95.3375 155.501 115.055 156.678 116.845C158.528 119.688 164.492 124.774 168.202 123.383C174.221 121.124 175.582 108.393 175.473 110.756L170.71 70.5286H161.54L160.777 84.9551L158.104 86.5908C157.922 88.2686 157.58 89.9251 157.082 91.5376L156 94.6094Z" fill="#FFBE9D"/>
<path d="M161.539 70.5287C161.539 70.5287 157.879 66.9084 157.879 66.1055C157.879 65.3027 156.448 64.8539 156.448 64.8539L154.124 63.6969C154.124 63.6969 152.628 62.2658 152.967 61.4629C153.16 60.9971 153.514 60.6165 153.964 60.3907C153.964 60.3907 154.079 58.426 155.54 57.8974C155.54 57.8974 154.169 56.4014 155.54 55.3093C156.912 54.2172 157.241 54.681 157.241 54.681C157.241 54.681 157.091 53.5191 157.894 53.4343C158.697 53.3495 164.441 51.9133 164.441 51.9133C165.264 52.3266 166.034 52.8373 166.735 53.4343C167.448 54.1474 167.807 54.5912 167.807 54.5912C168.437 53.7891 168.922 52.8828 169.239 51.9133C169.593 50.5719 170.131 46.5526 174.151 46.7321V47.7295C173.36 48.9206 172.813 50.256 172.54 51.659C172.006 54.1524 171.044 59.6926 171.044 59.6926L170.745 70.5537L161.539 70.5287Z" fill="#FFBE9D"/>
<path d="M158.008 110.657C157.971 110.524 157.944 110.389 157.929 110.253C157.889 109.983 157.814 109.594 157.774 109.081C157.627 107.638 157.605 106.184 157.709 104.737C157.868 102.593 158.156 100.46 158.572 98.3494C159.006 95.9658 159.594 93.3627 160.033 90.6101C160.891 85.0898 161 80.0183 161.14 76.358C161.205 74.5479 161.26 73.0718 161.295 72.0246L161.354 70.8427C161.354 70.7054 161.367 70.5684 161.394 70.4338C161.402 70.5717 161.402 70.7099 161.394 70.8477C161.394 71.1419 161.394 71.5309 161.394 72.0246C161.394 73.0768 161.354 74.5529 161.325 76.363C161.291 81.1432 160.941 85.916 160.277 90.65C159.834 93.4176 159.235 96.0157 158.781 98.3943C158.357 100.493 158.052 102.614 157.869 104.747C157.756 106.186 157.756 107.632 157.869 109.071C157.894 109.57 157.954 109.978 157.978 110.248C158.001 110.383 158.011 110.52 158.008 110.657Z" fill="#EB996E"/>
<path d="M164.407 54.0876C164.407 54.1225 164.008 54.1125 163.37 54.1973C162.732 54.282 161.844 54.3718 160.877 54.4616C159.687 54.6198 158.487 54.6915 157.286 54.676C158.453 54.4373 159.637 54.2856 160.827 54.2222C161.824 54.1324 162.697 54.0676 163.32 54.0327C163.682 53.9654 164.054 53.9842 164.407 54.0876Z" fill="#EB996E"/>
<path d="M162.721 58.3761C162.375 58.3983 162.028 58.3866 161.684 58.3412C161.051 58.3013 160.188 58.2864 159.191 58.2614C158.357 58.2547 157.524 58.1931 156.698 58.0769C156.353 58.047 156.017 57.961 155.7 57.8226C156.046 57.816 156.391 57.8394 156.732 57.8924C157.366 57.9473 158.228 57.9822 159.226 58.0021C160.223 58.0221 161.091 58.072 161.719 58.1567C162.062 58.1801 162.4 58.254 162.721 58.3761Z" fill="#EB996E"/>
<path d="M161.399 61.8415C161.043 61.8432 160.688 61.8013 160.342 61.7168C159.694 61.6071 158.806 61.4376 157.824 61.2181C156.841 60.9987 155.959 60.8192 155.33 60.6646C154.978 60.6053 154.635 60.5031 154.308 60.3604C154.666 60.3584 155.023 60.4003 155.37 60.4851C156.014 60.5948 156.906 60.7643 157.864 60.9838C158.821 61.2032 159.724 61.3827 160.357 61.5423C160.715 61.5984 161.066 61.6989 161.399 61.8415Z" fill="#EB996E"/>
<defs>
<linearGradient id="paint0_linear_1547_120855" x1="-23.9865" y1="-12.7106" x2="225.013" y2="217.398" gradientUnits="userSpaceOnUse">
<stop stop-color="#0976F6"/>
<stop offset="1" stop-color="#003AC2"/>
</linearGradient>
<linearGradient id="paint1_linear_1547_120855" x1="50.8758" y1="55.1135" x2="198.769" y2="191.787" gradientUnits="userSpaceOnUse">
<stop stop-color="#0976F6"/>
<stop offset="1" stop-color="#003AC2"/>
</linearGradient>
<linearGradient id="paint2_linear_1547_120855" x1="44.1352" y1="36.3012" x2="81.7744" y2="58.3436" gradientUnits="userSpaceOnUse">
<stop stop-color="#0976F6"/>
<stop offset="1" stop-color="#003AC2"/>
</linearGradient>
<linearGradient id="paint3_linear_1547_120855" x1="52.8598" y1="110.971" x2="72.7934" y2="124.296" gradientUnits="userSpaceOnUse">
<stop stop-color="#0976F6"/>
<stop offset="1" stop-color="#003AC2"/>
</linearGradient>
<linearGradient id="paint4_linear_1547_120855" x1="11.2699" y1="100.913" x2="39.5124" y2="123.855" gradientUnits="userSpaceOnUse">
<stop stop-color="#0976F6"/>
<stop offset="1" stop-color="#003AC2"/>
</linearGradient>
<linearGradient id="paint5_linear_1547_120855" x1="9.08872" y1="67.737" x2="43.1883" y2="93.5188" gradientUnits="userSpaceOnUse">
<stop stop-color="#0976F6"/>
<stop offset="1" stop-color="#003AC2"/>
</linearGradient>
<linearGradient id="paint6_linear_1547_120855" x1="29.2557" y1="149.885" x2="61.4775" y2="179.039" gradientUnits="userSpaceOnUse">
<stop stop-color="#0976F6"/>
<stop offset="1" stop-color="#003AC2"/>
</linearGradient>
</defs>
</svg>
