<svg width="25" height="30" viewBox="0 0 25 30" fill="none" xmlns="http://www.w3.org/2000/svg">
<path d="M17.5181 24.2355H7.37815V29.0508H6.75174V29.6668H18.1448V29.0508H17.5184L17.5181 24.2355ZM15.7655 28.2186H9.13187V25.0683H15.7655V28.2186ZM24.885 3.37747C24.9667 1.78116 23.7489 0.42244 22.1625 0.337373C20.6604 0.259933 19.3827 1.35524 19.1767 2.82454C19.1545 1.8055 19.0587 1.16076 19.0587 1.16076H5.83722C5.83722 1.16076 5.73944 1.82428 5.71842 2.86707C5.53248 1.37636 4.24317 0.259053 2.72647 0.337373C1.13942 0.42244 -0.0783763 1.78086 0.00393881 3.37747C0.204472 7.21485 7.78564 11.4996 7.85715 12.8779C7.87642 13.2754 7.57401 13.6145 7.17995 13.6362C6.78326 13.6556 6.44437 13.3505 6.42394 12.953C6.41547 12.7811 6.2704 12.6503 6.09847 12.66C5.928 12.6685 5.79869 12.8131 5.80686 12.9856H5.8057C5.84306 13.7271 6.47327 14.2953 7.21089 14.2569C7.94735 14.2182 8.51334 13.5849 8.47481 12.8448C8.46167 12.5896 8.36505 12.3136 8.21064 12.0243C9.49382 13.9483 10.6264 14.559 10.7621 15.3419C10.6168 15.4728 10.5721 15.686 10.669 15.928L10.6713 15.935L11.113 17.0389H11.1892C11.1903 17.7255 11.1903 18.8983 11.1903 20.059C11.1903 21.8542 10.7017 22.3048 10.7017 22.3048H10.2711V22.6794L8.06265 23.3423V23.9474H16.8333V23.3423L14.6251 22.6794V22.3048H14.1942C14.1942 22.3048 13.7053 21.8542 13.7053 20.059C13.7053 18.8983 13.7068 17.7255 13.7068 17.0389H13.7844L14.2261 15.935L14.2284 15.928C14.3241 15.686 14.2795 15.4728 14.1356 15.3419C14.2699 14.5675 15.3796 13.9641 16.6447 12.0862C16.5093 12.3537 16.4276 12.6075 16.4144 12.8445C16.3756 13.5846 16.9422 14.2179 17.6783 14.2566C18.416 14.295 19.0468 13.7268 19.0835 12.9853H19.0821C19.0905 12.8128 18.9612 12.6679 18.7905 12.6597C18.6185 12.65 18.4738 12.7805 18.4653 12.9527C18.4449 13.3502 18.1063 13.6553 17.7093 13.6359C17.3146 13.6139 17.0125 13.2751 17.0321 12.8776C17.1033 11.4996 24.6842 7.21485 24.885 3.37747ZM1.24129 3.31235C1.19517 2.40332 1.88843 1.6295 2.79185 1.58052C3.69528 1.53446 4.46443 2.23142 4.51405 3.14046C4.53215 3.48307 4.82375 3.74737 5.16469 3.72947C5.4201 3.71598 5.63172 3.5479 5.71375 3.32027C5.71959 5.0043 5.9461 7.4328 6.95694 9.71845C7.26081 10.4057 7.57109 10.9892 7.87729 11.4972C6.17028 9.13325 1.37848 5.94941 1.24129 3.31235ZM16.9833 9.71845C15.2769 13.5793 13.36 14.3085 13.1811 15.3422C13.3253 15.4733 13.3696 15.6863 13.2739 15.9283L13.2716 15.935L12.8302 17.0392C12.8302 17.0392 13.0996 16.3662 13.1539 15.8655C13.1831 15.6027 13.0588 15.3874 13.0091 15.3422C13.1875 14.3085 14.7719 13.579 16.4789 9.71845C17.4915 7.43045 17.7732 4.99872 17.7776 3.3147C17.7828 2.01494 18.2303 2.00204 18.2274 3.28449C18.2259 4.96968 18.0018 7.41666 16.9833 9.71845ZM17.9373 9.71845C18.9458 7.43837 19.1743 5.01544 19.1816 3.33201C19.2674 3.55289 19.4732 3.71598 19.724 3.72947C20.0649 3.74737 20.3562 3.48337 20.3746 3.14046C20.4242 2.23142 21.1934 1.53446 22.0968 1.58052C23.0002 1.6295 23.6932 2.40332 23.6474 3.31235C23.5116 5.93211 18.7805 9.09159 17.0446 11.4509C17.3415 10.9534 17.6433 10.3849 17.9373 9.71845Z" fill="#F6A509"/>
</svg>
