<svg width="75" height="84" viewBox="0 0 75 84" fill="none" xmlns="http://www.w3.org/2000/svg">
<path d="M25.1094 23.1867C25.1094 21.7422 26.2975 20.5713 27.7632 20.5713C29.2289 20.5713 30.4171 21.7422 30.4171 23.1867V31.4065C30.4171 32.8509 29.2289 34.0218 27.7632 34.0218C26.2975 34.0218 25.1094 32.8509 25.1094 31.4065V23.1867Z" fill="#09AFF6"/>
<path d="M50.8887 23.1867C50.8887 21.7422 49.7005 20.5713 48.2348 20.5713C46.7691 20.5713 45.581 21.7422 45.581 23.1867V31.4065C45.581 32.8509 46.7691 34.0218 48.2348 34.0218C49.7005 34.0218 50.8887 32.8509 50.8887 31.4065V23.1867Z" fill="#09AFF6"/>
<path d="M22.0762 24.6814C22.0762 24.0624 22.5854 23.5605 23.2135 23.5605C23.8417 23.5605 24.3509 24.0624 24.3509 24.6814V29.9122C24.3509 30.5312 23.8417 31.0331 23.2135 31.0331C22.5854 31.0331 22.0762 30.5312 22.0762 29.9122V24.6814Z" fill="#09AFF6"/>
<path d="M53.9219 24.6814C53.9219 24.0624 53.4127 23.5605 52.7845 23.5605C52.1564 23.5605 51.6471 24.0624 51.6471 24.6814V29.9122C51.6471 30.5312 52.1564 31.0331 52.7845 31.0331C53.4127 31.0331 53.9219 30.5312 53.9219 29.9122V24.6814Z" fill="#09AFF6"/>
<path fill-rule="evenodd" clip-rule="evenodd" d="M37.9992 8.24176C30.2894 8.24176 24.3509 13.8277 24.3509 21.5C24.3509 22.119 23.8417 22.6209 23.2135 22.6209C22.5854 22.6209 22.0762 22.119 22.0762 21.5C22.0762 12.6645 28.9584 6 37.9992 6C47.0401 6 53.9223 12.6645 53.9223 21.5C53.9223 22.119 53.4131 22.6209 52.785 22.6209C52.1568 22.6209 51.6476 22.119 51.6476 21.5C51.6476 13.8277 45.7091 8.24176 37.9992 8.24176Z" fill="#F6A509"/>
<path fill-rule="evenodd" clip-rule="evenodd" d="M33.4492 38.5055C33.4492 37.6801 34.1282 37.011 34.9657 37.011L41.0316 37.011C41.8692 37.011 42.5481 37.6801 42.5481 38.5055C42.5481 39.3309 41.8692 40 41.0316 40L34.9657 40C34.1282 40 33.4492 39.3309 33.4492 38.5055Z" fill="#043449"/>
<path fill-rule="evenodd" clip-rule="evenodd" d="M52.7844 31.7802C53.2032 31.7802 53.5427 32.1148 53.5427 32.5275V34.022C53.5427 36.6356 51.3478 39.2528 48.235 39.2528H41.0317C40.6129 39.2528 40.2734 38.9182 40.2734 38.5055C40.2734 38.0928 40.6129 37.7583 41.0317 37.7583H48.235C50.4298 37.7583 52.0262 35.8919 52.0262 34.022V32.5275C52.0262 32.1148 52.3657 31.7802 52.7844 31.7802Z" fill="#043449"/>
<path opacity="0.7" d="M17.1712 64.26H19.6112V65H16.2612V58.03H17.1712V64.26ZM20.2376 62.24C20.2376 61.68 20.351 61.19 20.5776 60.77C20.8043 60.3433 21.1143 60.0133 21.5076 59.78C21.9076 59.5467 22.351 59.43 22.8376 59.43C23.3176 59.43 23.7343 59.5333 24.0876 59.74C24.441 59.9467 24.7043 60.2067 24.8776 60.52V59.52H25.7976V65H24.8776V63.98C24.6976 64.3 24.4276 64.5667 24.0676 64.78C23.7143 64.9867 23.301 65.09 22.8276 65.09C22.341 65.09 21.901 64.97 21.5076 64.73C21.1143 64.49 20.8043 64.1533 20.5776 63.72C20.351 63.2867 20.2376 62.7933 20.2376 62.24ZM24.8776 62.25C24.8776 61.8367 24.7943 61.4767 24.6276 61.17C24.461 60.8633 24.2343 60.63 23.9476 60.47C23.6676 60.3033 23.3576 60.22 23.0176 60.22C22.6776 60.22 22.3676 60.3 22.0876 60.46C21.8076 60.62 21.5843 60.8533 21.4176 61.16C21.251 61.4667 21.1676 61.8267 21.1676 62.24C21.1676 62.66 21.251 63.0267 21.4176 63.34C21.5843 63.6467 21.8076 63.8833 22.0876 64.05C22.3676 64.21 22.6776 64.29 23.0176 64.29C23.3576 64.29 23.6676 64.21 23.9476 64.05C24.2343 63.8833 24.461 63.6467 24.6276 63.34C24.7943 63.0267 24.8776 62.6633 24.8776 62.25ZM32.0554 59.52L28.7554 67.58H27.8154L28.8954 64.94L26.6854 59.52H27.6954L29.4154 63.96L31.1154 59.52H32.0554ZM32.6302 62.24C32.6302 61.68 32.7435 61.19 32.9702 60.77C33.1969 60.3433 33.5069 60.0133 33.9002 59.78C34.3002 59.5467 34.7435 59.43 35.2302 59.43C35.7102 59.43 36.1269 59.5333 36.4802 59.74C36.8335 59.9467 37.0969 60.2067 37.2702 60.52V59.52H38.1902V65H37.2702V63.98C37.0902 64.3 36.8202 64.5667 36.4602 64.78C36.1069 64.9867 35.6935 65.09 35.2202 65.09C34.7335 65.09 34.2935 64.97 33.9002 64.73C33.5069 64.49 33.1969 64.1533 32.9702 63.72C32.7435 63.2867 32.6302 62.7933 32.6302 62.24ZM37.2702 62.25C37.2702 61.8367 37.1869 61.4767 37.0202 61.17C36.8535 60.8633 36.6269 60.63 36.3402 60.47C36.0602 60.3033 35.7502 60.22 35.4102 60.22C35.0702 60.22 34.7602 60.3 34.4802 60.46C34.2002 60.62 33.9769 60.8533 33.8102 61.16C33.6435 61.4667 33.5602 61.8267 33.5602 62.24C33.5602 62.66 33.6435 63.0267 33.8102 63.34C33.9769 63.6467 34.2002 63.8833 34.4802 64.05C34.7602 64.21 35.0702 64.29 35.4102 64.29C35.7502 64.29 36.0602 64.21 36.3402 64.05C36.6269 63.8833 36.8535 63.6467 37.0202 63.34C37.1869 63.0267 37.2702 62.6633 37.2702 62.25ZM42.398 59.42C43.0647 59.42 43.6047 59.6233 44.018 60.03C44.4313 60.43 44.638 61.01 44.638 61.77V65H43.738V61.9C43.738 61.3533 43.6013 60.9367 43.328 60.65C43.0547 60.3567 42.6813 60.21 42.208 60.21C41.728 60.21 41.3447 60.36 41.058 60.66C40.778 60.96 40.638 61.3967 40.638 61.97V65H39.728V59.52H40.638V60.3C40.818 60.02 41.0613 59.8033 41.368 59.65C41.6813 59.4967 42.0247 59.42 42.398 59.42ZM45.7845 62.24C45.7845 61.68 45.8978 61.19 46.1245 60.77C46.3512 60.3433 46.6612 60.0133 47.0545 59.78C47.4545 59.5467 47.8978 59.43 48.3845 59.43C48.8645 59.43 49.2812 59.5333 49.6345 59.74C49.9878 59.9467 50.2512 60.2067 50.4245 60.52V59.52H51.3445V65H50.4245V63.98C50.2445 64.3 49.9745 64.5667 49.6145 64.78C49.2612 64.9867 48.8478 65.09 48.3745 65.09C47.8878 65.09 47.4478 64.97 47.0545 64.73C46.6612 64.49 46.3512 64.1533 46.1245 63.72C45.8978 63.2867 45.7845 62.7933 45.7845 62.24ZM50.4245 62.25C50.4245 61.8367 50.3412 61.4767 50.1745 61.17C50.0078 60.8633 49.7812 60.63 49.4945 60.47C49.2145 60.3033 48.9045 60.22 48.5645 60.22C48.2245 60.22 47.9145 60.3 47.6345 60.46C47.3545 60.62 47.1312 60.8533 46.9645 61.16C46.7978 61.4667 46.7145 61.8267 46.7145 62.24C46.7145 62.66 46.7978 63.0267 46.9645 63.34C47.1312 63.6467 47.3545 63.8833 47.6345 64.05C47.9145 64.21 48.2245 64.29 48.5645 64.29C48.9045 64.29 49.2145 64.21 49.4945 64.05C49.7812 63.8833 50.0078 63.6467 50.1745 63.34C50.3412 63.0267 50.4245 62.6633 50.4245 62.25ZM55.5523 59.42C56.219 59.42 56.759 59.6233 57.1723 60.03C57.5856 60.43 57.7923 61.01 57.7923 61.77V65H56.8923V61.9C56.8923 61.3533 56.7556 60.9367 56.4823 60.65C56.209 60.3567 55.8356 60.21 55.3623 60.21C54.8823 60.21 54.499 60.36 54.2123 60.66C53.9323 60.96 53.7923 61.3967 53.7923 61.97V65H52.8823V59.52H53.7923V60.3C53.9723 60.02 54.2156 59.8033 54.5223 59.65C54.8356 59.4967 55.179 59.42 55.5523 59.42ZM12.6204 76.51C12.6204 75.83 12.7738 75.22 13.0804 74.68C13.3871 74.1333 13.8038 73.7067 14.3304 73.4C14.8638 73.0933 15.4538 72.94 16.1004 72.94C16.8604 72.94 17.5238 73.1233 18.0904 73.49C18.6571 73.8567 19.0704 74.3767 19.3304 75.05H18.2404C18.0471 74.63 17.7671 74.3067 17.4004 74.08C17.0404 73.8533 16.6071 73.74 16.1004 73.74C15.6138 73.74 15.1771 73.8533 14.7904 74.08C14.4038 74.3067 14.1004 74.63 13.8804 75.05C13.6604 75.4633 13.5504 75.95 13.5504 76.51C13.5504 77.0633 13.6604 77.55 13.8804 77.97C14.1004 78.3833 14.4038 78.7033 14.7904 78.93C15.1771 79.1567 15.6138 79.27 16.1004 79.27C16.6071 79.27 17.0404 79.16 17.4004 78.94C17.7671 78.7133 18.0471 78.39 18.2404 77.97H19.3304C19.0704 78.6367 18.6571 79.1533 18.0904 79.52C17.5238 79.88 16.8604 80.06 16.1004 80.06C15.4538 80.06 14.8638 79.91 14.3304 79.61C13.8038 79.3033 13.3871 78.88 13.0804 78.34C12.7738 77.8 12.6204 77.19 12.6204 76.51ZM25.545 74.52V80H24.635V79.19C24.4617 79.47 24.2184 79.69 23.905 79.85C23.5984 80.0033 23.2584 80.08 22.885 80.08C22.4584 80.08 22.075 79.9933 21.735 79.82C21.395 79.64 21.125 79.3733 20.925 79.02C20.7317 78.6667 20.635 78.2367 20.635 77.73V74.52H21.535V77.61C21.535 78.15 21.6717 78.5667 21.945 78.86C22.2184 79.1467 22.5917 79.29 23.065 79.29C23.5517 79.29 23.935 79.14 24.215 78.84C24.495 78.54 24.635 78.1033 24.635 77.53V74.52H25.545ZM29.0215 80.09C28.6015 80.09 28.2249 80.02 27.8915 79.88C27.5582 79.7333 27.2949 79.5333 27.1015 79.28C26.9082 79.02 26.8015 78.7233 26.7815 78.39H27.7215C27.7482 78.6633 27.8749 78.8867 28.1015 79.06C28.3349 79.2333 28.6382 79.32 29.0115 79.32C29.3582 79.32 29.6315 79.2433 29.8315 79.09C30.0315 78.9367 30.1315 78.7433 30.1315 78.51C30.1315 78.27 30.0249 78.0933 29.8115 77.98C29.5982 77.86 29.2682 77.7433 28.8215 77.63C28.4149 77.5233 28.0815 77.4167 27.8215 77.31C27.5682 77.1967 27.3482 77.0333 27.1615 76.82C26.9815 76.6 26.8915 76.3133 26.8915 75.96C26.8915 75.68 26.9749 75.4233 27.1415 75.19C27.3082 74.9567 27.5449 74.7733 27.8515 74.64C28.1582 74.5 28.5082 74.43 28.9015 74.43C29.5082 74.43 29.9982 74.5833 30.3715 74.89C30.7449 75.1967 30.9449 75.6167 30.9715 76.15H30.0615C30.0415 75.8633 29.9249 75.6333 29.7115 75.46C29.5049 75.2867 29.2249 75.2 28.8715 75.2C28.5449 75.2 28.2849 75.27 28.0915 75.41C27.8982 75.55 27.8015 75.7333 27.8015 75.96C27.8015 76.14 27.8582 76.29 27.9715 76.41C28.0915 76.5233 28.2382 76.6167 28.4115 76.69C28.5915 76.7567 28.8382 76.8333 29.1515 76.92C29.5449 77.0267 29.8649 77.1333 30.1115 77.24C30.3582 77.34 30.5682 77.4933 30.7415 77.7C30.9215 77.9067 31.0149 78.1767 31.0215 78.51C31.0215 78.81 30.9382 79.08 30.7715 79.32C30.6049 79.56 30.3682 79.75 30.0615 79.89C29.7615 80.0233 29.4149 80.09 29.0215 80.09ZM33.4161 75.27V78.5C33.4161 78.7667 33.4728 78.9567 33.5861 79.07C33.6995 79.1767 33.8961 79.23 34.1761 79.23H34.8461V80H34.0261C33.5195 80 33.1395 79.8833 32.8861 79.65C32.6328 79.4167 32.5061 79.0333 32.5061 78.5V75.27H31.7961V74.52H32.5061V73.14H33.4161V74.52H34.8461V75.27H33.4161ZM38.3387 80.09C37.8254 80.09 37.3587 79.9733 36.9387 79.74C36.5254 79.5067 36.1987 79.1767 35.9587 78.75C35.7254 78.3167 35.6087 77.8167 35.6087 77.25C35.6087 76.69 35.7287 76.1967 35.9687 75.77C36.2154 75.3367 36.5487 75.0067 36.9687 74.78C37.3887 74.5467 37.8587 74.43 38.3787 74.43C38.8987 74.43 39.3687 74.5467 39.7887 74.78C40.2087 75.0067 40.5387 75.3333 40.7787 75.76C41.0254 76.1867 41.1487 76.6833 41.1487 77.25C41.1487 77.8167 41.022 78.3167 40.7687 78.75C40.522 79.1767 40.1854 79.5067 39.7587 79.74C39.332 79.9733 38.8587 80.09 38.3387 80.09ZM38.3387 79.29C38.6654 79.29 38.972 79.2133 39.2587 79.06C39.5454 78.9067 39.7754 78.6767 39.9487 78.37C40.1287 78.0633 40.2187 77.69 40.2187 77.25C40.2187 76.81 40.132 76.4367 39.9587 76.13C39.7854 75.8233 39.5587 75.5967 39.2787 75.45C38.9987 75.2967 38.6954 75.22 38.3687 75.22C38.0354 75.22 37.7287 75.2967 37.4487 75.45C37.1754 75.5967 36.9554 75.8233 36.7887 76.13C36.622 76.4367 36.5387 76.81 36.5387 77.25C36.5387 77.6967 36.6187 78.0733 36.7787 78.38C36.9454 78.6867 37.1654 78.9167 37.4387 79.07C37.712 79.2167 38.012 79.29 38.3387 79.29ZM48.9352 74.42C49.3619 74.42 49.7419 74.51 50.0752 74.69C50.4085 74.8633 50.6719 75.1267 50.8652 75.48C51.0585 75.8333 51.1552 76.2633 51.1552 76.77V80H50.2552V76.9C50.2552 76.3533 50.1185 75.9367 49.8452 75.65C49.5785 75.3567 49.2152 75.21 48.7552 75.21C48.2819 75.21 47.9052 75.3633 47.6252 75.67C47.3452 75.97 47.2052 76.4067 47.2052 76.98V80H46.3052V76.9C46.3052 76.3533 46.1685 75.9367 45.8952 75.65C45.6285 75.3567 45.2652 75.21 44.8052 75.21C44.3319 75.21 43.9552 75.3633 43.6752 75.67C43.3952 75.97 43.2552 76.4067 43.2552 76.98V80H42.3452V74.52H43.2552V75.31C43.4352 75.0233 43.6752 74.8033 43.9752 74.65C44.2819 74.4967 44.6185 74.42 44.9852 74.42C45.4452 74.42 45.8519 74.5233 46.2052 74.73C46.5585 74.9367 46.8219 75.24 46.9952 75.64C47.1485 75.2533 47.4019 74.9533 47.7552 74.74C48.1085 74.5267 48.5019 74.42 48.9352 74.42ZM57.6479 77.05C57.6479 77.2233 57.6379 77.4067 57.6179 77.6H53.2379C53.2713 78.14 53.4546 78.5633 53.7879 78.87C54.1279 79.17 54.5379 79.32 55.0179 79.32C55.4113 79.32 55.7379 79.23 55.9979 79.05C56.2646 78.8633 56.4513 78.6167 56.5579 78.31H57.5379C57.3913 78.8367 57.0979 79.2667 56.6579 79.6C56.2179 79.9267 55.6713 80.09 55.0179 80.09C54.4979 80.09 54.0313 79.9733 53.6179 79.74C53.2113 79.5067 52.8913 79.1767 52.6579 78.75C52.4246 78.3167 52.3079 77.8167 52.3079 77.25C52.3079 76.6833 52.4213 76.1867 52.6479 75.76C52.8746 75.3333 53.1913 75.0067 53.5979 74.78C54.0113 74.5467 54.4846 74.43 55.0179 74.43C55.5379 74.43 55.9979 74.5433 56.3979 74.77C56.7979 74.9967 57.1046 75.31 57.3179 75.71C57.5379 76.1033 57.6479 76.55 57.6479 77.05ZM56.7079 76.86C56.7079 76.5133 56.6313 76.2167 56.4779 75.97C56.3246 75.7167 56.1146 75.5267 55.8479 75.4C55.5879 75.2667 55.2979 75.2 54.9779 75.2C54.5179 75.2 54.1246 75.3467 53.7979 75.64C53.4779 75.9333 53.2946 76.34 53.2479 76.86H56.7079ZM59.7591 75.41C59.9191 75.0967 60.1458 74.8533 60.4391 74.68C60.7391 74.5067 61.1024 74.42 61.5291 74.42V75.36H61.2891C60.2691 75.36 59.7591 75.9133 59.7591 77.02V80H58.8491V74.52H59.7591V75.41Z" fill="#043449"/>
</svg>
