<svg width="75" height="83" viewBox="0 0 75 83" fill="none" xmlns="http://www.w3.org/2000/svg">
<path d="M52.0742 13.9335C52.0742 12.1451 50.6245 10.6954 48.8361 10.6954H31.3505C29.5621 10.6954 28.1124 12.1451 28.1124 13.9335V39.1905H50.1314C51.2044 39.1905 52.0742 38.3207 52.0742 37.2477V13.9335Z" fill="#F6A509"/>
<path fill-rule="evenodd" clip-rule="evenodd" d="M31.3505 11.5049H48.8361C50.1774 11.5049 51.2647 12.5922 51.2647 13.9335V37.2477C51.2647 37.8736 50.7573 38.381 50.1314 38.381H28.9219V13.9335C28.9219 12.5922 30.0092 11.5049 31.3505 11.5049ZM48.8361 10.6954C50.6245 10.6954 52.0742 12.1451 52.0742 13.9335V37.2477C52.0742 38.3207 51.2044 39.1905 50.1314 39.1905H28.1124V13.9335C28.1124 12.1451 29.5621 10.6954 31.3505 10.6954H48.8361Z" fill="white"/>
<path d="M24.2266 10.0476C24.2266 8.2593 25.6763 6.80956 27.4646 6.80956H44.9503C46.7386 6.80956 48.1884 8.25929 48.1884 10.0476V37.2475C48.1884 38.219 49.1598 39.1904 50.1312 39.1904H26.1694C25.0964 39.1904 24.2266 38.3205 24.2266 37.2475V10.0476Z" fill="#09AFF6"/>
<path d="M24.2266 10.0476C24.2266 8.2593 25.6763 6.80956 27.4646 6.80956H44.9503C46.7386 6.80956 48.1884 8.25929 48.1884 10.0476V37.2475C48.1884 38.219 49.1598 39.1904 50.1312 39.1904H26.1694C25.0964 39.1904 24.2266 38.3205 24.2266 37.2475V10.0476Z" fill="url(#paint0_linear_1699_17405)"/>
<path fill-rule="evenodd" clip-rule="evenodd" d="M26.1703 39.1903C25.0973 39.1903 24.2275 38.3205 24.2275 37.2475V10.0476C24.2275 8.25926 25.6772 6.80952 27.4656 6.80952H44.9512C46.7396 6.80952 48.1893 8.25926 48.1893 10.0476V37.2475C48.1893 37.648 48.3544 38.0484 48.6165 38.3808C48.9902 38.8548 49.5612 39.1903 50.1322 39.1903H26.1703ZM50.1322 39.9999V39.1903V38.3808C49.9097 38.3808 49.6195 38.2615 49.3689 38.0108C49.1182 37.7601 48.9988 37.4699 48.9988 37.2475V10.0476C48.9988 7.81217 47.1866 6 44.9512 6H27.4656C25.2301 6 23.418 7.81217 23.418 10.0476V37.2475C23.418 38.7676 24.6502 39.9999 26.1703 39.9999H50.1322Z" fill="white"/>
<path d="M31.3114 15.1846H30.264L28.5122 12.4545V15.1846H27.4648V10.7584H28.5122L30.264 13.5011V10.7584H31.3114V15.1846Z" fill="white"/>
<path d="M33.1181 11.6222V12.5175H34.5207V13.3498H33.1181V14.3208H34.7045V15.1846H32.0707V10.7584H34.7045V11.6222H33.1181Z" fill="white"/>
<path d="M41.3014 10.7584L40.1805 15.1846H38.9126L38.2266 12.2716L37.516 15.1846H36.2481L35.1578 10.7584H36.2788L36.8974 13.9803L37.663 10.7584H38.8146L39.5496 13.9803L40.1744 10.7584H41.3014Z" fill="white"/>
<path d="M43.3825 15.2287C43.068 15.2287 42.7863 15.1762 42.5372 15.0711C42.2881 14.966 42.088 14.8105 41.9369 14.6045C41.7899 14.3985 41.7123 14.1505 41.7042 13.8605H42.8189C42.8353 14.0244 42.8904 14.1505 42.9843 14.2388C43.0782 14.3229 43.2007 14.3649 43.3518 14.3649C43.507 14.3649 43.6295 14.3292 43.7193 14.2577C43.8092 14.1821 43.8541 14.0791 43.8541 13.9488C43.8541 13.8395 43.8173 13.7491 43.7438 13.6777C43.6744 13.6062 43.5866 13.5474 43.4805 13.5011C43.3784 13.4549 43.2314 13.4023 43.0394 13.3435C42.7618 13.2552 42.5351 13.167 42.3596 13.0787C42.184 12.9904 42.0329 12.8601 41.9063 12.6878C41.7797 12.5154 41.7164 12.2906 41.7164 12.0131C41.7164 11.6012 41.8614 11.2797 42.1513 11.0485C42.4412 10.8131 42.8189 10.6954 43.2845 10.6954C43.7581 10.6954 44.1399 10.8131 44.4299 11.0485C44.7198 11.2797 44.875 11.6033 44.8954 12.0194H43.7622C43.754 11.8765 43.703 11.7651 43.6091 11.6853C43.5152 11.6012 43.3947 11.5592 43.2477 11.5592C43.1211 11.5592 43.019 11.5949 42.9414 11.6664C42.8639 11.7336 42.8251 11.8324 42.8251 11.9627C42.8251 12.1056 42.8904 12.217 43.0211 12.2969C43.1517 12.3767 43.3559 12.4629 43.6336 12.5554C43.9113 12.652 44.1358 12.7445 44.3074 12.8328C44.4829 12.9211 44.634 13.0493 44.7606 13.2174C44.8872 13.3855 44.9505 13.602 44.9505 13.8668C44.9505 14.119 44.8872 14.3481 44.7606 14.5541C44.6381 14.76 44.4584 14.924 44.2216 15.0459C43.9848 15.1678 43.705 15.2287 43.3825 15.2287Z" fill="white"/>
<path d="M26.8184 21.057C26.8184 19.984 27.6882 19.1142 28.7612 19.1142H43.6564C44.7294 19.1142 45.5992 19.984 45.5992 21.057C45.5992 22.13 44.7294 22.9999 43.6564 22.9999H28.7612C27.6882 22.9999 26.8184 22.13 26.8184 21.057Z" fill="white"/>
<path d="M26.8184 27.5332C26.8184 26.4602 27.6882 25.5904 28.7612 25.5904H43.6564C44.7294 25.5904 45.5992 26.4602 45.5992 27.5332V27.5332C45.5992 28.6062 44.7294 29.4761 43.6564 29.4761H28.7612C27.6882 29.4761 26.8184 28.6062 26.8184 27.5332V27.5332Z" fill="#FAFAFA"/>
<path d="M26.8184 34.0095C26.8184 32.9365 27.6882 32.0666 28.7612 32.0666H43.6564C44.7294 32.0666 45.5992 32.9365 45.5992 34.0095V34.0095C45.5992 35.0825 44.7294 35.9523 43.6564 35.9523H28.7612C27.6882 35.9523 26.8184 35.0825 26.8184 34.0095V34.0095Z" fill="#043449"/>
<path opacity="0.7" d="M20.4955 58.03V65H19.5855V61.84H16.0355V65H15.1255V58.03H16.0355V61.09H19.5855V58.03H20.4955ZM24.4393 65.09C23.926 65.09 23.4593 64.9733 23.0393 64.74C22.626 64.5067 22.2993 64.1767 22.0593 63.75C21.826 63.3167 21.7093 62.8167 21.7093 62.25C21.7093 61.69 21.8293 61.1967 22.0693 60.77C22.316 60.3367 22.6493 60.0067 23.0693 59.78C23.4893 59.5467 23.9593 59.43 24.4793 59.43C24.9993 59.43 25.4693 59.5467 25.8893 59.78C26.3093 60.0067 26.6393 60.3333 26.8793 60.76C27.126 61.1867 27.2493 61.6833 27.2493 62.25C27.2493 62.8167 27.1226 63.3167 26.8693 63.75C26.6226 64.1767 26.286 64.5067 25.8593 64.74C25.4326 64.9733 24.9593 65.09 24.4393 65.09ZM24.4393 64.29C24.766 64.29 25.0726 64.2133 25.3593 64.06C25.646 63.9067 25.876 63.6767 26.0493 63.37C26.2293 63.0633 26.3193 62.69 26.3193 62.25C26.3193 61.81 26.2326 61.4367 26.0593 61.13C25.886 60.8233 25.6593 60.5967 25.3793 60.45C25.0993 60.2967 24.796 60.22 24.4693 60.22C24.136 60.22 23.8293 60.2967 23.5493 60.45C23.276 60.5967 23.056 60.8233 22.8893 61.13C22.7226 61.4367 22.6393 61.81 22.6393 62.25C22.6393 62.6967 22.7193 63.0733 22.8793 63.38C23.046 63.6867 23.266 63.9167 23.5393 64.07C23.8126 64.2167 24.1126 64.29 24.4393 64.29ZM29.5558 60.27V63.5C29.5558 63.7667 29.6124 63.9567 29.7258 64.07C29.8391 64.1767 30.0358 64.23 30.3158 64.23H30.9858V65H30.1658C29.6591 65 29.2791 64.8833 29.0258 64.65C28.7724 64.4167 28.6458 64.0333 28.6458 63.5V60.27H27.9358V59.52H28.6458V58.14H29.5558V59.52H30.9858V60.27H29.5558ZM40.2344 65H39.3244L35.6644 59.45V65H34.7544V58.02H35.6644L39.3244 63.56V58.02H40.2344V65ZM46.7856 62.05C46.7856 62.2233 46.7756 62.4067 46.7556 62.6H42.3756C42.409 63.14 42.5923 63.5633 42.9256 63.87C43.2656 64.17 43.6756 64.32 44.1556 64.32C44.549 64.32 44.8756 64.23 45.1356 64.05C45.4023 63.8633 45.589 63.6167 45.6956 63.31H46.6756C46.529 63.8367 46.2356 64.2667 45.7956 64.6C45.3556 64.9267 44.809 65.09 44.1556 65.09C43.6356 65.09 43.169 64.9733 42.7556 64.74C42.349 64.5067 42.029 64.1767 41.7956 63.75C41.5623 63.3167 41.4456 62.8167 41.4456 62.25C41.4456 61.6833 41.559 61.1867 41.7856 60.76C42.0123 60.3333 42.329 60.0067 42.7356 59.78C43.149 59.5467 43.6223 59.43 44.1556 59.43C44.6756 59.43 45.1356 59.5433 45.5356 59.77C45.9356 59.9967 46.2423 60.31 46.4556 60.71C46.6756 61.1033 46.7856 61.55 46.7856 62.05ZM45.8456 61.86C45.8456 61.5133 45.769 61.2167 45.6156 60.97C45.4623 60.7167 45.2523 60.5267 44.9856 60.4C44.7256 60.2667 44.4356 60.2 44.1156 60.2C43.6556 60.2 43.2623 60.3467 42.9356 60.64C42.6156 60.9333 42.4323 61.34 42.3856 61.86H45.8456ZM55.2868 59.52L53.5768 65H52.6368L51.3168 60.65L49.9968 65H49.0568L47.3368 59.52H48.2668L49.5268 64.12L50.8868 59.52H51.8168L53.1468 64.13L54.3868 59.52H55.2868ZM58.1299 65.09C57.7099 65.09 57.3333 65.02 56.9999 64.88C56.6666 64.7333 56.4033 64.5333 56.2099 64.28C56.0166 64.02 55.9099 63.7233 55.8899 63.39H56.8299C56.8566 63.6633 56.9833 63.8867 57.2099 64.06C57.4433 64.2333 57.7466 64.32 58.1199 64.32C58.4666 64.32 58.7399 64.2433 58.9399 64.09C59.1399 63.9367 59.2399 63.7433 59.2399 63.51C59.2399 63.27 59.1333 63.0933 58.9199 62.98C58.7066 62.86 58.3766 62.7433 57.9299 62.63C57.5233 62.5233 57.1899 62.4167 56.9299 62.31C56.6766 62.1967 56.4566 62.0333 56.2699 61.82C56.0899 61.6 55.9999 61.3133 55.9999 60.96C55.9999 60.68 56.0833 60.4233 56.2499 60.19C56.4166 59.9567 56.6533 59.7733 56.9599 59.64C57.2666 59.5 57.6166 59.43 58.0099 59.43C58.6166 59.43 59.1066 59.5833 59.4799 59.89C59.8533 60.1967 60.0533 60.6167 60.0799 61.15H59.1699C59.1499 60.8633 59.0333 60.6333 58.8199 60.46C58.6133 60.2867 58.3333 60.2 57.9799 60.2C57.6533 60.2 57.3933 60.27 57.1999 60.41C57.0066 60.55 56.9099 60.7333 56.9099 60.96C56.9099 61.14 56.9666 61.29 57.0799 61.41C57.1999 61.5233 57.3466 61.6167 57.5199 61.69C57.6999 61.7567 57.9466 61.8333 58.2599 61.92C58.6533 62.0267 58.9733 62.1333 59.2199 62.24C59.4666 62.34 59.6766 62.4933 59.8499 62.7C60.0299 62.9067 60.1233 63.1767 60.1299 63.51C60.1299 63.81 60.0466 64.08 59.8799 64.32C59.7133 64.56 59.4766 64.75 59.1699 64.89C58.8699 65.0233 58.5233 65.09 58.1299 65.09Z" fill="#043449"/>
<defs>
<linearGradient id="paint0_linear_1699_17405" x1="21.3777" y1="5.17858" x2="52.7849" y2="28.3982" gradientUnits="userSpaceOnUse">
<stop stop-color="#09E8F6"/>
<stop offset="1" stop-color="#0976F6"/>
</linearGradient>
</defs>
</svg>
