<svg width="75" height="83" viewBox="0 0 75 83" fill="none" xmlns="http://www.w3.org/2000/svg">
<path opacity="0.7" d="M20.764 58.03V65H19.854V58.03H20.764ZM24.9849 59.42C25.6516 59.42 26.1916 59.6233 26.6049 60.03C27.0183 60.43 27.2249 61.01 27.2249 61.77V65H26.3249V61.9C26.3249 61.3533 26.1883 60.9367 25.9149 60.65C25.6416 60.3567 25.2683 60.21 24.7949 60.21C24.3149 60.21 23.9316 60.36 23.6449 60.66C23.3649 60.96 23.2249 61.3967 23.2249 61.97V65H22.3149V59.52H23.2249V60.3C23.4049 60.02 23.6483 59.8033 23.9549 59.65C24.2683 59.4967 24.6116 59.42 24.9849 59.42ZM28.3714 62.25C28.3714 61.6833 28.4847 61.19 28.7114 60.77C28.9381 60.3433 29.2514 60.0133 29.6514 59.78C30.0581 59.5467 30.5214 59.43 31.0414 59.43C31.7147 59.43 32.2681 59.5933 32.7014 59.92C33.1414 60.2467 33.4314 60.7 33.5714 61.28H32.5914C32.4981 60.9467 32.3147 60.6833 32.0414 60.49C31.7747 60.2967 31.4414 60.2 31.0414 60.2C30.5214 60.2 30.1014 60.38 29.7814 60.74C29.4614 61.0933 29.3014 61.5967 29.3014 62.25C29.3014 62.91 29.4614 63.42 29.7814 63.78C30.1014 64.14 30.5214 64.32 31.0414 64.32C31.4414 64.32 31.7747 64.2267 32.0414 64.04C32.3081 63.8533 32.4914 63.5867 32.5914 63.24H33.5714C33.4247 63.8 33.1314 64.25 32.6914 64.59C32.2514 64.9233 31.7014 65.09 31.0414 65.09C30.5214 65.09 30.0581 64.9733 29.6514 64.74C29.2514 64.5067 28.9381 64.1767 28.7114 63.75C28.4847 63.3233 28.3714 62.8233 28.3714 62.25ZM37.1756 65.09C36.6623 65.09 36.1956 64.9733 35.7756 64.74C35.3623 64.5067 35.0356 64.1767 34.7956 63.75C34.5623 63.3167 34.4456 62.8167 34.4456 62.25C34.4456 61.69 34.5656 61.1967 34.8056 60.77C35.0523 60.3367 35.3856 60.0067 35.8056 59.78C36.2256 59.5467 36.6956 59.43 37.2156 59.43C37.7356 59.43 38.2056 59.5467 38.6256 59.78C39.0456 60.0067 39.3756 60.3333 39.6156 60.76C39.8623 61.1867 39.9856 61.6833 39.9856 62.25C39.9856 62.8167 39.859 63.3167 39.6056 63.75C39.359 64.1767 39.0223 64.5067 38.5956 64.74C38.169 64.9733 37.6956 65.09 37.1756 65.09ZM37.1756 64.29C37.5023 64.29 37.809 64.2133 38.0956 64.06C38.3823 63.9067 38.6123 63.6767 38.7856 63.37C38.9656 63.0633 39.0556 62.69 39.0556 62.25C39.0556 61.81 38.969 61.4367 38.7956 61.13C38.6223 60.8233 38.3956 60.5967 38.1156 60.45C37.8356 60.2967 37.5323 60.22 37.2056 60.22C36.8723 60.22 36.5656 60.2967 36.2856 60.45C36.0123 60.5967 35.7923 60.8233 35.6256 61.13C35.459 61.4367 35.3756 61.81 35.3756 62.25C35.3756 62.6967 35.4556 63.0733 35.6156 63.38C35.7823 63.6867 36.0023 63.9167 36.2756 64.07C36.549 64.2167 36.849 64.29 37.1756 64.29ZM47.7721 59.42C48.1988 59.42 48.5788 59.51 48.9121 59.69C49.2454 59.8633 49.5088 60.1267 49.7021 60.48C49.8954 60.8333 49.9921 61.2633 49.9921 61.77V65H49.0921V61.9C49.0921 61.3533 48.9554 60.9367 48.6821 60.65C48.4154 60.3567 48.0521 60.21 47.5921 60.21C47.1188 60.21 46.7421 60.3633 46.4621 60.67C46.1821 60.97 46.0421 61.4067 46.0421 61.98V65H45.1421V61.9C45.1421 61.3533 45.0054 60.9367 44.7321 60.65C44.4654 60.3567 44.1021 60.21 43.6421 60.21C43.1688 60.21 42.7921 60.3633 42.5121 60.67C42.2321 60.97 42.0921 61.4067 42.0921 61.98V65H41.1821V59.52H42.0921V60.31C42.2721 60.0233 42.5121 59.8033 42.8121 59.65C43.1188 59.4967 43.4554 59.42 43.8221 59.42C44.2821 59.42 44.6888 59.5233 45.0421 59.73C45.3954 59.9367 45.6588 60.24 45.8321 60.64C45.9854 60.2533 46.2388 59.9533 46.5921 59.74C46.9454 59.5267 47.3388 59.42 47.7721 59.42ZM56.4848 62.05C56.4848 62.2233 56.4748 62.4067 56.4548 62.6H52.0748C52.1082 63.14 52.2915 63.5633 52.6248 63.87C52.9648 64.17 53.3748 64.32 53.8548 64.32C54.2482 64.32 54.5748 64.23 54.8348 64.05C55.1015 63.8633 55.2882 63.6167 55.3948 63.31H56.3748C56.2282 63.8367 55.9348 64.2667 55.4948 64.6C55.0548 64.9267 54.5082 65.09 53.8548 65.09C53.3348 65.09 52.8682 64.9733 52.4548 64.74C52.0482 64.5067 51.7282 64.1767 51.4948 63.75C51.2615 63.3167 51.1448 62.8167 51.1448 62.25C51.1448 61.6833 51.2582 61.1867 51.4848 60.76C51.7115 60.3333 52.0282 60.0067 52.4348 59.78C52.8482 59.5467 53.3215 59.43 53.8548 59.43C54.3748 59.43 54.8348 59.5433 55.2348 59.77C55.6348 59.9967 55.9415 60.31 56.1548 60.71C56.3748 61.1033 56.4848 61.55 56.4848 62.05ZM55.5448 61.86C55.5448 61.5133 55.4682 61.2167 55.3148 60.97C55.1615 60.7167 54.9515 60.5267 54.6848 60.4C54.4248 60.2667 54.1348 60.2 53.8148 60.2C53.3548 60.2 52.9615 60.3467 52.6348 60.64C52.3148 60.9333 52.1315 61.34 52.0848 61.86H55.5448Z" fill="#043449"/>
<path d="M21.5996 15.8751C21.5996 15.0582 22.2618 14.396 23.0788 14.396H48.1469C49.3723 14.396 50.3656 15.3893 50.3656 16.6147V31.3546C50.3656 32.58 49.3723 33.5734 48.1469 33.5734H24.5579C22.9241 33.5734 21.5996 32.2489 21.5996 30.6151V15.8751Z" fill="#043449"/>
<path d="M28.3848 15.6825C28.3848 11.7041 31.6099 8.47902 35.5882 8.47902C39.5665 8.47902 42.7916 11.7041 42.7916 15.6825C42.7916 19.6608 39.5665 22.8859 35.5882 22.8859C31.6099 22.8859 28.3848 19.6608 28.3848 15.6825Z" fill="#F6A509"/>
<path fill-rule="evenodd" clip-rule="evenodd" d="M35.5888 24.3652C30.7936 24.3652 26.9062 20.4778 26.9062 15.6826C26.9062 10.8873 30.7936 7 35.5888 7C40.3841 7 44.2714 10.8873 44.2714 15.6826C44.2714 20.4778 40.3841 24.3652 35.5888 24.3652ZM35.5888 8.47915C31.6105 8.47915 28.3854 11.7042 28.3854 15.6826C28.3854 19.6609 31.6105 22.886 35.5888 22.886C39.5672 22.886 42.7923 19.6609 42.7923 15.6826C42.7923 11.7042 39.5672 8.47915 35.5888 8.47915Z" fill="#FAFAFA"/>
<path d="M38.2076 17.2315C38.2076 17.6139 38.1154 17.9686 37.9309 18.2954C37.7528 18.6152 37.4856 18.8794 37.1293 19.088C36.7794 19.2897 36.3627 19.4009 35.8792 19.4218V20.2666H35.2685V19.4114C34.5942 19.3488 34.0502 19.1298 33.6367 18.7543C33.2232 18.3719 33.0037 17.8538 32.9783 17.2002H34.715C34.7532 17.6174 34.9377 17.8851 35.2685 18.0033V16.3554C34.7723 16.2163 34.3747 16.0807 34.0757 15.9486C33.783 15.8165 33.5254 15.6044 33.3027 15.3124C33.0801 15.0203 32.9688 14.6205 32.9688 14.1129C32.9688 13.4802 33.1819 12.9726 33.6081 12.5901C34.0407 12.2077 34.5942 11.9921 35.2685 11.9435V11.0986H35.8792V11.9435C36.5472 11.9991 37.0752 12.2112 37.4633 12.5797C37.8514 12.9482 38.0677 13.4593 38.1122 14.1129H36.3659C36.3277 13.7374 36.1655 13.4941 35.8792 13.3828V14.9995C36.4073 15.1594 36.8144 15.3019 37.1007 15.4271C37.387 15.5523 37.6414 15.7609 37.8641 16.0529C38.0931 16.338 38.2076 16.7309 38.2076 17.2315ZM34.696 14.0295C34.696 14.2033 34.7437 14.3493 34.8391 14.4675C34.9409 14.5857 35.084 14.69 35.2685 14.7804V13.3307C35.0904 13.3654 34.9504 13.4419 34.8486 13.5601C34.7468 13.6714 34.696 13.8278 34.696 14.0295ZM35.8792 18.0346C36.0701 17.9998 36.2196 17.9164 36.3277 17.7843C36.4422 17.6522 36.4995 17.4888 36.4995 17.2941C36.4995 17.1133 36.4454 16.9673 36.3373 16.856C36.2355 16.7378 36.0828 16.637 35.8792 16.5535V18.0346Z" fill="#FAFAFA"/>
<path d="M21.5996 15.6742C21.5996 16.3135 22.2389 16.9527 22.8781 16.9527H46.8684C48.0938 16.9527 49.0872 17.9461 49.0872 19.1714V33.9113C49.0872 35.1367 48.0938 36.1301 46.8684 36.1301H23.8183C22.593 36.1301 21.5996 35.1367 21.5996 33.9113V15.6742Z" fill="url(#paint0_linear_1699_17266)"/>
<path d="M38.8594 23.5455C38.8594 22.7286 39.5216 22.0664 40.3385 22.0664H51.4436C52.2605 22.0664 52.9228 22.7286 52.9228 23.5456V29.5367C52.9228 30.3536 52.2605 31.0158 51.4436 31.0158H40.3385C39.5216 31.0158 38.8594 30.3536 38.8594 29.5367V23.5455Z" fill="#043449"/>
<path fill-rule="evenodd" clip-rule="evenodd" d="M40.3391 20.5879H51.4443C53.0781 20.5879 54.4025 21.9124 54.4025 23.5462V29.5373C54.4025 31.1711 53.0781 32.4956 51.4443 32.4956H40.3391C38.7053 32.4956 37.3809 31.1711 37.3809 29.5373V23.5462C37.3809 21.9124 38.7053 20.5879 40.3391 20.5879ZM40.3391 22.067C39.5222 22.067 38.86 22.7293 38.86 23.5462V29.5373C38.86 30.3542 39.5222 31.0165 40.3391 31.0165H51.4443C52.2612 31.0165 52.9234 30.3542 52.9234 29.5373V23.5462C52.9234 22.7293 52.2612 22.067 51.4443 22.067H40.3391Z" fill="#FAFAFA"/>
<path d="M45.8913 26.5414C45.8913 27.9536 44.7465 29.0984 43.3343 29.0984C41.9221 29.0984 40.7773 27.9536 40.7773 26.5414C40.7773 25.1292 41.9221 23.9844 43.3343 23.9844C44.7465 23.9844 45.8913 25.1292 45.8913 26.5414Z" fill="white"/>
<defs>
<linearGradient id="paint0_linear_1699_17266" x1="18.5767" y1="14.6439" x2="38.8521" y2="39.822" gradientUnits="userSpaceOnUse">
<stop stop-color="#09E8F6"/>
<stop offset="1" stop-color="#0976F6"/>
</linearGradient>
</defs>
</svg>
