<svg width="75" height="83" viewBox="0 0 75 83" fill="none" xmlns="http://www.w3.org/2000/svg">
<path opacity="0.7" d="M18.3909 58.63C18.2175 58.63 18.0709 58.57 17.9509 58.45C17.8375 58.33 17.7809 58.1833 17.7809 58.01C17.7809 57.8367 17.8375 57.69 17.9509 57.57C18.0709 57.45 18.2175 57.39 18.3909 57.39C18.5642 57.39 18.7075 57.45 18.8209 57.57C18.9409 57.69 19.0009 57.8367 19.0009 58.01C19.0009 58.1833 18.9409 58.33 18.8209 58.45C18.7075 58.57 18.5642 58.63 18.3909 58.63ZM18.8409 66.19C18.8409 66.6767 18.7175 67.0333 18.4709 67.26C18.2242 67.4867 17.8642 67.6 17.3909 67.6H16.8609V66.83H17.2409C17.4942 66.83 17.6709 66.78 17.7709 66.68C17.8775 66.58 17.9309 66.41 17.9309 66.17V59.52H18.8409V66.19ZM20.0413 62.24C20.0413 61.68 20.1547 61.19 20.3813 60.77C20.608 60.3433 20.918 60.0133 21.3113 59.78C21.7113 59.5467 22.1547 59.43 22.6413 59.43C23.1213 59.43 23.538 59.5333 23.8913 59.74C24.2447 59.9467 24.508 60.2067 24.6813 60.52V59.52H25.6013V65H24.6813V63.98C24.5013 64.3 24.2313 64.5667 23.8713 64.78C23.518 64.9867 23.1047 65.09 22.6313 65.09C22.1447 65.09 21.7047 64.97 21.3113 64.73C20.918 64.49 20.608 64.1533 20.3813 63.72C20.1547 63.2867 20.0413 62.7933 20.0413 62.24ZM24.6813 62.25C24.6813 61.8367 24.598 61.4767 24.4313 61.17C24.2647 60.8633 24.038 60.63 23.7513 60.47C23.4713 60.3033 23.1613 60.22 22.8213 60.22C22.4813 60.22 22.1713 60.3 21.8913 60.46C21.6113 60.62 21.388 60.8533 21.2213 61.16C21.0547 61.4667 20.9713 61.8267 20.9713 62.24C20.9713 62.66 21.0547 63.0267 21.2213 63.34C21.388 63.6467 21.6113 63.8833 21.8913 64.05C22.1713 64.21 22.4813 64.29 22.8213 64.29C23.1613 64.29 23.4713 64.21 23.7513 64.05C24.038 63.8833 24.2647 63.6467 24.4313 63.34C24.598 63.0267 24.6813 62.6633 24.6813 62.25ZM28.0491 60.41C28.2091 60.0967 28.4358 59.8533 28.7291 59.68C29.0291 59.5067 29.3925 59.42 29.8191 59.42V60.36H29.5791C28.5591 60.36 28.0491 60.9133 28.0491 62.02V65H27.1391V59.52H28.0491V60.41ZM31.3396 58.63C31.1663 58.63 31.0196 58.57 30.8996 58.45C30.7796 58.33 30.7196 58.1833 30.7196 58.01C30.7196 57.8367 30.7796 57.69 30.8996 57.57C31.0196 57.45 31.1663 57.39 31.3396 57.39C31.5063 57.39 31.6463 57.45 31.7596 57.57C31.8796 57.69 31.9396 57.8367 31.9396 58.01C31.9396 58.1833 31.8796 58.33 31.7596 58.45C31.6463 58.57 31.5063 58.63 31.3396 58.63ZM31.7796 59.52V65H30.8696V59.52H31.7796ZM36.0005 59.42C36.6672 59.42 37.2072 59.6233 37.6205 60.03C38.0339 60.43 38.2405 61.01 38.2405 61.77V65H37.3405V61.9C37.3405 61.3533 37.2039 60.9367 36.9305 60.65C36.6572 60.3567 36.2839 60.21 35.8105 60.21C35.3305 60.21 34.9472 60.36 34.6605 60.66C34.3805 60.96 34.2405 61.3967 34.2405 61.97V65H33.3305V59.52H34.2405V60.3C34.4205 60.02 34.6639 59.8033 34.9705 59.65C35.2839 59.4967 35.6272 59.42 36.0005 59.42ZM41.987 59.43C42.4604 59.43 42.8737 59.5333 43.227 59.74C43.587 59.9467 43.8537 60.2067 44.027 60.52V59.52H44.947V65.12C44.947 65.62 44.8404 66.0633 44.627 66.45C44.4137 66.8433 44.107 67.15 43.707 67.37C43.3137 67.59 42.8537 67.7 42.327 67.7C41.607 67.7 41.007 67.53 40.527 67.19C40.047 66.85 39.7637 66.3867 39.677 65.8H40.577C40.677 66.1333 40.8837 66.4 41.197 66.6C41.5104 66.8067 41.887 66.91 42.327 66.91C42.827 66.91 43.2337 66.7533 43.547 66.44C43.867 66.1267 44.027 65.6867 44.027 65.12V63.97C43.847 64.29 43.5804 64.5567 43.227 64.77C42.8737 64.9833 42.4604 65.09 41.987 65.09C41.5004 65.09 41.057 64.97 40.657 64.73C40.2637 64.49 39.9537 64.1533 39.727 63.72C39.5004 63.2867 39.387 62.7933 39.387 62.24C39.387 61.68 39.5004 61.19 39.727 60.77C39.9537 60.3433 40.2637 60.0133 40.657 59.78C41.057 59.5467 41.5004 59.43 41.987 59.43ZM44.027 62.25C44.027 61.8367 43.9437 61.4767 43.777 61.17C43.6104 60.8633 43.3837 60.63 43.097 60.47C42.817 60.3033 42.507 60.22 42.167 60.22C41.827 60.22 41.517 60.3 41.237 60.46C40.957 60.62 40.7337 60.8533 40.567 61.16C40.4004 61.4667 40.317 61.8267 40.317 62.24C40.317 62.66 40.4004 63.0267 40.567 63.34C40.7337 63.6467 40.957 63.8833 41.237 64.05C41.517 64.21 41.827 64.29 42.167 64.29C42.507 64.29 42.817 64.21 43.097 64.05C43.3837 63.8833 43.6104 63.6467 43.777 63.34C43.9437 63.0267 44.027 62.6633 44.027 62.25ZM46.1448 62.24C46.1448 61.68 46.2582 61.19 46.4848 60.77C46.7115 60.3433 47.0215 60.0133 47.4148 59.78C47.8148 59.5467 48.2582 59.43 48.7448 59.43C49.2248 59.43 49.6415 59.5333 49.9948 59.74C50.3482 59.9467 50.6115 60.2067 50.7848 60.52V59.52H51.7048V65H50.7848V63.98C50.6048 64.3 50.3348 64.5667 49.9748 64.78C49.6215 64.9867 49.2082 65.09 48.7348 65.09C48.2482 65.09 47.8082 64.97 47.4148 64.73C47.0215 64.49 46.7115 64.1533 46.4848 63.72C46.2582 63.2867 46.1448 62.7933 46.1448 62.24ZM50.7848 62.25C50.7848 61.8367 50.7015 61.4767 50.5348 61.17C50.3682 60.8633 50.1415 60.63 49.8548 60.47C49.5748 60.3033 49.2648 60.22 48.9248 60.22C48.5848 60.22 48.2748 60.3 47.9948 60.46C47.7148 60.62 47.4915 60.8533 47.3248 61.16C47.1582 61.4667 47.0748 61.8267 47.0748 62.24C47.0748 62.66 47.1582 63.0267 47.3248 63.34C47.4915 63.6467 47.7148 63.8833 47.9948 64.05C48.2748 64.21 48.5848 64.29 48.9248 64.29C49.2648 64.29 49.5748 64.21 49.8548 64.05C50.1415 63.8833 50.3682 63.6467 50.5348 63.34C50.7015 63.0267 50.7848 62.6633 50.7848 62.25ZM55.9127 59.42C56.5793 59.42 57.1193 59.6233 57.5327 60.03C57.946 60.43 58.1527 61.01 58.1527 61.77V65H57.2527V61.9C57.2527 61.3533 57.116 60.9367 56.8427 60.65C56.5693 60.3567 56.196 60.21 55.7227 60.21C55.2427 60.21 54.8593 60.36 54.5727 60.66C54.2927 60.96 54.1527 61.3967 54.1527 61.97V65H53.2427V59.52H54.1527V60.3C54.3327 60.02 54.576 59.8033 54.8827 59.65C55.196 59.4967 55.5393 59.42 55.9127 59.42Z" fill="#043449"/>
<path d="M32.5212 21.7398C32.7278 21.9229 33.0439 21.9039 33.227 21.6973C33.4102 21.4906 33.3912 21.1746 33.1845 20.9914L32.5212 21.7398ZM42.8311 20.9914C42.6244 21.1746 42.6054 21.4906 42.7885 21.6973C42.9717 21.9039 43.2877 21.9229 43.4944 21.7398L42.8311 20.9914ZM30.7754 15.6578C30.7754 11.7092 34.0089 8.5 38.0078 8.5V7.5C33.4657 7.5 29.7754 11.1478 29.7754 15.6578H30.7754ZM38.0078 8.5C42.0067 8.5 45.2402 11.7092 45.2402 15.6578H46.2402C46.2402 11.1478 42.5498 7.5 38.0078 7.5V8.5ZM33.1845 20.9914C31.7044 19.6795 30.7754 17.7758 30.7754 15.6578H29.7754C29.7754 18.0756 30.8374 20.2473 32.5212 21.7398L33.1845 20.9914ZM45.2402 15.6578C45.2402 17.7758 44.3111 19.6795 42.8311 20.9914L43.4944 21.7398C45.1781 20.2473 46.2402 18.0756 46.2402 15.6578H45.2402Z" fill="#F6A509"/>
<path fill-rule="evenodd" clip-rule="evenodd" d="M37.4036 24.5149H29.4564C28.1516 24.5149 27.0938 25.5727 27.0938 26.8776V29.0493H28.3825V26.8776C28.3825 26.2844 28.8633 25.8036 29.4564 25.8036H46.6396C47.2327 25.8036 47.7135 26.2844 47.7135 26.8776V29.0493H49.0023V26.8776C49.0023 25.5727 47.9445 24.5149 46.6396 24.5149H38.6924V21.3169H37.4036V24.5149Z" fill="#043449"/>
<path d="M44.4929 15.5175C44.4929 18.9576 41.7042 21.7464 38.2641 21.7464C34.8239 21.7464 32.0352 18.9576 32.0352 15.5175C32.0352 12.0773 34.8239 9.28857 38.2641 9.28857C41.7042 9.28857 44.4929 12.0773 44.4929 15.5175Z" fill="url(#paint0_linear_1699_17231)"/>
<path d="M44.4928 15.7323C44.4928 19.291 41.6079 22.1759 38.0492 22.1759C34.4904 22.1759 31.6055 19.291 31.6055 15.7323C31.6055 12.1735 34.4904 9.28857 38.0492 9.28857C41.6079 9.28857 44.4928 12.1735 44.4928 15.7323Z" fill="url(#paint1_linear_1699_17231)"/>
<path d="M27.7389 38.9998C30.8621 38.9998 33.3939 36.468 33.3939 33.3449C33.3939 30.2217 30.8621 27.6899 27.7389 27.6899C24.6158 27.6899 22.084 30.2217 22.084 33.3449C22.084 36.468 24.6158 38.9998 27.7389 38.9998Z" fill="url(#paint2_linear_1699_17231)" stroke="#FAFAFA"/>
<path d="M48.3581 38.9998C51.4812 38.9998 54.013 36.468 54.013 33.3449C54.013 30.2217 51.4812 27.6899 48.3581 27.6899C45.2349 27.6899 42.7031 30.2217 42.7031 33.3449C42.7031 36.468 45.2349 38.9998 48.3581 38.9998Z" fill="url(#paint3_linear_1699_17231)" stroke="#FAFAFA"/>
<mask id="mask0_1699_17231" style="mask-type:alpha" maskUnits="userSpaceOnUse" x="32" y="10" width="12" height="12">
<path d="M43.6339 15.7324C43.6339 18.8167 41.1336 21.3169 38.0494 21.3169C34.9651 21.3169 32.4648 18.8167 32.4648 15.7324C32.4648 12.6482 34.9651 10.1479 38.0494 10.1479C41.1336 10.1479 43.6339 12.6482 43.6339 15.7324Z" fill="url(#paint4_linear_1699_17231)"/>
</mask>
<g mask="url(#mask0_1699_17231)">
<path d="M39.7667 13.5845C39.7667 14.5335 38.9974 15.3028 38.0484 15.3028C37.0994 15.3028 36.3301 14.5335 36.3301 13.5845C36.3301 12.6355 37.0994 11.8662 38.0484 11.8662C38.9974 11.8662 39.7667 12.6355 39.7667 13.5845Z" fill="white"/>
<path fill-rule="evenodd" clip-rule="evenodd" d="M38.0498 12.272C37.3249 12.272 36.7372 12.8596 36.7372 13.5846C36.7372 14.3095 37.3249 14.8972 38.0498 14.8972C38.7747 14.8972 39.3624 14.3095 39.3624 13.5846C39.3624 12.8596 38.7747 12.272 38.0498 12.272ZM35.9258 13.5846C35.9258 12.4115 36.8767 11.4605 38.0498 11.4605C39.2229 11.4605 40.1738 12.4115 40.1738 13.5846C40.1738 14.7576 39.2229 15.7086 38.0498 15.7086C36.8767 15.7086 35.9258 14.7576 35.9258 13.5846Z" fill="white"/>
<path d="M34.1836 21.3169V22.1761H41.916V21.3169C41.916 19.1817 40.1851 17.4507 38.0498 17.4507C35.9146 17.4507 34.1836 19.1817 34.1836 21.3169Z" fill="white"/>
<path fill-rule="evenodd" clip-rule="evenodd" d="M38.0493 17.8564C36.1381 17.8564 34.5888 19.4057 34.5888 21.3169V21.7703H41.5098V21.3169C41.5098 19.4057 39.9604 17.8564 38.0493 17.8564ZM33.7773 21.3169C33.7773 18.9575 35.69 17.0449 38.0493 17.0449C40.4086 17.0449 42.3212 18.9575 42.3212 21.3169V22.5817H33.7773V21.3169Z" fill="white"/>
</g>
<mask id="mask1_1699_17231" style="mask-type:alpha" maskUnits="userSpaceOnUse" x="23" y="29" width="10" height="9">
<path d="M32.0349 33.3451C32.0349 35.7176 30.1116 37.6409 27.7391 37.6409C25.3666 37.6409 23.4434 35.7176 23.4434 33.3451C23.4434 30.9726 25.3666 29.0493 27.7391 29.0493C30.1116 29.0493 32.0349 30.9726 32.0349 33.3451Z" fill="url(#paint5_linear_1699_17231)"/>
</mask>
<g mask="url(#mask1_1699_17231)">
<path d="M29.0615 31.6924C29.0615 32.4224 28.4697 33.0142 27.7398 33.0142C27.0098 33.0142 26.418 32.4224 26.418 31.6924C26.418 30.9624 27.0098 30.3706 27.7398 30.3706C28.4697 30.3706 29.0615 30.9624 29.0615 31.6924Z" fill="white"/>
<path fill-rule="evenodd" clip-rule="evenodd" d="M27.7395 30.5736C27.1215 30.5736 26.6206 31.0745 26.6206 31.6925C26.6206 32.3105 27.1215 32.8114 27.7395 32.8114C28.3574 32.8114 28.8584 32.3105 28.8584 31.6925C28.8584 31.0745 28.3574 30.5736 27.7395 30.5736ZM26.2148 31.6925C26.2148 30.8505 26.8974 30.1679 27.7395 30.1679C28.5815 30.1679 29.2641 30.8505 29.2641 31.6925C29.2641 32.5345 28.5815 33.2171 27.7395 33.2171C26.8974 33.2171 26.2148 32.5345 26.2148 31.6925Z" fill="white"/>
<path d="M24.7656 37.6405V38.3014H30.7136V37.6405C30.7136 35.998 29.3821 34.6665 27.7396 34.6665C26.0971 34.6665 24.7656 35.998 24.7656 37.6405Z" fill="white"/>
<path fill-rule="evenodd" clip-rule="evenodd" d="M27.7391 35.0722C26.3207 35.0722 25.1708 36.2221 25.1708 37.6405V37.8957H30.3074V37.6405C30.3074 36.2221 29.1575 35.0722 27.7391 35.0722ZM24.3594 37.6405C24.3594 35.774 25.8725 34.2608 27.7391 34.2608C29.6057 34.2608 31.1188 35.774 31.1188 37.6405V38.7071H24.3594V37.6405Z" fill="white"/>
</g>
<mask id="mask2_1699_17231" style="mask-type:alpha" maskUnits="userSpaceOnUse" x="44" y="29" width="9" height="9">
<path d="M52.6541 33.3451C52.6541 35.7176 50.7308 37.6409 48.3583 37.6409C45.9858 37.6409 44.0625 35.7176 44.0625 33.3451C44.0625 30.9726 45.9858 29.0493 48.3583 29.0493C50.7308 29.0493 52.6541 30.9726 52.6541 33.3451Z" fill="url(#paint6_linear_1699_17231)"/>
</mask>
<g mask="url(#mask2_1699_17231)">
<path d="M49.6807 31.6924C49.6807 32.4224 49.0889 33.0142 48.3589 33.0142C47.6289 33.0142 47.0371 32.4224 47.0371 31.6924C47.0371 30.9624 47.6289 30.3706 48.3589 30.3706C49.0889 30.3706 49.6807 30.9624 49.6807 31.6924Z" fill="white"/>
<path fill-rule="evenodd" clip-rule="evenodd" d="M48.3586 30.5736C47.7407 30.5736 47.2397 31.0745 47.2397 31.6925C47.2397 32.3105 47.7407 32.8114 48.3586 32.8114C48.9766 32.8114 49.4775 32.3105 49.4775 31.6925C49.4775 31.0745 48.9766 30.5736 48.3586 30.5736ZM46.834 31.6925C46.834 30.8505 47.5166 30.1679 48.3586 30.1679C49.2007 30.1679 49.8833 30.8505 49.8833 31.6925C49.8833 32.5345 49.2007 33.2171 48.3586 33.2171C47.5166 33.2171 46.834 32.5345 46.834 31.6925Z" fill="white"/>
<path d="M45.3848 37.6405V38.3014H51.3328V37.6405C51.3328 35.998 50.0013 34.6665 48.3588 34.6665C46.7163 34.6665 45.3848 35.998 45.3848 37.6405Z" fill="white"/>
<path fill-rule="evenodd" clip-rule="evenodd" d="M48.3582 35.0722C46.9398 35.0722 45.7899 36.2221 45.7899 37.6405V37.8957H50.9265V37.6405C50.9265 36.2221 49.7767 35.0722 48.3582 35.0722ZM44.9785 37.6405C44.9785 35.774 46.4917 34.2608 48.3582 34.2608C50.2248 34.2608 51.738 35.774 51.738 37.6405V38.7071H44.9785V37.6405Z" fill="white"/>
</g>
<defs>
<linearGradient id="paint0_linear_1699_17231" x1="30.6651" y1="8.66109" x2="43.2645" y2="20.3046" gradientUnits="userSpaceOnUse">
<stop stop-color="#09E8F6"/>
<stop offset="1" stop-color="#0976F6"/>
</linearGradient>
<linearGradient id="paint1_linear_1699_17231" x1="30.1882" y1="8.63946" x2="43.222" y2="20.6844" gradientUnits="userSpaceOnUse">
<stop stop-color="#09E8F6"/>
<stop offset="1" stop-color="#0976F6"/>
</linearGradient>
<linearGradient id="paint2_linear_1699_17231" x1="21.4502" y1="27.6706" x2="31.8772" y2="37.3066" gradientUnits="userSpaceOnUse">
<stop stop-color="#09E8F6"/>
<stop offset="1" stop-color="#0976F6"/>
</linearGradient>
<linearGradient id="paint3_linear_1699_17231" x1="42.0693" y1="27.6706" x2="52.4963" y2="37.3066" gradientUnits="userSpaceOnUse">
<stop stop-color="#09E8F6"/>
<stop offset="1" stop-color="#0976F6"/>
</linearGradient>
<linearGradient id="paint4_linear_1699_17231" x1="31.2365" y1="9.58532" x2="42.5325" y2="20.0243" gradientUnits="userSpaceOnUse">
<stop stop-color="#09E8F6"/>
<stop offset="1" stop-color="#0976F6"/>
</linearGradient>
<linearGradient id="paint5_linear_1699_17231" x1="22.4985" y1="28.6166" x2="31.1877" y2="36.6465" gradientUnits="userSpaceOnUse">
<stop stop-color="#09E8F6"/>
<stop offset="1" stop-color="#0976F6"/>
</linearGradient>
<linearGradient id="paint6_linear_1699_17231" x1="43.1176" y1="28.6166" x2="51.8069" y2="36.6465" gradientUnits="userSpaceOnUse">
<stop stop-color="#09E8F6"/>
<stop offset="1" stop-color="#0976F6"/>
</linearGradient>
</defs>
</svg>
