<svg width="75" height="83" viewBox="0 0 75 83" fill="none" xmlns="http://www.w3.org/2000/svg">
<path fill-rule="evenodd" clip-rule="evenodd" d="M34.7279 11.6972C33.8273 12.5705 33.1281 13.9605 33.1281 16.0332V23.6332C33.1281 24.6826 32.2775 25.5332 31.2281 25.5332C30.1788 25.5332 29.3281 24.6826 29.3281 23.6332V16.0332C29.3281 13.0392 30.3706 10.6293 32.0825 8.9692C33.7722 7.33078 36.0011 6.53321 38.1948 6.53321C40.3885 6.53321 42.6174 7.33078 44.3071 8.9692C46.019 10.6293 47.0615 13.0392 47.0615 16.0332V23.6332C47.0615 24.6826 46.2108 25.5332 45.1615 25.5332C44.1121 25.5332 43.2615 24.6826 43.2615 23.6332V16.0332C43.2615 13.9605 42.5623 12.5705 41.6617 11.6972C40.7388 10.8023 39.4844 10.3332 38.1948 10.3332C36.9052 10.3332 35.6508 10.8023 34.7279 11.6972Z" fill="#043449"/>
<path d="M25.5273 25.654C25.5273 23.4887 27.2827 21.7334 29.448 21.7334H46.94C49.1053 21.7334 50.8607 23.4887 50.8607 25.654V35.5461C50.8607 37.7114 49.1054 39.4667 46.94 39.4667H29.448C27.2827 39.4667 25.5273 37.7114 25.5273 35.5461V25.654Z" fill="#09AFF6"/>
<path d="M25.5273 25.654C25.5273 23.4887 27.2827 21.7334 29.448 21.7334H46.94C49.1053 21.7334 50.8607 23.4887 50.8607 25.654V35.5461C50.8607 37.7114 49.1054 39.4667 46.94 39.4667H29.448C27.2827 39.4667 25.5273 37.7114 25.5273 35.5461V25.654Z" fill="url(#paint0_linear_1699_17434)"/>
<path fill-rule="evenodd" clip-rule="evenodd" d="M39.1435 30.4157C40.0719 30.0398 40.7268 29.1296 40.7268 28.0665C40.7268 26.6673 39.5926 25.5331 38.1935 25.5331C36.7944 25.5331 35.6602 26.6673 35.6602 28.0665C35.6602 29.1296 36.3151 30.0398 37.2435 30.4157V33.7665C37.2435 34.466 37.6688 34.7165 38.1935 34.7165C38.7182 34.7165 39.1435 34.466 39.1435 33.7665V30.4157Z" fill="#F6A509"/>
<path fill-rule="evenodd" clip-rule="evenodd" d="M39.1434 30.4156V33.7665C39.1434 34.466 38.7181 34.7165 38.1934 34.7165C37.6687 34.7165 37.2434 34.466 37.2434 33.7665V30.4156C36.315 30.0398 35.6601 29.1296 35.6601 28.0665C35.6601 26.6673 36.7943 25.5331 38.1934 25.5331C39.5925 25.5331 40.7267 26.6673 40.7267 28.0665C40.7267 29.1296 40.0718 30.0398 39.1434 30.4156ZM42.295 28.0665C42.295 29.3839 41.6741 30.5542 40.7116 31.3038V33.7665C40.7116 34.4459 40.4925 35.165 39.8964 35.6853C39.3392 36.1716 38.6778 36.2847 38.1934 36.2847C37.709 36.2847 37.0476 36.1716 36.4904 35.6853C35.8943 35.165 35.6751 34.4459 35.6751 33.7665V31.3038C34.7127 30.5542 34.0918 29.3839 34.0918 28.0665C34.0918 25.8012 35.9281 23.9649 38.1934 23.9649C40.4586 23.9649 42.295 25.8012 42.295 28.0665Z" fill="white"/>
<path opacity="0.7" d="M18.7161 60.07C18.7161 60.65 18.5161 61.1333 18.1161 61.52C17.7228 61.9 17.1195 62.09 16.3061 62.09H14.9661V65H14.0561V58.03H16.3061C17.0928 58.03 17.6895 58.22 18.0961 58.6C18.5095 58.98 18.7161 59.47 18.7161 60.07ZM16.3061 61.34C16.8128 61.34 17.1861 61.23 17.4261 61.01C17.6661 60.79 17.7861 60.4767 17.7861 60.07C17.7861 59.21 17.2928 58.78 16.3061 58.78H14.9661V61.34H16.3061ZM19.5071 62.24C19.5071 61.68 19.6205 61.19 19.8471 60.77C20.0738 60.3433 20.3838 60.0133 20.7771 59.78C21.1771 59.5467 21.6205 59.43 22.1071 59.43C22.5871 59.43 23.0038 59.5333 23.3571 59.74C23.7105 59.9467 23.9738 60.2067 24.1471 60.52V59.52H25.0671V65H24.1471V63.98C23.9671 64.3 23.6971 64.5667 23.3371 64.78C22.9838 64.9867 22.5705 65.09 22.0971 65.09C21.6105 65.09 21.1705 64.97 20.7771 64.73C20.3838 64.49 20.0738 64.1533 19.8471 63.72C19.6205 63.2867 19.5071 62.7933 19.5071 62.24ZM24.1471 62.25C24.1471 61.8367 24.0638 61.4767 23.8971 61.17C23.7305 60.8633 23.5038 60.63 23.2171 60.47C22.9371 60.3033 22.6271 60.22 22.2871 60.22C21.9471 60.22 21.6371 60.3 21.3571 60.46C21.0771 60.62 20.8538 60.8533 20.6871 61.16C20.5205 61.4667 20.4371 61.8267 20.4371 62.24C20.4371 62.66 20.5205 63.0267 20.6871 63.34C20.8538 63.6467 21.0771 63.8833 21.3571 64.05C21.6371 64.21 21.9471 64.29 22.2871 64.29C22.6271 64.29 22.9371 64.21 23.2171 64.05C23.5038 63.8833 23.7305 63.6467 23.8971 63.34C24.0638 63.0267 24.1471 62.6633 24.1471 62.25ZM28.545 65.09C28.125 65.09 27.7483 65.02 27.415 64.88C27.0816 64.7333 26.8183 64.5333 26.625 64.28C26.4316 64.02 26.325 63.7233 26.305 63.39H27.245C27.2716 63.6633 27.3983 63.8867 27.625 64.06C27.8583 64.2333 28.1616 64.32 28.535 64.32C28.8816 64.32 29.155 64.2433 29.355 64.09C29.555 63.9367 29.655 63.7433 29.655 63.51C29.655 63.27 29.5483 63.0933 29.335 62.98C29.1216 62.86 28.7916 62.7433 28.345 62.63C27.9383 62.5233 27.605 62.4167 27.345 62.31C27.0916 62.1967 26.8716 62.0333 26.685 61.82C26.505 61.6 26.415 61.3133 26.415 60.96C26.415 60.68 26.4983 60.4233 26.665 60.19C26.8316 59.9567 27.0683 59.7733 27.375 59.64C27.6816 59.5 28.0316 59.43 28.425 59.43C29.0316 59.43 29.5216 59.5833 29.895 59.89C30.2683 60.1967 30.4683 60.6167 30.495 61.15H29.585C29.565 60.8633 29.4483 60.6333 29.235 60.46C29.0283 60.2867 28.7483 60.2 28.395 60.2C28.0683 60.2 27.8083 60.27 27.615 60.41C27.4216 60.55 27.325 60.7333 27.325 60.96C27.325 61.14 27.3816 61.29 27.495 61.41C27.615 61.5233 27.7616 61.6167 27.935 61.69C28.115 61.7567 28.3616 61.8333 28.675 61.92C29.0683 62.0267 29.3883 62.1333 29.635 62.24C29.8816 62.34 30.0916 62.4933 30.265 62.7C30.445 62.9067 30.5383 63.1767 30.545 63.51C30.545 63.81 30.4616 64.08 30.295 64.32C30.1283 64.56 29.8916 64.75 29.585 64.89C29.285 65.0233 28.9383 65.09 28.545 65.09ZM33.7696 65.09C33.3496 65.09 32.9729 65.02 32.6396 64.88C32.3062 64.7333 32.0429 64.5333 31.8496 64.28C31.6562 64.02 31.5496 63.7233 31.5296 63.39H32.4696C32.4962 63.6633 32.6229 63.8867 32.8496 64.06C33.0829 64.2333 33.3862 64.32 33.7596 64.32C34.1062 64.32 34.3796 64.2433 34.5796 64.09C34.7796 63.9367 34.8796 63.7433 34.8796 63.51C34.8796 63.27 34.7729 63.0933 34.5596 62.98C34.3462 62.86 34.0162 62.7433 33.5696 62.63C33.1629 62.5233 32.8296 62.4167 32.5696 62.31C32.3162 62.1967 32.0962 62.0333 31.9096 61.82C31.7296 61.6 31.6396 61.3133 31.6396 60.96C31.6396 60.68 31.7229 60.4233 31.8896 60.19C32.0562 59.9567 32.2929 59.7733 32.5996 59.64C32.9062 59.5 33.2562 59.43 33.6496 59.43C34.2562 59.43 34.7462 59.5833 35.1196 59.89C35.4929 60.1967 35.6929 60.6167 35.7196 61.15H34.8096C34.7896 60.8633 34.6729 60.6333 34.4596 60.46C34.2529 60.2867 33.9729 60.2 33.6196 60.2C33.2929 60.2 33.0329 60.27 32.8396 60.41C32.6462 60.55 32.5496 60.7333 32.5496 60.96C32.5496 61.14 32.6062 61.29 32.7196 61.41C32.8396 61.5233 32.9862 61.6167 33.1596 61.69C33.3396 61.7567 33.5862 61.8333 33.8996 61.92C34.2929 62.0267 34.6129 62.1333 34.8596 62.24C35.1062 62.34 35.3162 62.4933 35.4896 62.7C35.6696 62.9067 35.7629 63.1767 35.7696 63.51C35.7696 63.81 35.6862 64.08 35.5196 64.32C35.3529 64.56 35.1162 64.75 34.8096 64.89C34.5096 65.0233 34.1629 65.09 33.7696 65.09ZM36.7142 62.25C36.7142 61.6833 36.8275 61.19 37.0542 60.77C37.2808 60.3433 37.5942 60.0133 37.9942 59.78C38.4008 59.5467 38.8642 59.43 39.3842 59.43C40.0575 59.43 40.6108 59.5933 41.0442 59.92C41.4842 60.2467 41.7742 60.7 41.9142 61.28H40.9342C40.8408 60.9467 40.6575 60.6833 40.3842 60.49C40.1175 60.2967 39.7842 60.2 39.3842 60.2C38.8642 60.2 38.4442 60.38 38.1242 60.74C37.8042 61.0933 37.6442 61.5967 37.6442 62.25C37.6442 62.91 37.8042 63.42 38.1242 63.78C38.4442 64.14 38.8642 64.32 39.3842 64.32C39.7842 64.32 40.1175 64.2267 40.3842 64.04C40.6508 63.8533 40.8342 63.5867 40.9342 63.24H41.9142C41.7675 63.8 41.4742 64.25 41.0342 64.59C40.5942 64.9233 40.0442 65.09 39.3842 65.09C38.8642 65.09 38.4008 64.9733 37.9942 64.74C37.5942 64.5067 37.2808 64.1767 37.0542 63.75C36.8275 63.3233 36.7142 62.8233 36.7142 62.25ZM45.5184 65.09C45.0051 65.09 44.5384 64.9733 44.1184 64.74C43.7051 64.5067 43.3784 64.1767 43.1384 63.75C42.9051 63.3167 42.7884 62.8167 42.7884 62.25C42.7884 61.69 42.9084 61.1967 43.1484 60.77C43.3951 60.3367 43.7284 60.0067 44.1484 59.78C44.5684 59.5467 45.0384 59.43 45.5584 59.43C46.0784 59.43 46.5484 59.5467 46.9684 59.78C47.3884 60.0067 47.7184 60.3333 47.9584 60.76C48.2051 61.1867 48.3284 61.6833 48.3284 62.25C48.3284 62.8167 48.2017 63.3167 47.9484 63.75C47.7017 64.1767 47.3651 64.5067 46.9384 64.74C46.5117 64.9733 46.0384 65.09 45.5184 65.09ZM45.5184 64.29C45.8451 64.29 46.1517 64.2133 46.4384 64.06C46.7251 63.9067 46.9551 63.6767 47.1284 63.37C47.3084 63.0633 47.3984 62.69 47.3984 62.25C47.3984 61.81 47.3117 61.4367 47.1384 61.13C46.9651 60.8233 46.7384 60.5967 46.4584 60.45C46.1784 60.2967 45.8751 60.22 45.5484 60.22C45.2151 60.22 44.9084 60.2967 44.6284 60.45C44.3551 60.5967 44.1351 60.8233 43.9684 61.13C43.8017 61.4367 43.7184 61.81 43.7184 62.25C43.7184 62.6967 43.7984 63.0733 43.9584 63.38C44.1251 63.6867 44.3451 63.9167 44.6184 64.07C44.8917 64.2167 45.1917 64.29 45.5184 64.29ZM49.1849 62.24C49.1849 61.68 49.2982 61.19 49.5249 60.77C49.7515 60.3433 50.0615 60.0133 50.4549 59.78C50.8549 59.5467 51.3015 59.43 51.7949 59.43C52.2215 59.43 52.6182 59.53 52.9849 59.73C53.3515 59.9233 53.6315 60.18 53.8249 60.5V57.6H54.7449V65H53.8249V63.97C53.6449 64.2967 53.3782 64.5667 53.0249 64.78C52.6715 64.9867 52.2582 65.09 51.7849 65.09C51.2982 65.09 50.8549 64.97 50.4549 64.73C50.0615 64.49 49.7515 64.1533 49.5249 63.72C49.2982 63.2867 49.1849 62.7933 49.1849 62.24ZM53.8249 62.25C53.8249 61.8367 53.7415 61.4767 53.5749 61.17C53.4082 60.8633 53.1815 60.63 52.8949 60.47C52.6149 60.3033 52.3049 60.22 51.9649 60.22C51.6249 60.22 51.3149 60.3 51.0349 60.46C50.7549 60.62 50.5315 60.8533 50.3649 61.16C50.1982 61.4667 50.1149 61.8267 50.1149 62.24C50.1149 62.66 50.1982 63.0267 50.3649 63.34C50.5315 63.6467 50.7549 63.8833 51.0349 64.05C51.3149 64.21 51.6249 64.29 51.9649 64.29C52.3049 64.29 52.6149 64.21 52.8949 64.05C53.1815 63.8833 53.4082 63.6467 53.5749 63.34C53.7415 63.0267 53.8249 62.6633 53.8249 62.25ZM61.2827 62.05C61.2827 62.2233 61.2727 62.4067 61.2527 62.6H56.8727C56.906 63.14 57.0894 63.5633 57.4227 63.87C57.7627 64.17 58.1727 64.32 58.6527 64.32C59.046 64.32 59.3727 64.23 59.6327 64.05C59.8994 63.8633 60.086 63.6167 60.1927 63.31H61.1727C61.026 63.8367 60.7327 64.2667 60.2927 64.6C59.8527 64.9267 59.306 65.09 58.6527 65.09C58.1327 65.09 57.666 64.9733 57.2527 64.74C56.846 64.5067 56.526 64.1767 56.2927 63.75C56.0594 63.3167 55.9427 62.8167 55.9427 62.25C55.9427 61.6833 56.056 61.1867 56.2827 60.76C56.5094 60.3333 56.826 60.0067 57.2327 59.78C57.646 59.5467 58.1194 59.43 58.6527 59.43C59.1727 59.43 59.6327 59.5433 60.0327 59.77C60.4327 59.9967 60.7394 60.31 60.9527 60.71C61.1727 61.1033 61.2827 61.55 61.2827 62.05ZM60.3427 61.86C60.3427 61.5133 60.266 61.2167 60.1127 60.97C59.9594 60.7167 59.7494 60.5267 59.4827 60.4C59.2227 60.2667 58.9327 60.2 58.6127 60.2C58.1527 60.2 57.7594 60.3467 57.4327 60.64C57.1127 60.9333 56.9294 61.34 56.8827 61.86H60.3427Z" fill="#043449"/>
<defs>
<linearGradient id="paint0_linear_1699_17434" x1="22.7413" y1="20.8402" x2="40.0596" y2="43.7036" gradientUnits="userSpaceOnUse">
<stop stop-color="#09E8F6"/>
<stop offset="1" stop-color="#0976F6"/>
</linearGradient>
</defs>
</svg>
