<svg width="75" height="84" viewBox="0 0 75 84" fill="none" xmlns="http://www.w3.org/2000/svg">
<path opacity="0.7" d="M36.4406 58.08V65H35.5306V59.84L33.2306 65H32.5906L30.2806 59.83V65H29.3706V58.08H30.3506L32.9106 63.8L35.4706 58.08H36.4406ZM37.6439 61.51C37.6439 60.83 37.7972 60.22 38.1039 59.68C38.4105 59.1333 38.8272 58.7067 39.3539 58.4C39.8872 58.0933 40.4772 57.94 41.1239 57.94C41.8839 57.94 42.5472 58.1233 43.1139 58.49C43.6805 58.8567 44.0939 59.3767 44.3539 60.05H43.2639C43.0705 59.63 42.7905 59.3067 42.4239 59.08C42.0639 58.8533 41.6305 58.74 41.1239 58.74C40.6372 58.74 40.2005 58.8533 39.8139 59.08C39.4272 59.3067 39.1239 59.63 38.9039 60.05C38.6839 60.4633 38.5739 60.95 38.5739 61.51C38.5739 62.0633 38.6839 62.55 38.9039 62.97C39.1239 63.3833 39.4272 63.7033 39.8139 63.93C40.2005 64.1567 40.6372 64.27 41.1239 64.27C41.6305 64.27 42.0639 64.16 42.4239 63.94C42.7905 63.7133 43.0705 63.39 43.2639 62.97H44.3539C44.0939 63.6367 43.6805 64.1533 43.1139 64.52C42.5472 64.88 41.8839 65.06 41.1239 65.06C40.4772 65.06 39.8872 64.91 39.3539 64.61C38.8272 64.3033 38.4105 63.88 38.1039 63.34C37.7972 62.8 37.6439 62.19 37.6439 61.51ZM46.6185 58.03V65H45.7085V58.03H46.6185ZM7.82941 73.03V80H6.91941V73.03H7.82941ZM12.0504 74.42C12.717 74.42 13.257 74.6233 13.6704 75.03C14.0837 75.43 14.2904 76.01 14.2904 76.77V80H13.3904V76.9C13.3904 76.3533 13.2537 75.9367 12.9804 75.65C12.707 75.3567 12.3337 75.21 11.8604 75.21C11.3804 75.21 10.997 75.36 10.7104 75.66C10.4304 75.96 10.2904 76.3967 10.2904 76.97V80H9.38035V74.52H10.2904V75.3C10.4704 75.02 10.7137 74.8033 11.0204 74.65C11.3337 74.4967 11.677 74.42 12.0504 74.42ZM16.8868 75.27V78.5C16.8868 78.7667 16.9435 78.9567 17.0568 79.07C17.1702 79.1767 17.3668 79.23 17.6468 79.23H18.3168V80H17.4968C16.9902 80 16.6102 79.8833 16.3568 79.65C16.1035 79.4167 15.9768 79.0333 15.9768 78.5V75.27H15.2668V74.52H15.9768V73.14H16.8868V74.52H18.3168V75.27H16.8868ZM24.4194 77.05C24.4194 77.2233 24.4094 77.4067 24.3894 77.6H20.0094C20.0427 78.14 20.2261 78.5633 20.5594 78.87C20.8994 79.17 21.3094 79.32 21.7894 79.32C22.1827 79.32 22.5094 79.23 22.7694 79.05C23.0361 78.8633 23.2227 78.6167 23.3294 78.31H24.3094C24.1627 78.8367 23.8694 79.2667 23.4294 79.6C22.9894 79.9267 22.4427 80.09 21.7894 80.09C21.2694 80.09 20.8027 79.9733 20.3894 79.74C19.9827 79.5067 19.6627 79.1767 19.4294 78.75C19.1961 78.3167 19.0794 77.8167 19.0794 77.25C19.0794 76.6833 19.1927 76.1867 19.4194 75.76C19.6461 75.3333 19.9627 75.0067 20.3694 74.78C20.7827 74.5467 21.2561 74.43 21.7894 74.43C22.3094 74.43 22.7694 74.5433 23.1694 74.77C23.5694 74.9967 23.8761 75.31 24.0894 75.71C24.3094 76.1033 24.4194 76.55 24.4194 77.05ZM23.4794 76.86C23.4794 76.5133 23.4027 76.2167 23.2494 75.97C23.0961 75.7167 22.8861 75.5267 22.6194 75.4C22.3594 75.2667 22.0694 75.2 21.7494 75.2C21.2894 75.2 20.8961 75.3467 20.5694 75.64C20.2494 75.9333 20.0661 76.34 20.0194 76.86H23.4794ZM26.5306 75.41C26.6906 75.0967 26.9173 74.8533 27.2106 74.68C27.5106 74.5067 27.8739 74.42 28.3006 74.42V75.36H28.0606C27.0406 75.36 26.5306 75.9133 26.5306 77.02V80H25.6206V74.52H26.5306V75.41ZM32.0211 74.42C32.6877 74.42 33.2277 74.6233 33.6411 75.03C34.0544 75.43 34.2611 76.01 34.2611 76.77V80H33.3611V76.9C33.3611 76.3533 33.2244 75.9367 32.9511 75.65C32.6777 75.3567 32.3044 75.21 31.8311 75.21C31.3511 75.21 30.9677 75.36 30.6811 75.66C30.4011 75.96 30.2611 76.3967 30.2611 76.97V80H29.3511V74.52H30.2611V75.3C30.4411 75.02 30.6844 74.8033 30.9911 74.65C31.3044 74.4967 31.6477 74.42 32.0211 74.42ZM35.4075 77.24C35.4075 76.68 35.5209 76.19 35.7475 75.77C35.9742 75.3433 36.2842 75.0133 36.6775 74.78C37.0775 74.5467 37.5209 74.43 38.0075 74.43C38.4875 74.43 38.9042 74.5333 39.2575 74.74C39.6109 74.9467 39.8742 75.2067 40.0475 75.52V74.52H40.9675V80H40.0475V78.98C39.8675 79.3 39.5975 79.5667 39.2375 79.78C38.8842 79.9867 38.4709 80.09 37.9975 80.09C37.5109 80.09 37.0709 79.97 36.6775 79.73C36.2842 79.49 35.9742 79.1533 35.7475 78.72C35.5209 78.2867 35.4075 77.7933 35.4075 77.24ZM40.0475 77.25C40.0475 76.8367 39.9642 76.4767 39.7975 76.17C39.6309 75.8633 39.4042 75.63 39.1175 75.47C38.8375 75.3033 38.5275 75.22 38.1875 75.22C37.8475 75.22 37.5375 75.3 37.2575 75.46C36.9775 75.62 36.7542 75.8533 36.5875 76.16C36.4209 76.4667 36.3375 76.8267 36.3375 77.24C36.3375 77.66 36.4209 78.0267 36.5875 78.34C36.7542 78.6467 36.9775 78.8833 37.2575 79.05C37.5375 79.21 37.8475 79.29 38.1875 79.29C38.5275 79.29 38.8375 79.21 39.1175 79.05C39.4042 78.8833 39.6309 78.6467 39.7975 78.34C39.9642 78.0267 40.0475 77.6633 40.0475 77.25ZM43.6154 75.27V78.5C43.6154 78.7667 43.672 78.9567 43.7854 79.07C43.8987 79.1767 44.0954 79.23 44.3754 79.23H45.0454V80H44.2254C43.7187 80 43.3387 79.8833 43.0854 79.65C42.832 79.4167 42.7054 79.0333 42.7054 78.5V75.27H41.9954V74.52H42.7054V73.14H43.6154V74.52H45.0454V75.27H43.6154ZM46.6179 73.63C46.4446 73.63 46.2979 73.57 46.1779 73.45C46.0579 73.33 45.9979 73.1833 45.9979 73.01C45.9979 72.8367 46.0579 72.69 46.1779 72.57C46.2979 72.45 46.4446 72.39 46.6179 72.39C46.7846 72.39 46.9246 72.45 47.0379 72.57C47.1579 72.69 47.2179 72.8367 47.2179 73.01C47.2179 73.1833 47.1579 73.33 47.0379 73.45C46.9246 73.57 46.7846 73.63 46.6179 73.63ZM47.0579 74.52V80H46.1479V74.52H47.0579ZM50.9989 80.09C50.4855 80.09 50.0189 79.9733 49.5989 79.74C49.1855 79.5067 48.8589 79.1767 48.6189 78.75C48.3855 78.3167 48.2689 77.8167 48.2689 77.25C48.2689 76.69 48.3889 76.1967 48.6289 75.77C48.8755 75.3367 49.2089 75.0067 49.6289 74.78C50.0489 74.5467 50.5189 74.43 51.0389 74.43C51.5589 74.43 52.0289 74.5467 52.4489 74.78C52.8689 75.0067 53.1989 75.3333 53.4389 75.76C53.6855 76.1867 53.8089 76.6833 53.8089 77.25C53.8089 77.8167 53.6822 78.3167 53.4289 78.75C53.1822 79.1767 52.8455 79.5067 52.4189 79.74C51.9922 79.9733 51.5189 80.09 50.9989 80.09ZM50.9989 79.29C51.3255 79.29 51.6322 79.2133 51.9189 79.06C52.2055 78.9067 52.4355 78.6767 52.6089 78.37C52.7889 78.0633 52.8789 77.69 52.8789 77.25C52.8789 76.81 52.7922 76.4367 52.6189 76.13C52.4455 75.8233 52.2189 75.5967 51.9389 75.45C51.6589 75.2967 51.3555 75.22 51.0289 75.22C50.6955 75.22 50.3889 75.2967 50.1089 75.45C49.8355 75.5967 49.6155 75.8233 49.4489 76.13C49.2822 76.4367 49.1989 76.81 49.1989 77.25C49.1989 77.6967 49.2789 78.0733 49.4389 78.38C49.6055 78.6867 49.8255 78.9167 50.0989 79.07C50.3722 79.2167 50.6722 79.29 50.9989 79.29ZM57.6754 74.42C58.342 74.42 58.882 74.6233 59.2954 75.03C59.7087 75.43 59.9154 76.01 59.9154 76.77V80H59.0154V76.9C59.0154 76.3533 58.8787 75.9367 58.6054 75.65C58.332 75.3567 57.9587 75.21 57.4854 75.21C57.0054 75.21 56.622 75.36 56.3354 75.66C56.0554 75.96 55.9154 76.3967 55.9154 76.97V80H55.0054V74.52H55.9154V75.3C56.0954 75.02 56.3387 74.8033 56.6454 74.65C56.9587 74.4967 57.302 74.42 57.6754 74.42ZM61.0618 77.24C61.0618 76.68 61.1752 76.19 61.4018 75.77C61.6285 75.3433 61.9385 75.0133 62.3318 74.78C62.7318 74.5467 63.1752 74.43 63.6618 74.43C64.1418 74.43 64.5585 74.5333 64.9118 74.74C65.2652 74.9467 65.5285 75.2067 65.7018 75.52V74.52H66.6218V80H65.7018V78.98C65.5218 79.3 65.2518 79.5667 64.8918 79.78C64.5385 79.9867 64.1252 80.09 63.6518 80.09C63.1652 80.09 62.7252 79.97 62.3318 79.73C61.9385 79.49 61.6285 79.1533 61.4018 78.72C61.1752 78.2867 61.0618 77.7933 61.0618 77.24ZM65.7018 77.25C65.7018 76.8367 65.6185 76.4767 65.4518 76.17C65.2852 75.8633 65.0585 75.63 64.7718 75.47C64.4918 75.3033 64.1818 75.22 63.8418 75.22C63.5018 75.22 63.1918 75.3 62.9118 75.46C62.6318 75.62 62.4085 75.8533 62.2418 76.16C62.0752 76.4667 61.9918 76.8267 61.9918 77.24C61.9918 77.66 62.0752 78.0267 62.2418 78.34C62.4085 78.6467 62.6318 78.8833 62.9118 79.05C63.1918 79.21 63.5018 79.29 63.8418 79.29C64.1818 79.29 64.4918 79.21 64.7718 79.05C65.0585 78.8833 65.2852 78.6467 65.4518 78.34C65.6185 78.0267 65.7018 77.6633 65.7018 77.25ZM69.0696 72.6V80H68.1596V72.6H69.0696Z" fill="#043449"/>
<path d="M51 23C51 30.1797 45.1797 36 38 36C30.8203 36 25 30.1797 25 23C25 15.8203 30.8203 10 38 10C45.1797 10 51 15.8203 51 23Z" fill="url(#paint0_linear_1699_17459)"/>
<path d="M37 33C35.7157 30.5366 35.0353 29.15 35 26.5H28.5C30.226 31.1383 32.1399 32.4936 37 33Z" fill="#043449"/>
<path d="M38 33.5C43.799 33.5 48.5 28.799 48.5 23C48.5 17.201 43.799 12.5 38 12.5C32.201 12.5 27.5 17.201 27.5 23C27.5 28.799 32.201 33.5 38 33.5Z" stroke="white" stroke-width="1.75" stroke-linecap="round" stroke-linejoin="round"/>
<path d="M41 19.5H35V26.5H41V19.5Z" fill="#F6A509"/>
<path d="M28.1992 19.5H47.7992" stroke="white" stroke-width="1.75" stroke-linecap="round" stroke-linejoin="round"/>
<path d="M28.1992 26.5H47.7992" stroke="white" stroke-width="1.75" stroke-linecap="round" stroke-linejoin="round"/>
<path d="M37.4176 12.5C35.4521 15.6495 34.4102 19.2875 34.4102 23C34.4102 26.7125 35.4521 30.3505 37.4176 33.5" stroke="white" stroke-width="1.75" stroke-linecap="round" stroke-linejoin="round"/>
<path d="M38.584 12.5C40.5494 15.6495 41.5914 19.2875 41.5914 23C41.5914 26.7125 40.5494 30.3505 38.584 33.5" stroke="white" stroke-width="1.75" stroke-linecap="round" stroke-linejoin="round"/>
<defs>
<linearGradient id="paint0_linear_1699_17459" x1="22.1407" y1="8.69042" x2="48.4361" y2="32.9909" gradientUnits="userSpaceOnUse">
<stop stop-color="#09E8F6"/>
<stop offset="1" stop-color="#0976F6"/>
</linearGradient>
</defs>
</svg>
