<svg width="75" height="84" viewBox="0 0 75 84" fill="none" xmlns="http://www.w3.org/2000/svg">
<path opacity="0.7" d="M17.0835 65.07C16.6235 65.07 16.2102 64.99 15.8435 64.83C15.4835 64.6633 15.2002 64.4367 14.9935 64.15C14.7868 63.8567 14.6802 63.52 14.6735 63.14H15.6435C15.6768 63.4667 15.8102 63.7433 16.0435 63.97C16.2835 64.19 16.6302 64.3 17.0835 64.3C17.5168 64.3 17.8568 64.1933 18.1035 63.98C18.3568 63.76 18.4835 63.48 18.4835 63.14C18.4835 62.8733 18.4102 62.6567 18.2635 62.49C18.1168 62.3233 17.9335 62.1967 17.7135 62.11C17.4935 62.0233 17.1968 61.93 16.8235 61.83C16.3635 61.71 15.9935 61.59 15.7135 61.47C15.4402 61.35 15.2035 61.1633 15.0035 60.91C14.8102 60.65 14.7135 60.3033 14.7135 59.87C14.7135 59.49 14.8102 59.1533 15.0035 58.86C15.1968 58.5667 15.4668 58.34 15.8135 58.18C16.1668 58.02 16.5702 57.94 17.0235 57.94C17.6768 57.94 18.2102 58.1033 18.6235 58.43C19.0435 58.7567 19.2802 59.19 19.3335 59.73H18.3335C18.3002 59.4633 18.1602 59.23 17.9135 59.03C17.6668 58.8233 17.3402 58.72 16.9335 58.72C16.5535 58.72 16.2435 58.82 16.0035 59.02C15.7635 59.2133 15.6435 59.4867 15.6435 59.84C15.6435 60.0933 15.7135 60.3 15.8535 60.46C16.0002 60.62 16.1768 60.7433 16.3835 60.83C16.5968 60.91 16.8935 61.0033 17.2735 61.11C17.7335 61.2367 18.1035 61.3633 18.3835 61.49C18.6635 61.61 18.9035 61.8 19.1035 62.06C19.3035 62.3133 19.4035 62.66 19.4035 63.1C19.4035 63.44 19.3135 63.76 19.1335 64.06C18.9535 64.36 18.6868 64.6033 18.3335 64.79C17.9802 64.9767 17.5635 65.07 17.0835 65.07ZM23.4627 59.42C23.876 59.42 24.2493 59.51 24.5827 59.69C24.916 59.8633 25.176 60.1267 25.3627 60.48C25.556 60.8333 25.6527 61.2633 25.6527 61.77V65H24.7527V61.9C24.7527 61.3533 24.616 60.9367 24.3427 60.65C24.0693 60.3567 23.696 60.21 23.2227 60.21C22.7427 60.21 22.3593 60.36 22.0727 60.66C21.7927 60.96 21.6527 61.3967 21.6527 61.97V65H20.7427V57.6H21.6527V60.3C21.8327 60.02 22.0793 59.8033 22.3927 59.65C22.7127 59.4967 23.0693 59.42 23.4627 59.42ZM29.5291 65.09C29.0158 65.09 28.5491 64.9733 28.1291 64.74C27.7158 64.5067 27.3891 64.1767 27.1491 63.75C26.9158 63.3167 26.7991 62.8167 26.7991 62.25C26.7991 61.69 26.9191 61.1967 27.1591 60.77C27.4058 60.3367 27.7391 60.0067 28.1591 59.78C28.5791 59.5467 29.0491 59.43 29.5691 59.43C30.0891 59.43 30.5591 59.5467 30.9791 59.78C31.3991 60.0067 31.7291 60.3333 31.9691 60.76C32.2158 61.1867 32.3391 61.6833 32.3391 62.25C32.3391 62.8167 32.2125 63.3167 31.9591 63.75C31.7125 64.1767 31.3758 64.5067 30.9491 64.74C30.5225 64.9733 30.0491 65.09 29.5291 65.09ZM29.5291 64.29C29.8558 64.29 30.1625 64.2133 30.4491 64.06C30.7358 63.9067 30.9658 63.6767 31.1391 63.37C31.3191 63.0633 31.4091 62.69 31.4091 62.25C31.4091 61.81 31.3225 61.4367 31.1491 61.13C30.9758 60.8233 30.7491 60.5967 30.4691 60.45C30.1891 60.2967 29.8858 60.22 29.5591 60.22C29.2258 60.22 28.9191 60.2967 28.6391 60.45C28.3658 60.5967 28.1458 60.8233 27.9791 61.13C27.8125 61.4367 27.7291 61.81 27.7291 62.25C27.7291 62.6967 27.8091 63.0733 27.9691 63.38C28.1358 63.6867 28.3558 63.9167 28.6291 64.07C28.9025 64.2167 29.2025 64.29 29.5291 64.29ZM34.4456 60.53C34.6256 60.2167 34.8923 59.9567 35.2456 59.75C35.6056 59.5367 36.0223 59.43 36.4956 59.43C36.9823 59.43 37.4223 59.5467 37.8156 59.78C38.2156 60.0133 38.529 60.3433 38.7556 60.77C38.9823 61.19 39.0956 61.68 39.0956 62.24C39.0956 62.7933 38.9823 63.2867 38.7556 63.72C38.529 64.1533 38.2156 64.49 37.8156 64.73C37.4223 64.97 36.9823 65.09 36.4956 65.09C36.029 65.09 35.6156 64.9867 35.2556 64.78C34.9023 64.5667 34.6323 64.3033 34.4456 63.99V67.6H33.5356V59.52H34.4456V60.53ZM38.1656 62.24C38.1656 61.8267 38.0823 61.4667 37.9156 61.16C37.749 60.8533 37.5223 60.62 37.2356 60.46C36.9556 60.3 36.6456 60.22 36.3056 60.22C35.9723 60.22 35.6623 60.3033 35.3756 60.47C35.0956 60.63 34.869 60.8667 34.6956 61.18C34.529 61.4867 34.4456 61.8433 34.4456 62.25C34.4456 62.6633 34.529 63.0267 34.6956 63.34C34.869 63.6467 35.0956 63.8833 35.3756 64.05C35.6623 64.21 35.9723 64.29 36.3056 64.29C36.6456 64.29 36.9556 64.21 37.2356 64.05C37.5223 63.8833 37.749 63.6467 37.9156 63.34C38.0823 63.0267 38.1656 62.66 38.1656 62.24ZM41.2034 60.53C41.3834 60.2167 41.6501 59.9567 42.0034 59.75C42.3634 59.5367 42.7801 59.43 43.2534 59.43C43.7401 59.43 44.1801 59.5467 44.5734 59.78C44.9734 60.0133 45.2868 60.3433 45.5134 60.77C45.7401 61.19 45.8534 61.68 45.8534 62.24C45.8534 62.7933 45.7401 63.2867 45.5134 63.72C45.2868 64.1533 44.9734 64.49 44.5734 64.73C44.1801 64.97 43.7401 65.09 43.2534 65.09C42.7868 65.09 42.3734 64.9867 42.0134 64.78C41.6601 64.5667 41.3901 64.3033 41.2034 63.99V67.6H40.2934V59.52H41.2034V60.53ZM44.9234 62.24C44.9234 61.8267 44.8401 61.4667 44.6734 61.16C44.5068 60.8533 44.2801 60.62 43.9934 60.46C43.7134 60.3 43.4034 60.22 43.0634 60.22C42.7301 60.22 42.4201 60.3033 42.1334 60.47C41.8534 60.63 41.6268 60.8667 41.4534 61.18C41.2868 61.4867 41.2034 61.8433 41.2034 62.25C41.2034 62.6633 41.2868 63.0267 41.4534 63.34C41.6268 63.6467 41.8534 63.8833 42.1334 64.05C42.4201 64.21 42.7301 64.29 43.0634 64.29C43.4034 64.29 43.7134 64.21 43.9934 64.05C44.2801 63.8833 44.5068 63.6467 44.6734 63.34C44.8401 63.0267 44.9234 62.66 44.9234 62.24ZM47.5213 58.63C47.3479 58.63 47.2013 58.57 47.0813 58.45C46.9613 58.33 46.9013 58.1833 46.9013 58.01C46.9013 57.8367 46.9613 57.69 47.0813 57.57C47.2013 57.45 47.3479 57.39 47.5213 57.39C47.6879 57.39 47.8279 57.45 47.9413 57.57C48.0613 57.69 48.1213 57.8367 48.1213 58.01C48.1213 58.1833 48.0613 58.33 47.9413 58.45C47.8279 58.57 47.6879 58.63 47.5213 58.63ZM47.9613 59.52V65H47.0513V59.52H47.9613ZM52.1822 59.42C52.8489 59.42 53.3889 59.6233 53.8022 60.03C54.2155 60.43 54.4222 61.01 54.4222 61.77V65H53.5222V61.9C53.5222 61.3533 53.3855 60.9367 53.1122 60.65C52.8389 60.3567 52.4655 60.21 51.9922 60.21C51.5122 60.21 51.1289 60.36 50.8422 60.66C50.5622 60.96 50.4222 61.3967 50.4222 61.97V65H49.5122V59.52H50.4222V60.3C50.6022 60.02 50.8455 59.8033 51.1522 59.65C51.4655 59.4967 51.8089 59.42 52.1822 59.42ZM58.1687 59.43C58.642 59.43 59.0553 59.5333 59.4087 59.74C59.7687 59.9467 60.0353 60.2067 60.2087 60.52V59.52H61.1287V65.12C61.1287 65.62 61.022 66.0633 60.8087 66.45C60.5953 66.8433 60.2887 67.15 59.8887 67.37C59.4953 67.59 59.0353 67.7 58.5087 67.7C57.7887 67.7 57.1887 67.53 56.7087 67.19C56.2287 66.85 55.9453 66.3867 55.8587 65.8H56.7587C56.8587 66.1333 57.0653 66.4 57.3787 66.6C57.692 66.8067 58.0687 66.91 58.5087 66.91C59.0087 66.91 59.4153 66.7533 59.7287 66.44C60.0487 66.1267 60.2087 65.6867 60.2087 65.12V63.97C60.0287 64.29 59.762 64.5567 59.4087 64.77C59.0553 64.9833 58.642 65.09 58.1687 65.09C57.682 65.09 57.2387 64.97 56.8387 64.73C56.4453 64.49 56.1353 64.1533 55.9087 63.72C55.682 63.2867 55.5687 62.7933 55.5687 62.24C55.5687 61.68 55.682 61.19 55.9087 60.77C56.1353 60.3433 56.4453 60.0133 56.8387 59.78C57.2387 59.5467 57.682 59.43 58.1687 59.43ZM60.2087 62.25C60.2087 61.8367 60.1253 61.4767 59.9587 61.17C59.792 60.8633 59.5653 60.63 59.2787 60.47C58.9987 60.3033 58.6887 60.22 58.3487 60.22C58.0087 60.22 57.6987 60.3 57.4187 60.46C57.1387 60.62 56.9153 60.8533 56.7487 61.16C56.582 61.4667 56.4987 61.8267 56.4987 62.24C56.4987 62.66 56.582 63.0267 56.7487 63.34C56.9153 63.6467 57.1387 63.8833 57.4187 64.05C57.6987 64.21 58.0087 64.29 58.3487 64.29C58.6887 64.29 58.9987 64.21 59.2787 64.05C59.5653 63.8833 59.792 63.6467 59.9587 63.34C60.1253 63.0267 60.2087 62.6633 60.2087 62.25ZM21.4818 76.51C21.4818 75.83 21.6351 75.22 21.9418 74.68C22.2484 74.1333 22.6651 73.7067 23.1918 73.4C23.7251 73.0933 24.3151 72.94 24.9618 72.94C25.7218 72.94 26.3851 73.1233 26.9518 73.49C27.5184 73.8567 27.9318 74.3767 28.1918 75.05H27.1018C26.9084 74.63 26.6284 74.3067 26.2618 74.08C25.9018 73.8533 25.4684 73.74 24.9618 73.74C24.4751 73.74 24.0384 73.8533 23.6518 74.08C23.2651 74.3067 22.9618 74.63 22.7418 75.05C22.5218 75.4633 22.4118 75.95 22.4118 76.51C22.4118 77.0633 22.5218 77.55 22.7418 77.97C22.9618 78.3833 23.2651 78.7033 23.6518 78.93C24.0384 79.1567 24.4751 79.27 24.9618 79.27C25.4684 79.27 25.9018 79.16 26.2618 78.94C26.6284 78.7133 26.9084 78.39 27.1018 77.97H28.1918C27.9318 78.6367 27.5184 79.1533 26.9518 79.52C26.3851 79.88 25.7218 80.06 24.9618 80.06C24.3151 80.06 23.7251 79.91 23.1918 79.61C22.6651 79.3033 22.2484 78.88 21.9418 78.34C21.6351 77.8 21.4818 77.19 21.4818 76.51ZM34.5464 77.05C34.5464 77.2233 34.5364 77.4067 34.5164 77.6H30.1364C30.1697 78.14 30.353 78.5633 30.6864 78.87C31.0264 79.17 31.4364 79.32 31.9164 79.32C32.3097 79.32 32.6364 79.23 32.8964 79.05C33.163 78.8633 33.3497 78.6167 33.4564 78.31H34.4364C34.2897 78.8367 33.9964 79.2667 33.5564 79.6C33.1164 79.9267 32.5697 80.09 31.9164 80.09C31.3964 80.09 30.9297 79.9733 30.5164 79.74C30.1097 79.5067 29.7897 79.1767 29.5564 78.75C29.323 78.3167 29.2064 77.8167 29.2064 77.25C29.2064 76.6833 29.3197 76.1867 29.5464 75.76C29.773 75.3333 30.0897 75.0067 30.4964 74.78C30.9097 74.5467 31.383 74.43 31.9164 74.43C32.4364 74.43 32.8964 74.5433 33.2964 74.77C33.6964 74.9967 34.003 75.31 34.2164 75.71C34.4364 76.1033 34.5464 76.55 34.5464 77.05ZM33.6064 76.86C33.6064 76.5133 33.5297 76.2167 33.3764 75.97C33.223 75.7167 33.013 75.5267 32.7464 75.4C32.4864 75.2667 32.1964 75.2 31.8764 75.2C31.4164 75.2 31.023 75.3467 30.6964 75.64C30.3764 75.9333 30.193 76.34 30.1464 76.86H33.6064ZM38.4175 74.42C39.0842 74.42 39.6242 74.6233 40.0375 75.03C40.4509 75.43 40.6575 76.01 40.6575 76.77V80H39.7575V76.9C39.7575 76.3533 39.6209 75.9367 39.3475 75.65C39.0742 75.3567 38.7009 75.21 38.2275 75.21C37.7475 75.21 37.3642 75.36 37.0775 75.66C36.7975 75.96 36.6575 76.3967 36.6575 76.97V80H35.7475V74.52H36.6575V75.3C36.8375 75.02 37.0809 74.8033 37.3875 74.65C37.7009 74.4967 38.0442 74.42 38.4175 74.42ZM43.254 75.27V78.5C43.254 78.7667 43.3107 78.9567 43.424 79.07C43.5374 79.1767 43.734 79.23 44.014 79.23H44.684V80H43.864C43.3574 80 42.9774 79.8833 42.724 79.65C42.4707 79.4167 42.344 79.0333 42.344 78.5V75.27H41.634V74.52H42.344V73.14H43.254V74.52H44.684V75.27H43.254ZM50.7866 77.05C50.7866 77.2233 50.7766 77.4067 50.7566 77.6H46.3766C46.4099 78.14 46.5933 78.5633 46.9266 78.87C47.2666 79.17 47.6766 79.32 48.1566 79.32C48.5499 79.32 48.8766 79.23 49.1366 79.05C49.4033 78.8633 49.5899 78.6167 49.6966 78.31H50.6766C50.5299 78.8367 50.2366 79.2667 49.7966 79.6C49.3566 79.9267 48.8099 80.09 48.1566 80.09C47.6366 80.09 47.1699 79.9733 46.7566 79.74C46.3499 79.5067 46.0299 79.1767 45.7966 78.75C45.5633 78.3167 45.4466 77.8167 45.4466 77.25C45.4466 76.6833 45.5599 76.1867 45.7866 75.76C46.0133 75.3333 46.3299 75.0067 46.7366 74.78C47.1499 74.5467 47.6233 74.43 48.1566 74.43C48.6766 74.43 49.1366 74.5433 49.5366 74.77C49.9366 74.9967 50.2433 75.31 50.4566 75.71C50.6766 76.1033 50.7866 76.55 50.7866 77.05ZM49.8466 76.86C49.8466 76.5133 49.7699 76.2167 49.6166 75.97C49.4633 75.7167 49.2533 75.5267 48.9866 75.4C48.7266 75.2667 48.4366 75.2 48.1166 75.2C47.6566 75.2 47.2633 75.3467 46.9366 75.64C46.6166 75.9333 46.4333 76.34 46.3866 76.86H49.8466ZM52.8978 75.41C53.0578 75.0967 53.2844 74.8533 53.5778 74.68C53.8778 74.5067 54.2411 74.42 54.6678 74.42V75.36H54.4278C53.4078 75.36 52.8978 75.9133 52.8978 77.02V80H51.9878V74.52H52.8978V75.41Z" fill="#043449"/>
<path fill-rule="evenodd" clip-rule="evenodd" d="M31 14C31 10.134 34.134 7 38 7C41.866 7 45 10.134 45 14V23H43V14C43 11.2386 40.7614 9 38 9C35.2386 9 33 11.2386 33 14V23H31V14Z" fill="#F6A509"/>
<path d="M30.1618 17.5C28.9398 17.5 27.9074 18.4218 27.8106 19.6372L26.5073 36.0009C26.3991 37.3598 27.4951 38.5 28.8585 38.5H47.1415C48.5049 38.5 49.6009 37.3598 49.4927 36.0009L48.1894 19.6372C48.0926 18.4218 47.0602 17.5 45.8382 17.5H30.1618Z" fill="#C4C4C4"/>
<path d="M30.1618 17.5C28.9398 17.5 27.9074 18.4218 27.8106 19.6372L26.5073 36.0009C26.3991 37.3598 27.4951 38.5 28.8585 38.5H47.1415C48.5049 38.5 49.6009 37.3598 49.4927 36.0009L48.1894 19.6372C48.0926 18.4218 47.0602 17.5 45.8382 17.5H30.1618Z" fill="url(#paint0_linear_1699_17194)"/>
<path d="M30.1618 17.5C28.9398 17.5 27.9074 18.4218 27.8106 19.6372L26.5073 36.0009C26.3991 37.3598 27.4951 38.5 28.8585 38.5H47.1415C48.5049 38.5 49.6009 37.3598 49.4927 36.0009L48.1894 19.6372C48.0926 18.4218 47.0602 17.5 45.8382 17.5H30.1618Z" stroke="white"/>
<path fill-rule="evenodd" clip-rule="evenodd" d="M32 29.5806C32 32.5737 34.6863 35 38 35C41.3137 35 44 32.5737 44 29.5806C44 28.8065 42.2857 28.8065 42.2857 29.5806C42.2857 31.7185 40.3669 33.4516 38 33.4516C35.6331 33.4516 33.7143 31.7185 33.7143 29.5806C33.7143 28.8065 32 28.8065 32 29.5806Z" fill="#043449"/>
<path d="M33.5 23.5C33.5 24.3284 32.8284 25 32 25C31.1716 25 30.5 24.3284 30.5 23.5C30.5 22.6716 31.1716 22 32 22C32.8284 22 33.5 22.6716 33.5 23.5Z" fill="#FAFAFA"/>
<path d="M45.5 23.5C45.5 24.3284 44.8284 25 44 25C43.1716 25 42.5 24.3284 42.5 23.5C42.5 22.6716 43.1716 22 44 22C44.8284 22 45.5 22.6716 45.5 23.5Z" fill="#FAFAFA"/>
<defs>
<linearGradient id="paint0_linear_1699_17194" x1="24.5806" y1="16.9926" x2="44.8681" y2="37.6159" gradientUnits="userSpaceOnUse">
<stop stop-color="#09E8F6"/>
<stop offset="1" stop-color="#0976F6"/>
</linearGradient>
</defs>
</svg>
