<svg width="75" height="83" viewBox="0 0 75 83" fill="none" xmlns="http://www.w3.org/2000/svg">
<path opacity="0.7" d="M21.2515 65.07C20.7915 65.07 20.3782 64.99 20.0115 64.83C19.6515 64.6633 19.3682 64.4367 19.1615 64.15C18.9548 63.8567 18.8482 63.52 18.8415 63.14H19.8115C19.8448 63.4667 19.9782 63.7433 20.2115 63.97C20.4515 64.19 20.7982 64.3 21.2515 64.3C21.6848 64.3 22.0248 64.1933 22.2715 63.98C22.5248 63.76 22.6515 63.48 22.6515 63.14C22.6515 62.8733 22.5782 62.6567 22.4315 62.49C22.2848 62.3233 22.1015 62.1967 21.8815 62.11C21.6615 62.0233 21.3648 61.93 20.9915 61.83C20.5315 61.71 20.1615 61.59 19.8815 61.47C19.6082 61.35 19.3715 61.1633 19.1715 60.91C18.9782 60.65 18.8815 60.3033 18.8815 59.87C18.8815 59.49 18.9782 59.1533 19.1715 58.86C19.3648 58.5667 19.6348 58.34 19.9815 58.18C20.3348 58.02 20.7382 57.94 21.1915 57.94C21.8448 57.94 22.3782 58.1033 22.7915 58.43C23.2115 58.7567 23.4482 59.19 23.5015 59.73H22.5015C22.4682 59.4633 22.3282 59.23 22.0815 59.03C21.8348 58.8233 21.5082 58.72 21.1015 58.72C20.7215 58.72 20.4115 58.82 20.1715 59.02C19.9315 59.2133 19.8115 59.4867 19.8115 59.84C19.8115 60.0933 19.8815 60.3 20.0215 60.46C20.1682 60.62 20.3448 60.7433 20.5515 60.83C20.7648 60.91 21.0615 61.0033 21.4415 61.11C21.9015 61.2367 22.2715 61.3633 22.5515 61.49C22.8315 61.61 23.0715 61.8 23.2715 62.06C23.4715 62.3133 23.5715 62.66 23.5715 63.1C23.5715 63.44 23.4815 63.76 23.3015 64.06C23.1215 64.36 22.8548 64.6033 22.5015 64.79C22.1482 64.9767 21.7315 65.07 21.2515 65.07ZM26.0206 60.27V63.5C26.0206 63.7667 26.0773 63.9567 26.1906 64.07C26.304 64.1767 26.5006 64.23 26.7806 64.23H27.4506V65H26.6306C26.124 65 25.744 64.8833 25.4906 64.65C25.2373 64.4167 25.1106 64.0333 25.1106 63.5V60.27H24.4006V59.52H25.1106V58.14H26.0206V59.52H27.4506V60.27H26.0206ZM30.9432 65.09C30.4299 65.09 29.9632 64.9733 29.5432 64.74C29.1299 64.5067 28.8032 64.1767 28.5632 63.75C28.3299 63.3167 28.2132 62.8167 28.2132 62.25C28.2132 61.69 28.3332 61.1967 28.5732 60.77C28.8199 60.3367 29.1532 60.0067 29.5732 59.78C29.9932 59.5467 30.4632 59.43 30.9832 59.43C31.5032 59.43 31.9732 59.5467 32.3932 59.78C32.8132 60.0067 33.1432 60.3333 33.3832 60.76C33.6299 61.1867 33.7532 61.6833 33.7532 62.25C33.7532 62.8167 33.6265 63.3167 33.3732 63.75C33.1265 64.1767 32.7899 64.5067 32.3632 64.74C31.9365 64.9733 31.4632 65.09 30.9432 65.09ZM30.9432 64.29C31.2699 64.29 31.5765 64.2133 31.8632 64.06C32.1499 63.9067 32.3799 63.6767 32.5532 63.37C32.7332 63.0633 32.8232 62.69 32.8232 62.25C32.8232 61.81 32.7365 61.4367 32.5632 61.13C32.3899 60.8233 32.1632 60.5967 31.8832 60.45C31.6032 60.2967 31.2999 60.22 30.9732 60.22C30.6399 60.22 30.3332 60.2967 30.0532 60.45C29.7799 60.5967 29.5599 60.8233 29.3932 61.13C29.2265 61.4367 29.1432 61.81 29.1432 62.25C29.1432 62.6967 29.2232 63.0733 29.3832 63.38C29.5499 63.6867 29.7699 63.9167 30.0432 64.07C30.3165 64.2167 30.6165 64.29 30.9432 64.29ZM34.6097 62.25C34.6097 61.6833 34.723 61.19 34.9497 60.77C35.1764 60.3433 35.4897 60.0133 35.8897 59.78C36.2964 59.5467 36.7597 59.43 37.2797 59.43C37.953 59.43 38.5064 59.5933 38.9397 59.92C39.3797 60.2467 39.6697 60.7 39.8097 61.28H38.8297C38.7364 60.9467 38.553 60.6833 38.2797 60.49C38.013 60.2967 37.6797 60.2 37.2797 60.2C36.7597 60.2 36.3397 60.38 36.0197 60.74C35.6997 61.0933 35.5397 61.5967 35.5397 62.25C35.5397 62.91 35.6997 63.42 36.0197 63.78C36.3397 64.14 36.7597 64.32 37.2797 64.32C37.6797 64.32 38.013 64.2267 38.2797 64.04C38.5464 63.8533 38.7297 63.5867 38.8297 63.24H39.8097C39.663 63.8 39.3697 64.25 38.9297 64.59C38.4897 64.9233 37.9397 65.09 37.2797 65.09C36.7597 65.09 36.2964 64.9733 35.8897 64.74C35.4897 64.5067 35.1764 64.1767 34.9497 63.75C34.723 63.3233 34.6097 62.8233 34.6097 62.25ZM44.0839 65L41.9339 62.58V65H41.0239V57.6H41.9339V61.95L44.0439 59.52H45.3139L42.7339 62.25L45.3239 65H44.0839ZM46.6404 58.63C46.4671 58.63 46.3204 58.57 46.2004 58.45C46.0804 58.33 46.0204 58.1833 46.0204 58.01C46.0204 57.8367 46.0804 57.69 46.2004 57.57C46.3204 57.45 46.4671 57.39 46.6404 57.39C46.8071 57.39 46.9471 57.45 47.0604 57.57C47.1804 57.69 47.2404 57.8367 47.2404 58.01C47.2404 58.1833 47.1804 58.33 47.0604 58.45C46.9471 58.57 46.8071 58.63 46.6404 58.63ZM47.0804 59.52V65H46.1704V59.52H47.0804ZM50.5713 65.09C50.1513 65.09 49.7747 65.02 49.4413 64.88C49.108 64.7333 48.8447 64.5333 48.6513 64.28C48.458 64.02 48.3513 63.7233 48.3313 63.39H49.2713C49.298 63.6633 49.4247 63.8867 49.6513 64.06C49.8847 64.2333 50.188 64.32 50.5613 64.32C50.908 64.32 51.1813 64.2433 51.3813 64.09C51.5813 63.9367 51.6813 63.7433 51.6813 63.51C51.6813 63.27 51.5747 63.0933 51.3613 62.98C51.148 62.86 50.818 62.7433 50.3713 62.63C49.9647 62.5233 49.6313 62.4167 49.3713 62.31C49.118 62.1967 48.898 62.0333 48.7113 61.82C48.5313 61.6 48.4413 61.3133 48.4413 60.96C48.4413 60.68 48.5247 60.4233 48.6913 60.19C48.858 59.9567 49.0947 59.7733 49.4013 59.64C49.708 59.5 50.058 59.43 50.4513 59.43C51.058 59.43 51.548 59.5833 51.9213 59.89C52.2947 60.1967 52.4947 60.6167 52.5213 61.15H51.6113C51.5913 60.8633 51.4747 60.6333 51.2613 60.46C51.0547 60.2867 50.7747 60.2 50.4213 60.2C50.0947 60.2 49.8347 60.27 49.6413 60.41C49.448 60.55 49.3513 60.7333 49.3513 60.96C49.3513 61.14 49.408 61.29 49.5213 61.41C49.6413 61.5233 49.788 61.6167 49.9613 61.69C50.1413 61.7567 50.388 61.8333 50.7013 61.92C51.0947 62.0267 51.4147 62.1333 51.6613 62.24C51.908 62.34 52.118 62.4933 52.2913 62.7C52.4713 62.9067 52.5647 63.1767 52.5713 63.51C52.5713 63.81 52.488 64.08 52.3213 64.32C52.1547 64.56 51.918 64.75 51.6113 64.89C51.3113 65.0233 50.9647 65.09 50.5713 65.09ZM54.9659 60.27V63.5C54.9659 63.7667 55.0226 63.9567 55.1359 64.07C55.2493 64.1767 55.4459 64.23 55.7259 64.23H56.3959V65H55.5759C55.0693 65 54.6893 64.8833 54.4359 64.65C54.1826 64.4167 54.0559 64.0333 54.0559 63.5V60.27H53.3459V59.52H54.0559V58.14H54.9659V59.52H56.3959V60.27H54.9659Z" fill="#043449"/>
<path d="M24 36L52 36" stroke="#043449" stroke-width="2.5" stroke-linecap="round" stroke-linejoin="round"/>
<rect x="25" y="22" width="12" height="11" fill="#F6A509"/>
<rect x="39" y="22" width="12" height="11" fill="#C4C4C4"/>
<rect x="39" y="22" width="12" height="11" fill="url(#paint0_linear_1699_17217)"/>
<rect x="32" y="9" width="12" height="11" fill="#C4C4C4"/>
<rect x="32" y="9" width="12" height="11" fill="url(#paint1_linear_1699_17217)"/>
<path d="M29 25H33" stroke="white" stroke-width="2" stroke-linecap="round"/>
<path d="M43 25H47" stroke="white" stroke-width="2" stroke-linecap="round"/>
<path d="M36 12H40" stroke="white" stroke-width="2" stroke-linecap="round"/>
<defs>
<linearGradient id="paint0_linear_1699_17217" x1="37.6803" y1="21.4459" x2="48.8396" y2="32.6961" gradientUnits="userSpaceOnUse">
<stop stop-color="#09E8F6"/>
<stop offset="1" stop-color="#0976F6"/>
</linearGradient>
<linearGradient id="paint1_linear_1699_17217" x1="30.6803" y1="8.44595" x2="41.8396" y2="19.6961" gradientUnits="userSpaceOnUse">
<stop stop-color="#09E8F6"/>
<stop offset="1" stop-color="#0976F6"/>
</linearGradient>
</defs>
</svg>
